SplineFontDB: 3.2
FontName: GETypoLibre
FullName: GE Typo Libre
FamilyName: GE Typo Libre
Weight: Regular
Copyright: Police de caract_res libre de droits
Version: 001.000
ItalicAngle: 0
UnderlinePosition: -150
UnderlineWidth: 50
Ascent: 800
Descent: 200
InvalidEm: 0
sfntRevision: 0x00010000
LayerCount: 2
Layer: 0 0 "Arri+AOgA-re" 1
Layer: 1 0 "Avant" 0
XUID: [1021 697 -1834872740 13273412]
StyleMap: 0x0040
FSType: 8
OS2Version: 3
OS2_WeightWidthSlopeOnly: 0
OS2_UseTypoMetrics: 0
CreationTime: 1515513131
ModificationTime: 1756885777
PfmFamily: 81
TTFWeight: 400
TTFWidth: 5
LineGap: 0
VLineGap: 0
Panose: 0 0 5 0 0 0 0 0 0 0
OS2TypoAscent: 1000
OS2TypoAOffset: 0
OS2TypoDescent: -404
OS2TypoDOffset: 0
OS2TypoLinegap: 47
OS2WinAscent: 1000
OS2WinAOffset: 0
OS2WinDescent: 420
OS2WinDOffset: 0
HheadAscent: 1000
HheadAOffset: 0
HheadDescent: -420
HheadDOffset: 0
OS2SubXSize: 650
OS2SubYSize: 600
OS2SubXOff: 0
OS2SubYOff: 75
OS2SupXSize: 650
OS2SupYSize: 600
OS2SupXOff: 0
OS2SupYOff: 350
OS2StrikeYSize: 50
OS2StrikeYPos: 247
OS2CapHeight: 819
OS2XHeight: 412
OS2Vendor: 'UKWN'
OS2CodePages: 00000001.00000000
OS2UnicodeRanges: 00000001.00000000.00000000.00000000

StartChar: exclam
Encoding: 33 33 4
Width: 276
GlyphClass: 2
Flags: MW
HStem: -7 64<167.5 184.5>
VStem: 144 64<17 34> 157 38<162 791>
LayerCount: 2
Fore
SplineSet
176 143 m 0xa0
 164 143 157 150 157 162 c 2
 157 791 l 2
 157 802 164 809 176 809 c 0
 188 809 195 802 195 791 c 2
 195 162 l 2
 195 150 188 143 176 143 c 0xa0
176 -7 m 0xc0
 159 -7 144 8 144 26 c 0
 144 42 159 57 176 57 c 0
 193 57 208 42 208 26 c 0
 208 8 193 -7 176 -7 c 0xc0
EndSplineSet
EndChar

StartChar: quotedbl
Encoding: 34 34 5
Width: 174
GlyphClass: 5
Flags: MW
HStem: 653 141<46 55 118.5 127.5>
VStem: 37 34 110 30
LayerCount: 2
Fore
SplineSet
50 653 m 0
 41 653 37 662 37 667 c 2
 32 775 l 2
 33 787 39 794 53 794 c 0
 66 794 71 783 71 774 c 2
 65 667 l 2
 64 658 60 653 50 653 c 0
123 653 m 0
 114 653 110 662 110 667 c 2
 105 775 l 2
 106 787 112 794 125 794 c 0
 139 794 144 783 143 774 c 2
 137 667 l 2
 136 658 132 653 123 653 c 0
EndSplineSet
EndChar

StartChar: quotesingle
Encoding: 39 39 6
Width: 230
GlyphClass: 2
Flags: MW
HStem: 626 180<40.5 122.5>
VStem: 33.22 98.6
LayerCount: 2
Fore
SplineSet
48 626 m 0
 33 626 32 640 34 646 c 2
 79 782 l 2
 82 788 92 806 112 806 c 0
 133 806 134 787 130 778 c 2
 69 642 l 2
 66 635 58 626 48 626 c 0
EndSplineSet
EndChar

StartChar: parenleft
Encoding: 40 40 7
Width: 290
GlyphClass: 2
Flags: MW
HStem: -46.5 21.5 800 23.38
VStem: -15 38<360.5 416>
LayerCount: 2
Fore
SplineSet
182 -44 m 0
 160 -23 106 27 50 133 c 0
 -5 237 -15 333 -15 388 c 0
 -15 444 -5 540 50 644 c 0
 106 749 160 800 182 821 c 0
 186 824 194 825 201 819 c 0
 207 813 206 804 203 800 c 0
 200 798 126 720 82 630 c 0
 44 547 23 462 23 388 c 0
 23 314 44 228 82 147 c 0
 126 55 200 -21 203 -25 c 0
 206 -27 207 -36 201 -43 c 0
 194 -48 186 -47 182 -44 c 0
EndSplineSet
EndChar

StartChar: parenright
Encoding: 41 41 8
Width: 300
GlyphClass: 2
Flags: MW
HStem: -46.37 23.37 802 21.5
VStem: 267 38<361 416.5 361 426>
LayerCount: 2
Fore
SplineSet
108 -44 m 0
 104 -47 96 -48 89 -42 c 0
 83 -36 84 -27 87 -23 c 0
 90 -21 164 57 208 147 c 0
 246 230 267 315 267 389 c 0
 267 463 246 549 208 630 c 0
 164 722 90 798 87 802 c 0
 84 804 83 813 89 820 c 0
 96 825 104 824 108 821 c 0
 130 800 184 750 240 644 c 0
 295 540 305 444 305 389 c 0
 305 333 295 237 240 133 c 0
 184 28 130 -23 108 -44 c 0
EndSplineSet
EndChar

StartChar: asterisk
Encoding: 42 42 9
Width: 410
GlyphClass: 2
Flags: MW
HStem: 512.29 308.71 680 37<9 21>
VStem: 138 34.5
LayerCount: 2
Fore
SplineSet
57 516 m 0xa0
 46 525 46 534 52 543 c 2
 132 644 l 1
 9 680 l 2
 0 683 -9 691 -4 704 c 0
 0 717 9 721 21 717 c 2
 140 673 l 1
 136 800 l 2x60
 135 809 141 821 154 821 c 0
 169 820 174 813 175 800 c 2
 170 673 l 1
 290 717 l 2
 299 721 311 718 315 706 c 0
 319 693 314 685 303 680 c 2
 180 646 l 1
 259 544 l 2
 265 537 267 525 255 517 c 0
 244 509 235 512 227 521 c 2
 156 627 l 1
 84 521 l 2
 79 513 70 508 57 516 c 0xa0
EndSplineSet
EndChar

StartChar: plus
Encoding: 43 43 10
Width: 552
GlyphClass: 2
Flags: MW
HStem: -6 21G<193.5 205> 182 37<5.5 181 10 181 218 390>
VStem: 181 37<10 182 219 390>
LayerCount: 2
Fore
SplineSet
199 -6 m 0
 188 -6 181 1 181 10 c 2
 181 182 l 1
 10 182 l 2
 1 182 -7 189 -7 200 c 0
 -7 212 1 219 10 219 c 2
 181 219 l 1
 181 390 l 2
 181 399 188 407 199 407 c 0
 211 407 218 399 218 390 c 2
 218 219 l 1
 390 219 l 2
 399 219 406 212 406 200 c 0
 406 189 399 182 390 182 c 2
 218 182 l 1
 218 10 l 2
 218 1 211 -6 199 -6 c 0
EndSplineSet
EndChar

StartChar: comma
Encoding: 44 44 11
Width: 128
GlyphClass: 2
Flags: MW
HStem: -90.34 149.09
VStem: 34 48
LayerCount: 2
Fore
SplineSet
4 -88 m 0
 -3 -82 -3 -75 2 -70 c 0
 15 -54 33 -20 34 0 c 0
 34 21 33 33 38 43 c 0
 42 53 52 63 67 57 c 0
 85 51 83 33 82 27 c 0
 79 2 66 -19 55 -39 c 0
 42 -57 28 -80 22 -85 c 0
 18 -90 11 -93 4 -88 c 0
EndSplineSet
EndChar

StartChar: hyphen
Encoding: 45 45 12
Width: 372
GlyphClass: 2
Flags: MW
HStem: 180 39<83 276 88 276>
VStem: 88 188<180 180 180 219>
LayerCount: 2
Fore
SplineSet
88 180 m 2
 78 180 70 187 70 199 c 0
 70 212 78 219 88 219 c 2
 276 219 l 2
 287 219 295 212 295 199 c 0
 295 187 287 180 276 180 c 2
 88 180 l 2
EndSplineSet
EndChar

StartChar: period
Encoding: 46 46 13
Width: 129
GlyphClass: 2
Flags: MW
HStem: -7 63<45.5 63>
VStem: 23 63<15.5 33>
LayerCount: 2
Fore
SplineSet
54 -7 m 0
 37 -7 23 7 23 24 c 0
 23 42 37 56 54 56 c 0
 72 56 86 42 86 24 c 0
 86 7 72 -7 54 -7 c 0
EndSplineSet
EndChar

StartChar: slash
Encoding: 47 47 14
Width: 540
GlyphClass: 2
Flags: MW
HStem: -33.12 861.27
VStem: -5.52 401.03
LayerCount: 2
Fore
SplineSet
7 -31 m 0
 -4 -27 -8 -16 -4 -8 c 2
 359 819 l 2
 363 827 372 831 383 826 c 0
 394 822 398 811 394 803 c 2
 31 -23 l 2
 27 -32 18 -36 7 -31 c 0
EndSplineSet
EndChar

StartChar: zero
Encoding: 48 48 15
Width: 559
GlyphClass: 2
Flags: MW
HStem: -5 37<151.5 248.5 151.5 259.5> 769 38<151.5 248.5>
VStem: -16 38<300.5 501 300.5 513> 378 38<300.5 501>
LayerCount: 2
Fore
SplineSet
200 -5 m 0
 81 -5 -16 177 -16 401 c 0
 -16 625 81 807 200 807 c 0
 319 807 416 625 416 401 c 0
 416 177 319 -5 200 -5 c 0
200 32 m 0
 297 32 378 200 378 401 c 0
 378 601 297 769 200 769 c 0
 103 769 22 601 22 401 c 0
 22 200 103 32 200 32 c 0
EndSplineSet
EndChar

StartChar: one
Encoding: 49 49 16
Width: 335
GlyphClass: 2
Flags: MW
HStem: -10 21G<117.5 128>
VStem: -14.87 36.87 103 39<10 716 716 716>
LayerCount: 2
Fore
SplineSet
123 -10 m 0
 112 -10 103 -1 103 10 c 2
 103 716 l 1
 71 666 22 587 22 585 c 0
 14 576 2 574 -6 579 c 0
 -15 586 -18 598 -12 607 c 2
 106 795 l 2
 111 801 119 805 128 804 c 0
 137 800 142 793 142 785 c 2
 142 10 l 2
 142 -1 133 -10 123 -10 c 0
EndSplineSet
EndChar

StartChar: two
Encoding: 50 50 17
Width: 539
GlyphClass: 2
Flags: MW
HStem: -7 39<1 397 43 397 43 397> 767 39<157 250.5>
VStem: -5 39<592.5 644 592 655> 374 38<579.5 644>
LayerCount: 2
Fore
SplineSet
5 -7 m 2
 -3 -7 -9 -3 -13 4 c 0
 -17 12 -16 20 -10 25 c 2
 341 498 l 2
 362 527 374 562 374 597 c 0
 374 691 297 767 204 767 c 0
 110 767 34 691 34 597 c 0
 34 587 25 579 15 579 c 0
 5 579 -5 588 -5 597 c 0
 -5 713 89 806 204 806 c 0
 319 806 412 713 412 597 c 0
 412 553 398 510 372 475 c 0
 369 470 97 105 43 32 c 1
 397 32 l 2
 408 32 417 23 417 13 c 0
 417 2 408 -7 397 -7 c 2
 5 -7 l 2
EndSplineSet
EndChar

StartChar: three
Encoding: 51 51 18
Width: 561
GlyphClass: 2
Flags: MW
HStem: -7 39<151.5 248 151.5 259> 389 38<139.5 211 144 210> 767 39<153.5 246.5>
VStem: -17 39<161 214> -9 39<592.5 643 592.5 655> 372 39<557.5 644> 379 38<160.5 251.5 149.5 256>
LayerCount: 2
Fore
SplineSet
199 -7 m 0xf2
 81 -7 -17 91 -17 208 c 0
 -17 220 -8 229 3 229 c 0
 14 229 22 221 22 208 c 0
 22 114 104 32 199 32 c 0
 297 32 379 113 379 208 c 0xf2
 379 304 307 382 210 389 c 1
 144 389 l 2
 135 389 124 396 124 407 c 0
 124 418 134 427 144 427 c 2
 211 427 l 1
 301 433 372 508 372 597 c 0
 372 691 294 767 199 767 c 0
 108 767 30 689 30 597 c 0
 30 588 21 578 11 578 c 0
 0 578 -9 588 -9 597 c 0
 -9 713 85 806 199 806 c 0
 315 806 411 713 411 597 c 0xec
 411 518 362 443 289 407 c 1
 366 373 417 295 417 208 c 0
 417 91 319 -7 199 -7 c 0xf2
EndSplineSet
EndChar

StartChar: four
Encoding: 52 52 19
Width: 676
GlyphClass: 2
Flags: MW
HStem: -10 21G<367 391.5> 190 39<-2 367 39 367 39 367 39 405 405 514>
VStem: 367 38<11 190 229 403>
LayerCount: 2
Fore
SplineSet
386 -10 m 0
 375 -10 367 -1 367 11 c 2
 367 190 l 1
 2 190 l 2
 -6 190 -12 193 -15 200 c 0
 -19 208 -18 215 -13 221 c 2
 367 801 l 2
 373 810 386 812 395 806 c 0
 405 799 404 786 400 781 c 0
 395 773 91 310 39 229 c 1
 367 229 l 1
 367 403 l 2
 367 414 374 422 386 422 c 0
 398 422 405 414 405 403 c 2
 405 229 l 1
 514 229 l 2
 525 229 534 221 534 210 c 0
 534 199 525 190 514 190 c 2
 405 190 l 1
 405 11 l 2
 405 -1 397 -10 386 -10 c 0
EndSplineSet
EndChar

StartChar: five
Encoding: 53 53 20
Width: 559
GlyphClass: 2
Flags: MW
HStem: -7 39<172 226.5> 507 39<180 226 166 246.5> 766 40<28 385 28 28>
VStem: -11 39<465 766 465 785 465 790.5> 379 38<232.5 306 232.5 334.5>
LayerCount: 2
Fore
SplineSet
196 -7 m 0
 148 -7 101 11 62 44 c 0
 24 78 -2 125 -14 184 c 0
 -15 189 -13 202 0 206 c 0
 14 209 23 200 25 191 c 0
 42 96 111 32 196 32 c 0
 297 32 379 138 379 269 c 0
 379 400 297 507 196 507 c 0
 164 507 131 496 98 475 c 0
 68 455 43 426 26 391 c 0
 23 384 13 378 4 381 c 0
 -3 382 -11 390 -11 399 c 2
 -11 785 l 2
 -11 796 -2 806 9 806 c 2
 385 806 l 2
 395 806 404 796 404 785 c 0
 404 775 395 766 385 766 c 2
 28 766 l 1
 28 465 l 1
 73 516 136 546 196 546 c 0
 256 546 312 516 354 462 c 0
 395 410 417 343 417 269 c 0
 417 196 395 129 354 76 c 0
 313 23 257 -7 196 -7 c 0
EndSplineSet
EndChar

StartChar: six
Encoding: 54 54 21
Width: 572
GlyphClass: 2
Flags: MW
HStem: -7 40<188.5 260.5 188.5 271.5> 392 39<188 260.5> 766 40<242 264 242 277>
VStem: -14 38 389 39<162 261>
LayerCount: 2
Fore
SplineSet
212 -7 m 0
 154 -7 104 14 65 53 c 0
 33 86 11 129 0 176 c 0
 -14 236 -18 311 -14 399 c 0
 -9 511 13 606 51 677 c 0
 96 760 162 805 242 806 c 0
 286 806 326 794 358 769 c 0
 388 749 410 717 423 679 c 0
 424 673 424 658 412 654 c 0
 400 649 389 655 387 666 c 0
 368 728 312 766 242 766 c 0
 93 766 33 576 25 399 c 0
 24 368 24 342 24 319 c 1
 33 337 44 352 58 367 c 0
 98 408 153 431 212 431 c 0
 331 431 428 332 428 211 c 0
 428 91 331 -7 212 -7 c 0
212 33 m 0
 309 33 389 113 389 211 c 0
 389 311 309 392 212 392 c 0
 164 392 119 374 85 339 c 0
 54 306 36 260 36 211 c 0
 36 175 54 120 93 81 c 0
 124 49 165 33 212 33 c 0
EndSplineSet
EndChar

StartChar: seven
Encoding: 55 55 22
Width: 536
GlyphClass: 2
Flags: MW
HStem: 382 37<84 177 89 159 89 202 220 299> 766 39<7 374 13 342>
VStem: -15.12 408.37 89 210<382 382 382 419>
LayerCount: 2
Fore
SplineSet
-4 -5 m 0xe0
 -14 0 -17 12 -14 22 c 0
 -12 26 73 201 159 382 c 1
 89 382 l 2
 79 382 70 390 70 400 c 0
 70 411 79 419 89 419 c 2
 177 419 l 1
 257 588 334 748 342 766 c 1
 13 766 l 2
 1 766 -6 774 -6 785 c 0
 -6 797 1 805 13 805 c 2
 374 805 l 2
 380 805 387 802 390 796 c 0
 394 790 394 784 392 777 c 2
 220 419 l 1
 299 419 l 2
 309 419 319 410 319 400 c 0
 319 391 309 382 299 382 c 2
 202 382 l 1xd0
 21 5 l 2
 18 -2 8 -10 -4 -5 c 0xe0
EndSplineSet
EndChar

StartChar: eight
Encoding: 56 56 23
Width: 548
GlyphClass: 2
Flags: MW
HStem: -7 39<147.5 241 147.5 252> 767 39<148.5 240>
VStem: -17 38<156 221.5 156 225.5> -13 38<577.5 646 563.5 656> 361 39<577 646> 365 39<156 221>
LayerCount: 2
Fore
SplineSet
195 -7 m 0xe4
 78 -7 -17 88 -17 202 c 0
 -17 249 -3 295 25 331 c 0xe8
 52 369 88 395 127 409 c 1
 88 421 53 446 28 478 c 0
 2 512 -13 555 -13 600 c 0
 -13 712 80 806 195 806 c 0
 306 806 400 712 400 600 c 0
 400 554 385 512 360 478 c 0xd8
 332 445 299 421 260 409 c 1
 300 395 336 368 362 331 c 0
 389 295 404 249 404 202 c 0
 404 88 309 -7 195 -7 c 0xe4
195 429 m 1
 218 437 243 444 243 444 c 2
 314 466 361 526 361 600 c 0
 361 692 285 767 195 767 c 0
 102 767 25 692 25 600 c 0xd8
 25 527 72 466 144 444 c 2
 195 429 l 1
195 32 m 0
 287 32 365 110 365 202 c 0
 365 240 352 278 330 310 c 0
 308 341 277 362 243 373 c 0
 242 373 218 380 195 388 c 1
 144 373 l 2
 110 362 79 341 56 310 c 0
 34 278 21 241 21 202 c 0
 21 110 100 32 195 32 c 0
EndSplineSet
EndChar

StartChar: nine
Encoding: 57 57 24
Width: 568
GlyphClass: 2
Flags: MW
HStem: -7 40<170.5 190 170.5 191> 379 40<154.5 240> 766 39<154.5 249.5>
VStem: -11 38<545 639.5 545 650.5> 375 50.04 386 37
LayerCount: 2
Fore
SplineSet
191 -7 m 0xf8
 139 -7 95 10 61 39 c 0
 21 72 -6 125 -14 190 c 0
 -15 199 -9 209 3 212 c 0
 13 213 24 204 25 195 c 0
 31 140 53 97 86 69 c 0
 113 44 151 33 190 33 c 0
 252 34 297 67 330 135 c 0
 358 193 376 278 384 396 c 0
 386 430 386 458 386 488 c 1xf8
 349 421 278 379 202 379 c 0
 85 379 -11 475 -11 592 c 0
 -11 709 85 805 202 805 c 0
 305 805 392 734 410 630 c 0
 424 557 428 487 423 393 c 0
 414 270 395 180 364 117 c 0xf4
 325 36 264 -5 191 -7 c 0xf8
202 419 m 0
 297 419 375 498 375 592 c 0
 375 687 297 766 202 766 c 0
 107 766 27 687 27 592 c 0
 27 498 107 419 202 419 c 0
EndSplineSet
EndChar

StartChar: colon
Encoding: 58 58 25
Width: 275
GlyphClass: 2
Flags: MW
HStem: -8 64<92 110> 345 65<92 110>
VStem: 69 64<15.5 33.5 368.5 386>
LayerCount: 2
Fore
SplineSet
101 345 m 0
 83 345 69 360 69 377 c 0
 69 395 83 410 101 410 c 0
 119 410 133 395 133 377 c 0
 133 360 119 345 101 345 c 0
101 -8 m 0
 83 -8 69 6 69 25 c 0
 69 42 83 56 101 56 c 0
 119 56 133 42 133 25 c 0
 133 6 119 -8 101 -8 c 0
EndSplineSet
EndChar

StartChar: semicolon
Encoding: 59 59 26
Width: 310
GlyphClass: 2
Flags: MW
HStem: 343 64<126 143>
VStem: 103 63<366 384> 116 49<-28 1>
LayerCount: 2
Fore
SplineSet
135 343 m 0xc0
 117 343 103 357 103 375 c 0
 103 393 117 407 135 407 c 0
 151 407 166 393 166 375 c 0
 166 357 151 343 135 343 c 0xc0
85 -118 m 0xa0
 78 -112 79 -105 82 -100 c 0
 95 -82 115 -50 116 -28 c 0
 116 -7 114 5 119 15 c 0
 124 25 134 36 150 30 c 0
 166 24 165 4 165 -2 c 0
 160 -26 148 -48 137 -67 c 0
 125 -87 108 -109 104 -114 c 0
 99 -119 92 -123 85 -118 c 0xa0
EndSplineSet
EndChar

StartChar: equal
Encoding: 61 61 27
Width: 571
GlyphClass: 2
Flags: MW
HStem: 114 37<7 408 13 408> 250 37<7 408 13 408>
VStem: -6 433<126.5 138 263 274.5>
LayerCount: 2
Fore
SplineSet
13 250 m 2
 1 250 -6 257 -6 269 c 0
 -6 280 1 287 13 287 c 2
 408 287 l 2
 420 287 427 280 427 269 c 0
 427 257 420 250 408 250 c 2
 13 250 l 2
13 114 m 2
 1 114 -6 121 -6 132 c 0
 -6 144 1 151 13 151 c 2
 408 151 l 2
 420 151 427 144 427 132 c 0
 427 121 420 114 408 114 c 2
 13 114 l 2
EndSplineSet
EndChar

StartChar: question
Encoding: 63 63 28
Width: 448
GlyphClass: 2
Flags: MW
HStem: -7 64<217 234.5> 767.8 39.2
VStem: 75 36 194 64<16 33.5> 204 43<161 161> 414 40.75
LayerCount: 2
Fore
SplineSet
204 161 m 0xec
 204 274 207 310 270 380 c 0
 305 418 348 460 380 509 c 0
 405 543 415 579 414 620 c 0
 409 732 292 806 188 747 c 0
 132 714 105 658 111 592 c 0
 113 565 71 562 69 589 c 0
 67 614 68 642 75 669 c 0
 88 710 119 751 161 778 c 0
 191 798 229 808 267 807 c 0
 330 806 393 775 426 714 c 0
 465 645 466 565 419 494 c 0
 381 438 334 390 289 341 c 0
 241 289 245 231 247 161 c 0
 248 134 204 135 204 161 c 0xec
225 -7 m 0xf4
 209 -7 194 7 194 25 c 0
 194 42 209 57 225 57 c 0
 244 57 258 42 258 25 c 0
 258 7 244 -7 225 -7 c 0xf4
EndSplineSet
EndChar

StartChar: at
Encoding: 64 64 29
Width: 904
GlyphClass: 2
Flags: MW
HStem: -10 31<426.5 530 426.5 536> 168.93 28.5 170 39<400 448> 598 38<399.5 449 399.5 462> 777.2 32.91
VStem: 69 39.76 252 38<372 435> 559 39<351.5 458 548 548> 803.7 29.3
LayerCount: 2
Fore
SplineSet
476 -10 m 0xdf80
 330 -10 207 53 129 186 c 0
 92 249 71 317 69 387 c 0
 64 551 156 713 318 780 c 0
 552 877 808 735 833 467 c 0
 845 357 792 195 677 172 c 0
 606 157 568 198 560 254 c 1xdf80
 558 249 554 245 548 239 c 0
 520 194 471 170 425 170 c 0
 375 170 330 195 300 241 c 0xbf80
 269 283 252 340 252 404 c 0
 252 466 268 522 300 565 c 0
 329 610 374 636 425 636 c 0
 473 636 515 611 547 565 c 0
 548 562 558 551 559 548 c 1
 558 599 l 2
 558 612 565 622 578 622 c 0
 591 622 598 612 598 599 c 2
 598 313 l 1
 598 307 l 2
 597 251 606 183 675 200 c 0
 732 213 780 290 795 350 c 0
 817 445 797 554 740 637 c 0
 624 808 375 824 224 678 c 0
 82 539 66 302 203 149 c 0
 278 63 377 21 476 21 c 0
 584 21 672 61 763 152 c 0
 767 156 777 162 785 152 c 0
 792 145 793 140 785 133 c 0
 706 46 596 -10 476 -10 c 0xdf80
425 209 m 0xbf80
 499 209 559 298 559 405 c 0
 559 511 499 598 425 598 c 0
 350 598 290 511 290 405 c 0
 290 298 350 209 425 209 c 0xbf80
EndSplineSet
EndChar

StartChar: A
Encoding: 65 65 30
Width: 815
GlyphClass: 5
Flags: MW
HStem: -10 38<73.5 92 73.5 97> 110 36<623 623>
VStem: 623 37<9 110 110 110 147 727 727 727>
LayerCount: 2
Fore
SplineSet
84 -10 m 0
 46 -10 13 17 4 52 c 0
 1 62 7 73 17 76 c 0
 27 79 38 73 41 63 c 0
 45 42 63 28 84 28 c 0
 100 28 111 35 119 47 c 2
 626 802 l 2
 629 809 639 812 648 810 c 0
 655 808 660 801 660 791 c 2
 660 147 l 1
 756 154 789 196 811 247 c 0
 816 253 823 256 830 253 c 0
 837 250 839 242 836 234 c 0
 802 154 751 119 660 111 c 1
 660 9 l 2
 660 -1 652 -10 643 -10 c 0
 632 -10 623 -2 623 9 c 2
 623 110 l 1
 526 107 412 149 291 231 c 1
 212 116 152 26 152 26 c 2
 137 4 110 -10 84 -10 c 0
623 146 m 1
 623 727 l 1
 593 684 372 354 311 265 c 1
 382 215 450 181 515 162 c 0
 551 151 588 145 623 146 c 1
EndSplineSet
EndChar

StartChar: B
Encoding: 66 66 31
Width: 629
GlyphClass: 5
Flags: MW
HStem: -7 39 -5 38<62.5 84.5 62.5 93.5> 379 37<155 301 155 316 155 301> 766 38<251.5 280 271 279>
VStem: 117 38<130 379 130 416 416 747 747 747> 488 39<552 640> 495 39<158.5 249.5 148.5 254>
LayerCount: 2
Fore
SplineSet
316 -7 m 0xba
 255 -7 197 19 155 64 c 1
 148 24 115 -5 72 -5 c 0
 35 -5 4 20 -7 56 c 0
 -10 65 -10 77 5 81 c 0
 18 87 25 77 29 67 c 0
 34 50 53 33 72 33 c 0
 97 33 117 53 117 76 c 2
 117 747 l 1
 80 738 43 726 11 710 c 0
 3 706 -10 710 -14 721 c 0
 -18 730 -16 740 -4 746 c 0
 78 785 171 804 271 804 c 2
 280 804 l 2
 416 804 527 708 527 592 c 0x7c
 527 512 475 438 394 401 c 1
 477 371 534 292 534 207 c 0
 534 90 435 -7 316 -7 c 0xba
155 416 m 1
 301 416 l 1
 407 426 488 501 488 592 c 0xbc
 488 688 393 766 279 766 c 2
 269 766 l 2
 234 766 194 763 155 756 c 1
 155 416 l 1
314 32 m 0xba
 413 30 495 110 495 207 c 0
 495 301 414 379 316 379 c 2
 155 379 l 1
 155 130 l 1
 156 130 196 34 314 32 c 0xba
EndSplineSet
EndChar

StartChar: C
Encoding: 67 67 32
Width: 439
GlyphClass: 2
Flags: MW
HStem: -17 39<174 271 174 271.5> 779 40<174 257.5>
VStem: -15 39<298 503 298 514>
LayerCount: 2
Fore
SplineSet
230 -17 m 0
 98 -17 -15 175 -15 400 c 0
 -15 628 98 819 230 819 c 0
 300 819 366 770 412 686 c 0
 417 676 415 665 404 660 c 0
 393 653 382 661 379 668 c 0
 340 736 285 779 230 779 c 0
 118 779 24 606 24 400 c 0
 24 196 118 22 230 22 c 0
 312 22 346 58 430 236 c 0
 433 241 440 246 448 242 c 0
 455 239 457 230 455 225 c 0
 363 7 313 -17 230 -17 c 0
EndSplineSet
Substitution2: "Single Substitution lookup 90 subtable" C.001
EndChar

StartChar: D
Encoding: 68 68 33
Width: 729
GlyphClass: 5
Flags: MW
HStem: -7 35 -6 39<314 382.5 314 392> 71 36 767 39<279 300 285 300>
VStem: -14 32 210 39<213 760 760 760> 595 40<286 500.5>
LayerCount: 2
Fore
SplineSet
88 -7 m 0xbe
 62 -8 -5 -4 -14 43 c 0xbe
 -18 59 -14 74 -5 84 c 0
 13 105 45 110 76 107 c 0
 112 104 137 91 168 76 c 1
 188 99 210 141 210 213 c 2
 210 760 l 1
 173 754 141 744 113 729 c 0
 104 725 90 729 87 739 c 0
 83 750 86 761 96 765 c 0
 151 792 215 806 285 806 c 2
 300 806 l 2
 484 806 635 623 635 399 c 0
 635 150 469 -6 315 -6 c 0x7e
 313 -6 240 -4 181 26 c 1
 181 26 178 27 176 29 c 0
 151 6 116 -6 88 -7 c 0xbe
315 33 m 0x7e
 450 33 595 173 595 399 c 0
 595 602 463 767 300 767 c 2
 285 767 l 2
 273 767 260 767 249 766 c 1
 249 213 l 2
 249 152 233 98 203 58 c 1
 252 35 313 33 315 33 c 0x7e
86 28 m 0xbe
 104 28 123 35 140 47 c 1
 114 62 97 68 71 71 c 0
 45 74 23 69 19 62 c 0
 18 60 16 55 18 51 c 0
 21 34 55 28 86 28 c 0xbe
EndSplineSet
Substitution2: "Single Substitution lookup 75 subtable" D.001
EndChar

StartChar: E
Encoding: 69 69 34
Width: 467
GlyphClass: 2
Flags: MW
HStem: -16 38<159 254.5> 381 40<197 261 197 261> 780 39<155.5 251.5>
VStem: -15 38<162.5 249.5> -12 39<551.5 639.5 546.5 648.5>
LayerCount: 2
Fore
SplineSet
215 -16 m 0xf0
 103 -16 -15 69 -15 207 c 0xf0
 -15 292 35 365 112 400 c 1
 37 435 -12 510 -12 593 c 0
 -12 704 72 819 215 819 c 0
 305 819 381 771 419 692 c 0
 426 681 423 669 412 665 c 0
 404 660 389 661 383 675 c 0
 352 740 288 780 215 780 c 0
 96 780 27 686 27 593 c 0xe8
 27 500 102 422 197 421 c 2
 261 421 l 2
 274 421 280 411 280 400 c 0
 280 389 273 381 261 381 c 2
 197 381 l 1
 99 376 23 300 23 207 c 0
 23 118 100 22 215 22 c 0
 319 22 383 78 460 236 c 0
 464 243 469 247 479 242 c 0
 488 238 488 231 485 224 c 0
 386 3 294 -16 215 -16 c 0xf0
EndSplineSet
Substitution2: "Single Substitution lookup 90 subtable" E.001
EndChar

StartChar: F
Encoding: 70 70 35
Width: 443
GlyphClass: 5
Flags: MW
HStem: -6 38<189 211 189 221.5> 380 38<160.5 243 166 243 281 350> 767 39<55 506 67 243 281 281 281 506>
VStem: -15 39<718 735 717.5 746> 243 38<76 380 418 767>
LayerCount: 2
Fore
SplineSet
199 -6 m 0
 160 -6 125 24 119 63 c 0
 117 74 119 83 132 86 c 0
 145 90 155 80 157 69 c 0
 162 47 179 32 199 32 c 0
 223 32 243 52 243 76 c 2
 243 380 l 1
 166 380 l 2
 155 380 147 388 147 398 c 0
 147 410 155 418 166 418 c 2
 243 418 l 1
 243 767 l 1
 67 767 l 2
 43 767 24 747 24 723 c 0
 24 712 15 704 3 704 c 0
 -6 704 -15 713 -15 723 c 0
 -15 769 22 806 67 806 c 2
 506 806 l 2
 517 806 526 797 526 787 c 0
 526 775 517 767 506 767 c 2
 281 767 l 1
 281 418 l 1
 350 418 l 2
 362 418 371 410 371 398 c 0
 371 388 361 380 350 380 c 2
 281 380 l 1
 281 76 l 2
 281 31 244 -6 199 -6 c 0
EndSplineSet
EndChar

StartChar: G
Encoding: 71 71 36
Width: 522
GlyphClass: 5
Flags: MW
HStem: -405 38 -6 37<164 241 159.5 248.5> 768 40<222 222>
VStem: -19 40<286 514 286 514.5> 240.94 38.56 380 38<-84 -77 -77 -77 -13 -10 55 139 139 139 329 399>
LayerCount: 2
Fore
SplineSet
305 -405 m 0
 216 -394 241 -291 254 -257 c 0
 269 -217 315 -130 380 -13 c 1
 380 139 l 1
 377 122 365 97 356 81 c 0
 320 23 275 -6 222 -6 c 0
 106 -6 -19 100 -19 399 c 0
 -19 630 84 807 222 808 c 0
 326 808 389 758 421 670 c 0
 426 660 422 651 410 646 c 0
 396 641 388 648 385 657 c 0
 356 735 294 770 222 768 c 0
 125 767 21 629 21 399 c 0
 21 173 97 31 222 31 c 0
 260 31 295 56 322 101 c 0
 354 153 380 208 380 329 c 2
 380 399 l 2
 380 411 388 419 399 419 c 0
 410 419 418 409 418 399 c 2
 418 55 l 1
 461 134 505 221 517 249 c 0
 520 256 527 260 536 255 c 0
 546 251 545 241 542 237 c 0
 518 180 466 78 418 -10 c 1
 418 -87 l 2
 418 -256 400 -352 361 -389 c 0
 348 -400 330 -409 305 -405 c 0
309 -367 m 0
 318 -368 328 -365 335 -359 c 0
 365 -333 380 -235 380 -84 c 2
 380 -77 l 1
 336 -157 300 -238 295 -252 c 0
 278 -292 266 -361 309 -367 c 0
EndSplineSet
Substitution2: "Single Substitution lookup 90 subtable" G.001
EndChar

StartChar: H
Encoding: 72 72 37
Width: 567
GlyphClass: 2
Flags: MW
HStem: -5 39.88 -4 35<419 446 419 453.5> 308 180<238 238 238 276> 766 39<54 130 66 110>
VStem: -16 39<718 735 717.5 745.5> -13 38 110.5 38.5 238 38<308 361 361 361 441 488> 364 39<81 482 482 482> 490 37
LayerCount: 2
Fore
SplineSet
581 255 m 0x77c0
 587 252 591 246 587 236 c 0
 519 71 487 -4 420 -4 c 0
 364 -4 364 53 364 81 c 2x77c0
 364 482 l 1
 276 397 l 1
 276 308 l 2
 276 297 267 289 256 289 c 0
 245 289 238 297 238 308 c 2
 238 361 l 1
 149 275 l 1
 149 102 l 2
 149 59 127 -5 62 -5 c 0
 -1 -4 -15 49 -13 95 c 0
 -11 140 11 183 48 223 c 0xb7c0
 61 235 99 269 111 281 c 1
 110 766 l 1
 66 766 l 2
 42 766 23 747 23 723 c 0
 23 712 15 705 3 705 c 0x7bc0
 -8 705 -16 713 -16 723 c 0
 -16 768 21 805 66 805 c 2
 130 805 l 2
 140 805 149 797 149 786 c 2
 149 319 l 1
 238 404 l 1
 238 488 l 2
 238 498 245 508 256 508 c 0
 267 508 276 499 276 488 c 2
 276 441 l 1
 364 525 l 1
 365 700 l 2
 365 744 379 773 409 792 c 0
 429 806 453 810 478 800 c 0
 500 792 515 774 522 750 c 0
 528 732 528 715 527 705 c 0
 524 660 505 619 466 578 c 0
 449 561 411 529 403 521 c 1
 403 81 l 2
 403 31 414 31 424 31 c 0
 468 31 506 115 562 249 c 0
 565 256 574 257 581 255 c 0x77c0
403 698 m 2
 403 561 l 1
 433 588 447 606 455 615 c 0
 476 642 488 675 490 710 c 0
 491 728 484 756 465 763 c 0
 452 769 440 765 431 760 c 0
 412 748 403 727 403 698 c 2
110 103 m 2xb7c0
 111 240 l 1
 82 214 65 196 58 186 c 0
 36 158 26 125 25 92 c 0
 23 72 31 43 49 37 c 0
 61 33 72 34 83 41 c 0
 101 53 110 73 110 103 c 2xb7c0
EndSplineSet
Substitution2: "Single Substitution lookup 90 subtable" H.001
EndChar

StartChar: I
Encoding: 73 73 38
Width: 526
GlyphClass: 5
Flags: MW
HStem: -18 39<146.5 240.5 146.5 251.5> 765 41<305.5 384 317 364>
VStem: -16 37<144.5 197 144.5 197> 235 38<717.5 735 717.5 745.5> 364 38<191 765 765 765>
LayerCount: 2
Fore
SplineSet
194 -18 m 0
 78 -18 -16 77 -16 191 c 0
 -16 203 -8 211 3 211 c 0
 13 211 21 203 21 191 c 0
 21 98 99 21 194 21 c 0
 287 21 364 98 364 191 c 2
 364 765 l 1
 317 765 l 2
 294 765 273 747 273 723 c 0
 273 712 265 703 254 703 c 0
 243 703 235 712 235 723 c 0
 235 768 272 806 317 806 c 2
 384 806 l 2
 393 806 402 796 402 785 c 2
 402 191 l 2
 402 77 309 -18 194 -18 c 0
EndSplineSet
Substitution2: "Single Substitution lookup 75 subtable" I.001
EndChar

StartChar: J
Encoding: 74 74 39
Width: 265
GlyphClass: 5
Flags: MW
HStem: -405 39 765 40<65.5 143 78 123>
VStem: -14.25 38.75 -4 39<718 734.5 718 745.5> 123 39<-10 791 765 791>
LayerCount: 2
Fore
SplineSet
50 -405 m 0xe8
 -44 -393 -11 -282 1 -255 c 0xe8
 15 -217 60 -130 123 -10 c 1
 123 765 l 1
 78 765 l 2
 53 765 35 746 35 723 c 0
 35 713 26 703 15 703 c 0xd8
 5 703 -4 713 -4 723 c 0
 -4 768 32 805 78 805 c 2
 143 805 l 2
 154 805 162 796 162 786 c 2
 164 56 l 1
 202 127 258 240 263 252 c 0
 266 258 274 262 281 258 c 0
 285 257 293 250 289 241 c 0
 285 231 213 81 164 -8 c 1
 164 -84 l 2
 164 -253 144 -351 106 -388 c 0
 93 -400 74 -407 50 -405 c 0xe8
53 -366 m 0
 66 -367 75 -363 81 -358 c 0
 126 -312 125 -74 125 -74 c 1
 80 -161 42 -248 41 -251 c 0
 22 -290 12 -360 53 -366 c 0
EndSplineSet
Substitution2: "Single Substitution lookup 90 subtable" J.001
EndChar

StartChar: K
Encoding: 75 75 40
Width: 602
GlyphClass: 2
Flags: MW
HStem: -6 36<458 479 449.5 489.5> -5 38<59 82.5 59 93> 764 38<56 132 68 112>
VStem: -15 38<715 732 714.5 742.5> -11 38<63.5 81.5 63.5 81.5> 112 39<76 355 435 764 764 764>
LayerCount: 2
Fore
SplineSet
458 -6 m 0xac
 432 -7 412 2 396 22 c 2xac
 151 355 l 1
 151 76 l 2
 151 30 115 -5 71 -5 c 0
 25 -5 -11 30 -11 76 c 0
 -11 87 -3 95 8 95 c 0
 18 95 27 87 27 76 c 0x6c
 27 51 47 33 71 33 c 0
 94 33 112 52 112 76 c 2
 112 764 l 1
 68 764 l 2
 44 764 23 744 23 720 c 0
 23 709 16 702 4 702 c 0
 -6 702 -15 710 -15 720 c 0
 -15 765 22 802 68 802 c 2x74
 132 802 l 2
 138 802 142 800 146 798 c 0
 150 793 151 788 151 783 c 2
 151 435 l 1
 502 796 l 2
 509 804 521 805 529 798 c 0
 534 793 535 789 535 783 c 0
 535 777 534 773 529 769 c 2
 168 397 l 1
 424 49 l 2
 431 40 441 30 458 30 c 0
 500 30 539 103 600 248 c 0
 601 254 611 259 619 256 c 0
 621 253 629 248 625 238 c 0
 551 64 521 -6 458 -6 c 0xac
EndSplineSet
Substitution2: "Single Substitution lookup 90 subtable" K.001
EndChar

StartChar: L
Encoding: 76 76 41
Width: 514
GlyphClass: 2
Flags: MW
HStem: -8 35<369 370> -7 35 69 36 776 37<297.5 333.5 295 334>
VStem: -12 32 51.25 24.75 222 38 360 35<684 720 681 723.5>
LayerCount: 2
Fore
SplineSet
370 -8 m 0xbf
 342 -8 320 -6 278 10 c 0xbf
 257 18 224 31 198 42 c 1
 156 0 103 -7 82 -7 c 0
 7 -7 -7 16 -12 35 c 0x7f
 -15 49 -12 61 -4 73 c 0
 10 91 38 103 77 105 c 0
 109 107 143 101 186 87 c 1
 210 121 223 171 223 231 c 2
 223 396 l 1
 189 351 87 220 76 204 c 0
 73 198 62 197 56 202 c 0
 50 206 50 215 54 221 c 0
 65 235 208 426 223 446 c 1
 222 660 l 2
 222 787 274 813 316 813 c 0
 351 813 376 790 386 767 c 0
 391 749 395 730 395 710 c 0
 395 652 371 587 325 526 c 2
 325 526 287 478 261 444 c 1
 261 231 l 2
 261 165 248 113 223 72 c 1
 223 72 274 50 297 42 c 0
 331 30 349 25 369 27 c 0
 416 27 459 121 511 247 c 0
 516 254 523 257 531 254 c 0
 538 251 539 241 537 237 c 0
 471 77 436 -7 370 -8 c 0xbf
260 495 m 1
 284 527 308 561 309 561 c 0
 341 605 360 660 360 708 c 0
 360 739 352 776 316 776 c 0
 279 776 260 737 260 657 c 2
 260 495 l 1
78 28 m 0x7f
 108 29 136 39 156 56 c 1
 131 65 105 70 74 69 c 0
 43 68 20 56 20 44 c 0
 20 34 37 26 78 28 c 0x7f
EndSplineSet
Substitution2: "Single Substitution lookup 90 subtable" L.001
EndChar

StartChar: M
Encoding: 77 77 42
Width: 830
GlyphClass: 2
Flags: MW
HStem: -7 39<53.5 77 53.5 88.5> -6 35<683 710 683 717>
VStem: -17 39<62 79> 108 38<74 671> 627 40<79 668 668 668>
LayerCount: 2
Fore
SplineSet
66 -7 m 0x98
 19 -7 -17 30 -17 74 c 0
 -17 84 -8 93 2 93 c 0
 13 93 22 85 22 74 c 0
 22 50 41 32 66 32 c 0
 88 32 108 50 108 74 c 2xb8
 108 786 l 2
 108 796 115 804 124 805 c 0
 133 807 143 802 146 793 c 0
 148 786 347 196 390 71 c 1
 432 196 626 785 628 792 c 0
 632 801 641 806 650 805 c 0
 660 803 667 796 667 785 c 2
 667 79 l 2
 667 29 678 29 688 29 c 0
 732 29 771 115 826 246 c 0
 829 254 839 256 845 254 c 0
 850 252 855 244 851 236 c 0
 776 58 750 -6 684 -6 c 0
 627 -6 627 50 627 79 c 2x58
 627 668 l 1
 570 494 408 5 408 5 c 2
 405 -2 398 -7 390 -7 c 0
 380 -7 373 -1 371 7 c 0
 369 11 204 500 146 671 c 1
 146 74 l 2
 146 29 111 -7 66 -7 c 0x98
EndSplineSet
Substitution2: "Single Substitution lookup 90 subtable" M.001
EndChar

StartChar: N
Encoding: 78 78 43
Width: 688
GlyphClass: 5
Flags: MW
HStem: -6 38<54 78 54 88.5> 770 38<570 594>
VStem: -16 38<64 81.5> 110 38<76 708> 499 39<94 726> 625 38<720.5 737.5>
LayerCount: 2
Fore
SplineSet
66 -6 m 0
 21 -6 -16 31 -16 76 c 0
 -16 87 -7 96 3 96 c 0
 14 96 22 88 22 76 c 0
 22 52 42 32 66 32 c 0
 90 32 110 52 110 76 c 2
 110 788 l 2
 110 796 115 805 124 807 c 0
 132 809 141 805 146 797 c 0
 149 791 428 234 499 94 c 1
 499 726 l 2
 499 771 536 808 582 808 c 0
 627 808 663 771 663 726 c 0
 663 714 655 706 644 706 c 0
 634 706 625 715 625 726 c 0
 625 749 606 770 582 770 c 0
 558 770 538 750 538 726 c 2
 538 13 l 2
 538 4 532 -3 523 -5 c 0
 513 -7 505 -3 502 4 c 0
 498 9 220 566 148 708 c 1
 148 76 l 2
 148 31 111 -6 66 -6 c 0
EndSplineSet
EndChar

StartChar: O
Encoding: 79 79 44
Width: 522
GlyphClass: 5
Flags: MW
HStem: -17 38<156 255.5 156 267> 780 39<156 255.5>
VStem: -15 38<298 504.5 298 516.5> 389 39<298 504.5>
LayerCount: 2
Fore
SplineSet
206 -17 m 0
 83 -17 -15 170 -15 401 c 0
 -15 632 83 819 206 819 c 0
 328 819 428 632 428 401 c 0
 428 170 328 -17 206 -17 c 0
206 21 m 0
 305 21 389 195 389 401 c 0
 389 608 305 780 206 780 c 0
 106 780 23 608 23 401 c 0
 23 195 106 21 206 21 c 0
EndSplineSet
Substitution2: "Single Substitution lookup 75 subtable" O.003
EndChar

StartChar: P
Encoding: 80 80 45
Width: 471
GlyphClass: 2
Flags: MW
HStem: -6 39<55 78.5 55 88.5> 384 38<147 282 147 282> 768 38<253 282 272 280>
VStem: -16 38<65.5 83> 109 38<78 384 422 747 747 747> 489 37<547.5 642>
LayerCount: 2
Fore
SplineSet
67 -6 m 0
 21 -6 -16 31 -16 78 c 0
 -16 88 -6 96 4 96 c 0
 15 96 22 89 22 78 c 0
 22 53 43 33 67 33 c 0
 90 33 109 53 109 78 c 2
 109 747 l 1
 77 739 44 728 12 713 c 0
 4 708 -8 713 -13 721 c 0
 -18 732 -14 742 -4 748 c 0
 72 785 170 806 272 806 c 2
 282 806 l 2
 417 806 526 711 526 594 c 0
 526 478 417 384 282 384 c 2
 147 384 l 1
 147 78 l 2
 147 31 110 -6 67 -6 c 0
147 422 m 1
 282 422 l 2
 396 422 489 501 489 594 c 0
 489 690 395 768 280 768 c 2
 272 768 l 2
 234 768 194 764 147 756 c 1
 147 422 l 1
EndSplineSet
EndChar

StartChar: Q
Encoding: 81 81 46
Width: 545
GlyphClass: 2
Flags: MW
HStem: -17 39<393 414.5 393 426> 61.38 37.62 781 37<154.5 254.5>
VStem: -18 39<330.5 504 330.5 516> 388 38<330.5 504>
LayerCount: 2
Fore
SplineSet
205 -18 m 0
 82 -18 -18 169 -18 401 c 0
 -18 631 82 818 205 818 c 0
 326 818 426 631 426 401 c 0
 426 254 385 125 325 49 c 1
 350 33 368 23 393 22 c 0
 436 22 474 93 535 237 c 0
 538 244 546 248 553 243 c 0
 560 240 563 233 560 225 c 0
 483 37 459 -17 393 -17 c 0
 359 -17 325 6 300 23 c 1
 270 -3 237 -18 205 -18 c 0
115 68 m 1
 130 79 165 102 211 99 c 0
 242 95 268 83 292 69 c 1
 349 135 388 260 388 401 c 0
 388 607 304 781 205 781 c 0
 104 781 21 607 21 401 c 0
 21 260 59 135 115 68 c 1
205 21 m 0
 226 21 246 29 266 43 c 1
 221 68 180 67 141 43 c 1
 161 29 183 21 205 21 c 0
EndSplineSet
Substitution2: "Single Substitution lookup 90 subtable" Q.001
EndChar

StartChar: R
Encoding: 82 82 47
Width: 610
GlyphClass: 2
Flags: MW
HStem: -6 36<461 466 461 492.5> 384 39<187 287 187 187> 768 39<251 282 271 281>
VStem: 115 40<77 363 423 749 749 749> 488 40<570.5 646>
LayerCount: 2
Fore
SplineSet
72 -6 m 0
 36 -6 3 20 -7 56 c 0
 -9 61 -8 75 5 79 c 0
 17 84 27 74 31 65 c 0
 36 47 53 32 72 32 c 0
 96 32 115 53 115 77 c 2
 115 749 l 1
 78 740 38 726 12 713 c 0
 2 708 -9 711 -14 721 c 0
 -18 732 -14 743 -4 747 c 0
 77 785 174 807 271 807 c 2
 282 807 l 2
 431 806 528 721 528 593 c 0
 528 539 507 490 470 452 c 0
 424 407 361 384 287 384 c 2
 187 384 l 1
 431 50 l 2
 447 32 456 30 466 30 c 0
 508 33 544 101 606 249 c 0
 610 256 620 260 626 255 c 0
 632 252 635 246 632 237 c 0
 550 36 519 -6 466 -6 c 0
 440 -6 420 0 400 26 c 2
 155 363 l 1
 155 60 l 2
 155 30 115 -6 72 -6 c 0
155 423 m 1
 287 423 l 2
 351 423 405 442 442 480 c 0
 473 509 488 548 488 593 c 0
 488 699 407 767 281 768 c 2
 270 768 l 2
 232 768 193 764 155 758 c 1
 155 423 l 1
EndSplineSet
Substitution2: "Single Substitution lookup 90 subtable" R.001
EndChar

StartChar: S
Encoding: 83 83 48
Width: 529
GlyphClass: 2
Flags: MW
HStem: -18 39<146 242 146 247.5> 780 39<439 474 426 475.5>
VStem: -15 38<144.5 196.5> 364 39<211 401 401 401 501 656> 501 35<689 724.5 685 729>
LayerCount: 2
Fore
SplineSet
193 -18 m 0
 78 -18 -15 76 -15 192 c 0
 -15 201 -7 210 4 210 c 0
 15 210 23 202 23 192 c 0
 23 97 99 21 193 21 c 0
 291 21 364 128 364 211 c 2
 364 401 l 1
 330 357 222 215 218 208 c 0
 212 202 203 203 198 207 c 0
 192 211 191 220 196 225 c 0
 200 230 348 431 364 451 c 1
 364 665 l 2
 364 767 396 819 456 819 c 0
 492 819 518 795 528 771 c 0
 533 754 536 736 536 713 c 0
 536 657 512 587 467 530 c 0
 442 499 429 484 403 449 c 1
 403 210 l 2
 403 93 302 -18 193 -18 c 0
403 501 m 1
 450 565 l 2
 483 611 501 665 501 713 c 0
 501 745 494 780 457 780 c 0
 421 780 403 745 403 656 c 2
 403 501 l 1
EndSplineSet
EndChar

StartChar: T
Encoding: 84 84 49
Width: 443
GlyphClass: 5
Flags: MW
HStem: -7 39<186.5 209.5 186.5 219.5> 769 38<55 506 67 241 281 281 281 506>
VStem: -16 40<719.5 736 719.5 747> 241 40<77 769>
LayerCount: 2
Fore
SplineSet
197 -7 m 0
 158 -7 123 24 118 63 c 0
 116 73 121 84 132 86 c 0
 142 89 153 82 155 69 c 0
 159 50 176 32 197 32 c 0
 222 32 241 52 241 77 c 2
 241 769 l 1
 67 769 l 2
 43 769 24 748 24 724 c 0
 24 715 15 705 4 705 c 0
 -6 705 -16 715 -16 724 c 0
 -16 770 23 807 67 807 c 2
 506 807 l 2
 517 807 525 798 525 787 c 0
 525 777 517 769 506 769 c 2
 281 769 l 1
 281 77 l 2
 281 31 242 -7 197 -7 c 0
EndSplineSet
EndChar

StartChar: U
Encoding: 85 85 50
Width: 699
GlyphClass: 2
Flags: MW
HStem: -7 35<550.5 578 550.5 584.5> -7 38<273.5 357> 765 39<54 77.5>
VStem: -17 38<716 733 716 744> 109 38<206 721> 497 39<78 85 85 85 206 786>
LayerCount: 2
Fore
SplineSet
322 -7 m 0x6c
 204 -7 109 88 109 206 c 2
 109 721 l 2
 109 745 89 765 66 765 c 0
 42 765 21 745 21 721 c 0
 21 711 13 703 2 703 c 0
 -8 703 -17 711 -17 721 c 0
 -17 767 20 804 66 804 c 0
 111 804 147 767 147 721 c 2
 147 206 l 2
 147 110 225 31 322 31 c 0x7c
 418 31 497 110 497 206 c 2
 497 786 l 2
 497 797 505 805 516 805 c 0
 528 805 536 797 536 786 c 2
 536 78 l 2
 536 28 545 28 556 28 c 0xac
 600 28 638 110 695 246 c 0
 698 252 706 256 713 253 c 0
 720 250 723 243 720 234 c 0
 640 48 616 -7 553 -7 c 0
 497 -7 497 51 497 78 c 2
 497 85 l 1
 458 27 392 -7 322 -7 c 0x6c
EndSplineSet
Substitution2: "Single Substitution lookup 90 subtable" U.001
EndChar

StartChar: V
Encoding: 86 86 51
Width: 508
GlyphClass: 2
Flags: MW
HStem: -5 21G 766 39<55 132 67 113>
VStem: -16 38<717.5 734.5 717.5 745.5> 113 38<90 766 766 766> 625 38<725 739>
LayerCount: 2
Fore
SplineSet
128 -5 m 0
 117 -3 113 6 113 14 c 2
 113 766 l 1
 67 766 l 2
 43 766 22 746 22 723 c 0
 22 712 15 702 3 702 c 0
 -7 702 -16 712 -16 723 c 0
 -16 768 21 805 67 805 c 2
 132 805 l 2
 144 805 151 796 151 785 c 2
 151 90 l 1
 520 766 l 2
 535 791 561 806 590 806 c 0
 626 806 663 779 663 729 c 0
 663 718 655 709 643 709 c 0
 632 711 625 720 625 730 c 0
 625 748 611 766 590 766 c 0
 576 766 562 758 554 746 c 2
 149 4 l 2
 146 -2 139 -7 128 -5 c 0
EndSplineSet
EndChar

StartChar: W
Encoding: 87 87 52
Width: 696
GlyphClass: 2
Flags: MW
HStem: -7 21G 765 38<56 132 68 114>
VStem: -14 38<715 732 715 743> 114 39<131 765 765 765> 369 39 746 38<720.5 724>
LayerCount: 2
Fore
SplineSet
129 -7 m 0
 121 -5 114 3 114 13 c 2
 114 765 l 1
 68 765 l 2
 44 765 24 744 24 720 c 0
 24 710 15 702 5 702 c 0
 -5 702 -14 710 -14 720 c 0
 -14 766 22 803 68 803 c 2
 132 803 l 2
 139 803 144 801 148 797 c 0
 151 794 153 789 153 784 c 2
 153 131 l 1
 209 303 369 786 370 791 c 0
 374 801 383 805 391 805 c 0
 401 803 408 794 408 786 c 2
 407 122 l 1
 465 282 634 745 636 750 c 0
 652 789 681 803 711 803 c 0
 746 803 784 776 784 725 c 0
 784 716 777 707 768 707 c 0
 758 707 746 712 746 724 c 0
 745 743 737 762 711 765 c 0
 696 766 679 757 672 735 c 0
 665 717 409 14 406 6 c 0
 404 -3 395 -8 385 -7 c 0
 375 -4 369 3 369 13 c 0
 369 18 369 490 370 665 c 1
 312 494 154 12 152 7 c 0
 149 -2 140 -8 129 -7 c 0
EndSplineSet
EndChar

StartChar: X
Encoding: 88 88 53
Width: 628
GlyphClass: 2
Flags: MW
HStem: -7 36<442.5 488.5 442.5 494> 766 40<140 140 455 455>
VStem: 278 38<306.5 486.5> 624 25
LayerCount: 2
Fore
SplineSet
139 -7 m 0
 73 -6 -2 60 -17 204 c 0
 -17 215 -10 225 1 227 c 0
 13 227 22 218 22 208 c 0
 33 86 90 30 139 30 c 0
 165 30 187 40 206 58 c 0
 255 106 278 216 278 397 c 0
 278 576 254 692 206 739 c 0
 188 756 170 767 140 766 c 0
 95 764 47 694 22 586 c 0
 19 575 9 569 -1 571 c 0
 -12 574 -18 585 -15 595 c 0
 14 724 72 803 139 806 c 0
 180 806 208 790 233 767 c 0
 263 737 284 694 297 629 c 1
 311 694 331 737 361 767 c 0
 384 791 413 807 455 806 c 0
 521 802 579 724 611 595 c 0
 612 584 608 574 595 571 c 0
 584 568 572 577 571 587 c 0
 547 694 499 764 455 766 c 0
 427 767 408 758 388 739 c 0
 341 692 316 576 316 397 c 0
 316 216 340 106 388 58 c 0
 407 40 430 29 455 29 c 0
 522 29 550 93 624 246 c 0
 624 251 633 255 641 253 c 0
 648 250 651 243 649 236 c 0
 569 50 533 -7 455 -7 c 0
 417 -7 385 6 361 29 c 0
 331 60 311 105 297 167 c 1
 284 105 263 60 233 29 c 0
 206 6 175 -7 139 -7 c 0
EndSplineSet
Substitution2: "Single Substitution lookup 90 subtable" X.001
EndChar

StartChar: Y
Encoding: 89 89 54
Width: 639
GlyphClass: 5
Flags: MW
HStem: -397.09 38.59 -6 38<274.5 357> 766 37<55 78.5>
VStem: -15 37<716 734 716 744.5> 108 40<207 722> 365.26 38.11 497 38<-82 -82 -17 -16 49 85 85 85 205 784>
LayerCount: 2
Fore
SplineSet
485 -379 m 0
 449 -410 398 -399 378 -364 c 0
 356 -332 366 -280 380 -246 c 0
 394 -208 435 -131 497 -17 c 1
 497 85 l 1
 457 27 391 -6 323 -6 c 0
 206 -6 108 89 108 207 c 2
 108 722 l 2
 108 747 90 766 67 766 c 0
 43 766 22 746 22 722 c 0
 22 710 15 703 3 703 c 0
 -8 703 -15 710 -15 722 c 0
 -15 767 21 803 67 803 c 0
 112 803 148 767 148 722 c 2
 148 207 l 2
 148 110 226 32 323 32 c 0
 416 32 496 109 497 205 c 2
 497 784 l 2
 497 796 505 803 516 803 c 0
 527 803 535 794 535 784 c 2
 535 49 l 1
 564 104 621 209 634 243 c 0
 637 251 646 253 652 251 c 0
 657 249 663 240 660 234 c 0
 645 193 583 71 535 -16 c 1
 535 -92 l 2
 535 -228 531 -339 485 -379 c 0
463 -349 m 0
 506 -312 497 -82 497 -82 c 1
 453 -164 423 -230 420 -241 c 0
 402 -281 398 -323 411 -344 c 0
 421 -362 445 -363 463 -349 c 0
EndSplineSet
Substitution2: "Single Substitution lookup 90 subtable" Y.001
EndChar

StartChar: Z
Encoding: 90 90 55
Width: 497
GlyphClass: 2
Flags: MW
HStem: -5 38<1 312 35 312 35 312> 766 37<44 384 57 354>
VStem: -16 38<719 743.5 719 744.5>
LayerCount: 2
Fore
SplineSet
4 -5 m 2
 -2 -5 -8 -3 -13 4 c 0
 -17 10 -16 17 -13 23 c 0
 -10 30 311 677 354 766 c 1
 57 766 l 2
 31 766 22 763 22 724 c 0
 22 714 15 704 4 704 c 0
 -7 704 -16 713 -16 724 c 0
 -16 765 -7 803 57 803 c 2
 384 803 l 2
 391 803 397 800 401 795 c 0
 406 790 406 782 403 775 c 0
 399 768 79 122 35 33 c 1
 312 33 l 2
 393 33 406 60 494 248 c 0
 497 255 503 257 511 255 c 0
 519 252 521 243 519 237 c 0
 430 25 411 -5 312 -5 c 2
 4 -5 l 2
EndSplineSet
Substitution2: "Single Substitution lookup 90 subtable" Z.001
EndChar

StartChar: asciicircum
Encoding: 94 94 56
Width: 382
GlyphClass: 2
Flags: MW
HStem: 394.35 411.65
VStem: -4.25 390.33
LayerCount: 2
Fore
SplineSet
7 396 m 0
 -4 401 -7 412 -2 423 c 2
 173 794 l 2
 176 803 184 807 191 806 c 0
 198 807 205 803 209 794 c 2
 384 423 l 2
 389 412 385 401 374 396 c 0
 364 392 354 395 349 407 c 2
 191 743 l 1
 33 407 l 2
 28 395 18 392 7 396 c 0
EndSplineSet
EndChar

StartChar: grave
Encoding: 96 96 57
Width: 80
GlyphClass: 2
Flags: MW
HStem: 500.96 113.63
VStem: -4 88.12
LayerCount: 2
Fore
SplineSet
78 503 m 0
 71 498 63 503 60 507 c 2
 -1 586 l 2
 -6 596 -6 604 5 611 c 0
 15 619 25 613 29 606 c 2
 82 520 l 2
 86 513 85 509 78 503 c 0
EndSplineSet
EndChar

StartChar: a
Encoding: 97 97 58
Width: 445
GlyphClass: 2
Flags: MW
HStem: -7 35 -7 39<115.5 155> 368 40<115 156 115 164.5>
VStem: -9 39<174 230> 244 39<61 61>
LayerCount: 2
Fore
SplineSet
135 -7 m 0x78
 96 -7 56 17 31 58 c 0x78
 5 95 -9 146 -9 202 c 0
 -9 258 5 306 32 344 c 1
 56 385 95 408 135 408 c 0
 177 408 214 386 241 344 c 1
 244 341 l 1
 245 389 l 2
 245 400 254 408 265 408 c 0
 274 408 282 399 282 389 c 2
 283 76 l 2
 283 36 288 30 302 28 c 0xb8
 338 25 369 79 440 245 c 0
 443 251 451 254 458 251 c 0
 464 249 468 240 466 234 c 0
 392 51 357 -9 298 -7 c 0
 251 -6 245 33 244 61 c 1
 241 57 l 2
 213 16 175 -7 135 -7 c 0x78
135 32 m 0
 194 32 244 108 244 202 c 0
 244 295 194 368 135 368 c 0
 77 368 30 295 30 202 c 0
 30 108 77 32 135 32 c 0
EndSplineSet
Substitution2: "Single Substitution lookup 90 subtable" a.001
EndChar

StartChar: b
Encoding: 98 98 59
Width: 483
GlyphClass: 5
Flags: MW
HStem: -6 38<171.5 235.5 168.5 246.5> 167 32<416.5 430> 763.75 40.88
VStem: -13 24<212 222.5> 58 38<178 181 130.5 330> 188 39<706.5 723> 318 34<129.5 197 129.5 235.5>
LayerCount: 2
Fore
SplineSet
496 250 m 0
 502 247 505 241 503 235 c 0
 491 202 468 169 430 167 c 0
 403 167 373 184 358 212 c 0
 350 222 347 230 346 233 c 1
 348 223 351 202 351 197 c 2
 352 181 l 1
 352 78 288 -6 205 -6 c 0
 138 -6 60 26 58 178 c 2
 58 330 l 1
 47 300 11 213 11 212 c 0
 7 205 1 202 -6 204 c 0
 -13 207 -16 216 -13 222 c 0
 -13 223 54 393 59 404 c 1
 58 662 l 2
 58 737 69 768 102 792 c 0
 125 807 155 809 181 797 c 0
 209 785 227 757 227 724 c 0
 227 685 197 623 181 584 c 0
 165 547 145 502 97 399 c 1
 96 181 l 2
 96 80 132 32 205 32 c 0
 266 32 318 101 318 182 c 2
 318 197 l 2
 318 274 299 320 270 377 c 0
 265 384 268 394 277 401 c 0
 288 407 299 404 304 396 c 0
 318 366 334 336 347 305 c 0
 378 229 400 199 430 199 c 0
 451 199 465 213 479 245 c 0
 485 250 486 254 496 250 c 0
97 662 m 2
 97 470 l 1
 155 603 l 2
 177 651 188 690 188 723 c 0
 187 741 174 756 164 760 c 0
 151 765 137 766 123 757 c 0
 101 742 97 713 97 662 c 2
EndSplineSet
EndChar

StartChar: c
Encoding: 99 99 60
Width: 310
GlyphClass: 2
Flags: MW
HStem: -11 35 373 38<124.5 157.5>
VStem: -14 37<172.5 229>
LayerCount: 2
Fore
SplineSet
137 -11 m 0
 96 -11 57 13 26 56 c 0
 0 94 -14 144 -14 201 c 0
 -15 268 9 336 47 373 c 0
 73 398 106 411 137 411 c 0
 192 411 239 377 257 325 c 0
 261 314 256 304 246 301 c 0
 237 298 226 303 223 310 c 0
 205 353 178 373 137 373 c 0
 112 373 89 363 73 347 c 0
 43 316 23 257 23 201 c 0
 24 99 75 22 141 24 c 0
 204 26 244 96 300 232 c 0
 304 239 312 243 319 239 c 0
 327 236 327 226 325 221 c 0
 259 65 224 -11 137 -11 c 0
EndSplineSet
Substitution2: "Single Substitution lookup 90 subtable" c.001
EndChar

StartChar: d
Encoding: 100 100 61
Width: 439
GlyphClass: 2
Flags: MW
HStem: -6 34 -6 37<111.5 152.5> 369 38<111.5 152.5 111.5 161.5>
VStem: -12 37<174 227.5> 239 38<59 59 154 247.5 341 786>
LayerCount: 2
Fore
SplineSet
132 -6 m 0x78
 91 -6 54 17 28 57 c 0x78
 3 95 -12 147 -12 201 c 0
 -12 254 3 305 28 343 c 0
 54 383 91 407 132 407 c 0
 173 407 211 384 238 343 c 0
 238 342 239 342 239 341 c 1
 239 786 l 2
 239 797 250 806 258 806 c 0
 269 806 277 797 277 786 c 2
 277 76 l 2
 277 36 283 29 296 28 c 0xb8
 333 24 365 79 434 244 c 0
 437 251 445 254 452 251 c 0
 458 248 462 240 460 235 c 0
 387 51 352 -9 293 -6 c 0
 247 -5 240 32 239 59 c 1
 237 57 l 1
 211 16 173 -6 132 -6 c 0x78
132 31 m 0
 191 31 239 107 239 201 c 0
 239 294 191 369 132 369 c 0
 74 369 25 292 25 201 c 0
 25 107 74 31 132 31 c 0
EndSplineSet
Substitution2: "Single Substitution lookup 90 subtable" d.001
EndChar

StartChar: e
Encoding: 101 101 62
Width: 304
GlyphClass: 5
Flags: MW
HStem: -4 34<124 124> 379 35.59
VStem: -10 35<164 182 164 183> 147 36.91
LayerCount: 2
Fore
SplineSet
124 -4 m 0
 56 -3 16 33 0 92 c 1
 -29 62 -56 39 -85 18 c 0
 -94 11 -102 22 -103 32 c 0
 -103 41 -99 46 -91 52 c 0
 -69 69 -32 102 -9 127 c 1
 -10 142 -10 153 -10 164 c 0
 -10 202 -5 237 4 271 c 0
 33 372 81 430 146 411 c 0
 163 407 176 392 181 373 c 0
 187 352 192 293 107 204 c 0
 77 171 51 143 29 120 c 1
 41 60 75 30 124 30 c 0
 194 30 243 105 300 243 c 0
 304 250 312 253 318 250 c 0
 324 249 328 243 325 233 c 0
 257 75 217 -5 124 -4 c 0
25 164 m 1
 44 184 63 204 81 225 c 0
 139 291 154 339 147 363 c 0
 144 375 137 379 123 379 c 0
 84 379 51 314 38 262 c 0
 30 232 25 200 25 164 c 1
EndSplineSet
Substitution2: "Single Substitution lookup 91 subtable" e.003
Substitution2: "Single Substitution lookup 90 subtable" e.001
Substitution2: "Single Substitution lookup 76 subtable" e.003
Substitution2: "Single Substitution lookup 75 subtable" e.alt
EndChar

StartChar: f
Encoding: 102 102 63
Width: 234
GlyphClass: 5
Flags: MW
HStem: -406 21G<73.5 84.5> 125 35<99 128> 231 19 766.05 40.45
VStem: 60 39<-387 125 172 329 329 329 475 665> 189 40<727 727>
LayerCount: 2
Fore
SplineSet
79 -406 m 0
 68 -406 60 -398 60 -387 c 2
 60 131 l 1
 36 138 19 149 12 154 c 0
 8 156 5 162 4 168 c 0
 4 173 5 177 9 181 c 0
 14 190 28 192 36 184 c 0
 37 182 46 177 60 172 c 1
 60 329 l 1
 48 300 20 235 13 216 c 0
 10 209 3 206 -3 208 c 0
 -13 212 -16 221 -12 227 c 0
 2 262 56 393 60 405 c 1
 60 665 l 2
 60 729 67 768 105 793 c 0
 126 809 156 811 183 799 c 0
 210 787 228 760 229 728 c 0
 230 684 184 590 183 586 c 2
 99 402 l 1
 99 162 l 1
 108 161 118 160 128 160 c 0
 169 162 209 186 230 244 c 0
 234 252 241 253 247 250 c 0
 261 244 255 231 255 231 c 1
 229 166 181 131 125 126 c 0
 116 125 107 125 99 125 c 1
 99 -387 l 2
 99 -398 90 -406 79 -406 c 0
99 475 m 1
 157 619 l 2
 177 665 189 702 189 727 c 0
 189 743 183 755 167 762 c 0
 151 771 132 764 124 760 c 0
 103 747 99 717 99 665 c 2
 99 475 l 1
EndSplineSet
EndChar

StartChar: g
Encoding: 103 103 64
Width: 382
GlyphClass: 5
Flags: MW
HStem: -407 40 -8 38<102 152.5> 369 37<103 152.5 91.5 161>
VStem: -13 37<153.5 246 153.5 257.5> 106 38.62 242 38<-86 -81 -81 -81 51 76 76 76 323 387>
LayerCount: 2
Fore
SplineSet
392 246 m 0
 400 242 402 236 401 228 c 0
 383 185 323 69 280 -16 c 1
 280 -89 l 2
 280 -261 261 -355 223 -389 c 0
 211 -401 193 -409 169 -407 c 0
 146 -404 128 -393 119 -375 c 0
 98 -344 105 -294 120 -261 c 0
 161 -156 240 -16 242 -13 c 2
 242 76 l 1
 223 26 174 -8 131 -8 c 0
 52 -8 -13 85 -13 200 c 0
 -13 315 52 406 131 406 c 0
 174 406 222 373 242 323 c 1
 242 387 l 2
 242 398 250 406 261 406 c 0
 271 406 280 398 280 387 c 2
 280 51 l 1
 318 122 363 210 374 238 c 0
 377 245 385 247 392 246 c 0
131 30 m 0
 191 30 239 107 239 200 c 0
 239 293 191 369 131 369 c 0
 75 369 24 292 24 200 c 0
 24 107 73 30 131 30 c 0
242 -86 m 2
 242 -81 l 1
 205 -150 160 -255 160 -255 c 2
 143 -294 139 -334 151 -354 c 0
 155 -362 162 -366 173 -367 c 0
 182 -370 193 -365 199 -360 c 0
 226 -335 242 -234 242 -86 c 2
EndSplineSet
Substitution2: "Single Substitution lookup 90 subtable" g.001
EndChar

StartChar: h
Encoding: 104 104 65
Width: 505
GlyphClass: 5
Flags: MW
HStem: -5 33 369 39<180 229.5> 767 37.63
VStem: 58 36<13 266> 60 37<668 694 668 703.5> 190 41<728 728> 307 39<73 77 77 263>
LayerCount: 2
Fore
SplineSet
76 -6 m 0xf6
 66 -6 58 3 58 13 c 2
 58 328 l 1
 47 300 19 233 12 213 c 0
 7 206 3 201 -7 205 c 0
 -16 209 -15 221 -12 226 c 0xf6
 1 261 53 391 58 404 c 1
 60 668 l 2
 60 739 71 771 101 792 c 0xee
 126 807 161 809 186 797 c 0
 213 786 230 757 231 728 c 0
 232 680 187 593 187 593 c 2
 187 592 143 492 94 394 c 1
 94 361 l 1
 122 390 160 408 200 408 c 0
 280 408 346 343 346 263 c 2
 346 77 l 2
 346 37 351 30 364 28 c 0
 401 25 432 80 502 246 c 0
 505 252 512 255 518 251 c 0
 526 250 529 242 526 236 c 0
 453 53 419 -7 361 -5 c 0
 307 -4 307 46 307 73 c 2
 307 263 l 2
 307 322 259 369 200 369 c 0
 148 369 94 326 94 266 c 2
 94 13 l 2
 94 2 87 -6 76 -6 c 0xf6
94 466 m 1xee
 127 539 159 621 160 622 c 0
 174 657 190 700 190 728 c 0
 190 742 180 757 167 762 c 0
 156 768 139 770 122 760 c 0
 100 746 97 720 97 668 c 2
 94 466 l 1xee
EndSplineSet
Substitution2: "Single Substitution lookup 90 subtable" h.001
EndChar

StartChar: i
Encoding: 105 105 66
Width: 252
GlyphClass: 5
Flags: MW
HStem: -6 35<106.5 132 106.5 140.5> 532 60<62 79>
VStem: 40 62<554 571> 52 38<76 306 306 306>
LayerCount: 2
Fore
SplineSet
70 532 m 0xe0
 54 532 40 545 40 563 c 0
 40 579 54 592 70 592 c 0
 88 592 102 579 102 563 c 0
 102 545 88 532 70 532 c 0xe0
107 -6 m 0x90
 52 -6 52 49 52 76 c 2
 52 306 l 1
 43 283 7 202 7 202 c 2
 5 195 -3 192 -10 194 c 0
 -18 198 -21 205 -18 212 c 0
 -18 213 22 306 42 364 c 2
 52 395 l 2
 57 403 66 407 73 406 c 0
 83 404 90 397 90 388 c 2
 90 76 l 2
 90 29 102 29 111 29 c 0
 153 29 194 116 246 243 c 0
 250 250 259 253 266 250 c 0
 272 246 275 240 272 232 c 0
 206 71 174 -6 107 -6 c 0x90
EndSplineSet
Substitution2: "Single Substitution lookup 90 subtable" i.001
Substitution2: "Single Substitution lookup 76 subtable" i.002
EndChar

StartChar: j
Encoding: 106 106 67
Width: 196
GlyphClass: 5
Flags: MW
HStem: -404 37 529 61<67 83 67 83.5>
VStem: -75.91 37.53 45 60<552.5 569> 53 38<388 395> 56 37<-85 -80 -80 -80>
LayerCount: 2
Fore
SplineSet
75 529 m 0xf0
 59 529 45 544 45 561 c 0
 45 577 59 590 75 590 c 0
 91 590 105 577 105 561 c 0
 105 543 92 529 75 529 c 0xf0
-14 -404 m 0
 -37 -400 -55 -391 -64 -373 c 0
 -84 -342 -76 -292 -63 -258 c 0
 -48 -216 -5 -121 53 -17 c 1
 53 306 l 1
 44 283 8 202 8 202 c 2
 6 195 -2 192 -9 194 c 0
 -17 198 -20 205 -17 212 c 0
 -17 213 23 306 43 364 c 2
 53 395 l 2
 58 403 67 407 74 406 c 0
 84 404 91 397 91 388 c 2
 92 50 l 1
 92 50 158 169 189 238 c 0
 192 247 201 249 207 247 c 0
 215 244 218 235 215 229 c 0
 199 187 142 73 93 -15 c 1
 93 -88 l 2
 93 -212 87 -344 41 -386 c 0xe8
 25 -399 7 -406 -14 -404 c 0
-10 -367 m 0xe4
 0 -368 8 -365 14 -358 c 0
 41 -333 56 -237 56 -85 c 2
 56 -80 l 1
 21 -147 -23 -252 -23 -254 c 0
 -40 -292 -44 -332 -32 -353 c 0
 -27 -362 -21 -366 -10 -367 c 0xe4
EndSplineSet
Substitution2: "Single Substitution lookup 90 subtable" j.001
EndChar

StartChar: k
Encoding: 107 107 68
Width: 448
GlyphClass: 5
Flags: MW
HStem: -6 35<290 326.5 290 335> 170.8 39.36 766 39.75
VStem: 58 37<14 156> 185 39<726 734.5> 311.91 39.69
LayerCount: 2
Fore
SplineSet
302 -6 m 0
 256 -6 216 26 95 156 c 1
 95 14 l 2
 95 3 86 -4 76 -4 c 0
 65 -4 58 4 58 14 c 2
 58 328 l 1
 47 300 19 233 12 213 c 0
 7 206 3 201 -7 205 c 0
 -16 209 -15 221 -12 226 c 0
 1 261 53 391 58 404 c 1
 57 664 l 2
 57 739 66 770 99 793 c 0
 121 808 152 810 178 799 c 0
 206 787 224 758 224 726 c 0
 224 686 196 624 179 586 c 0
 162 548 143 504 95 402 c 1
 95 328 l 1
 116 363 153 400 212 407 c 0
 266 415 322 395 345 337 c 0
 365 288 339 231 282 194 c 0
 246 173 196 166 130 174 c 1
 233 64 275 29 305 29 c 0
 348 29 387 113 444 247 c 0
 447 253 455 256 463 254 c 0
 469 251 473 243 470 236 c 0
 397 63 368 -6 302 -6 c 0
94 472 m 1
 153 606 l 2
 174 653 186 694 185 726 c 0
 185 743 172 757 161 762 c 0
 149 767 133 769 119 758 c 0
 98 744 94 716 94 664 c 2
 94 472 l 1
97 220 m 1
 113 216 211 195 262 229 c 0
 311 261 318 301 308 325 c 0
 300 348 267 378 217 370 c 0
 136 358 102 276 97 220 c 1
EndSplineSet
Substitution2: "Single Substitution lookup 90 subtable" k.001
EndChar

StartChar: l
Encoding: 108 108 69
Width: 260
GlyphClass: 5
Flags: MW
HStem: -6 34<85.5 117 113 117> 764.13 39.62
VStem: 58 38<77 329 329 329> 185 40<723 732>
LayerCount: 2
Fore
SplineSet
114 -7 m 1
 114 -6 l 1
 113 -6 l 2
 58 -6 58 49 58 77 c 2
 58 329 l 1
 47 301 19 233 12 213 c 0
 7 206 3 201 -7 205 c 0
 -16 209 -15 221 -12 226 c 0
 1 261 53 391 58 404 c 1
 56 661 l 2
 56 736 67 768 100 791 c 0
 123 806 153 808 180 797 c 0
 207 785 225 756 225 725 c 0
 225 683 196 621 180 585 c 0
 163 548 144 504 96 401 c 1
 96 77 l 2
 96 28 107 28 116 28 c 2
 117 28 l 2
 162 28 199 112 255 244 c 0
 258 250 266 252 273 250 c 0
 280 247 283 240 281 234 c 0
 209 60 180 -7 114 -7 c 1
95 469 m 1
 154 603 l 2
 175 649 186 689 185 723 c 0
 185 741 173 755 163 760 c 0
 150 765 135 767 120 757 c 0
 100 741 95 713 95 661 c 2
 95 469 l 1
EndSplineSet
Substitution2: "Single Substitution lookup 90 subtable" l.001
EndChar

StartChar: m
Encoding: 109 109 70
Width: 752
GlyphClass: 5
Flags: MW
HStem: -5 33 370 38<175.5 222 175.5 225 420.5 477>
VStem: 52 37<13 274> 302 38<13 264> 554 38<73 77 77 264>
LayerCount: 2
Fore
SplineSet
69 -5 m 0
 59 -5 52 4 52 13 c 2
 52 306 l 1
 43 283 8 202 8 202 c 2
 6 195 -2 192 -9 194 c 0
 -17 198 -20 205 -17 212 c 0
 -17 213 23 306 43 364 c 2
 53 395 l 2
 58 403 67 407 74 406 c 0
 84 404 91 397 91 388 c 2
 91 362 l 1
 117 392 155 408 196 408 c 0
 248 408 296 380 321 335 c 1
 347 380 394 408 447 408 c 0
 527 408 592 343 592 264 c 2
 592 77 l 2
 592 37 598 30 611 28 c 0
 648 25 679 80 749 246 c 0
 752 252 759 255 765 251 c 0
 773 250 776 242 773 236 c 0
 700 53 666 -7 608 -5 c 0
 554 -4 554 46 554 73 c 2
 554 264 l 2
 554 322 507 370 447 370 c 0
 388 370 340 322 340 264 c 2
 340 13 l 2
 340 4 332 -5 321 -5 c 0
 311 -5 302 4 302 13 c 2
 302 264 l 2
 302 322 254 370 196 370 c 0
 141 370 93 328 89 274 c 1
 89 13 l 2
 89 4 80 -5 69 -5 c 0
EndSplineSet
Substitution2: "Single Substitution lookup 90 subtable" m.001
EndChar

StartChar: n
Encoding: 110 110 71
Width: 502
GlyphClass: 5
Flags: MW
HStem: -5 33 370 38<176 226>
VStem: 52 38<14 263> 304 38<73 77 77 264>
LayerCount: 2
Fore
SplineSet
71 -5 m 0
 60 -5 52 4 52 14 c 2
 52 263 l 1
 52 306 l 1
 43 283 8 202 8 202 c 2
 6 195 -2 192 -9 194 c 0
 -17 198 -20 205 -17 212 c 0
 -17 213 23 306 43 364 c 2
 53 395 l 2
 58 403 67 407 74 406 c 0
 84 404 91 397 91 388 c 2
 91 360 l 1
 118 390 156 408 196 408 c 0
 276 408 342 344 342 264 c 2
 342 77 l 2
 342 37 348 30 361 28 c 0
 398 25 429 80 499 246 c 0
 502 252 509 255 515 251 c 0
 523 250 526 242 523 236 c 0
 450 53 416 -7 358 -5 c 0
 304 -4 304 46 304 73 c 2
 304 264 l 2
 304 323 256 370 196 370 c 0
 138 370 90 322 90 263 c 2
 90 14 l 2
 90 4 82 -5 71 -5 c 0
EndSplineSet
Substitution2: "Single Substitution lookup 90 subtable" n.001
EndChar

StartChar: o
Encoding: 111 111 72
Width: 422
GlyphClass: 5
Flags: MW
HStem: -15 38<123.5 168> 164 30<354.5 390.5> 376 38<123.5 168 123.5 179.5>
VStem: -13 37<171.5 228.5> 268 37
LayerCount: 2
Fore
SplineSet
146 -15 m 0
 101 -15 62 8 32 50 c 0
 3 89 -13 143 -13 200 c 0
 -13 257 2 309 32 350 c 0
 61 391 101 414 146 414 c 0
 190 414 231 391 261 350 c 0
 269 338 276 325 282 313 c 2
 290 295 l 1
 316 226 341 194 368 194 c 0
 400 193 412 227 417 238 c 0
 420 244 427 249 434 246 c 0
 441 244 444 237 441 230 c 0
 436 208 413 164 368 164 c 0
 344 163 324 174 305 197 c 1
 304 141 289 88 261 50 c 0
 230 8 190 -15 146 -15 c 0
146 23 m 0
 213 23 268 103 268 200 c 0
 268 297 213 376 146 376 c 0
 79 376 24 295 24 200 c 0
 24 105 79 23 146 23 c 0
EndSplineSet
EndChar

StartChar: p
Encoding: 112 112 73
Width: 480
GlyphClass: 5
Flags: MW
HStem: -404 21G<67.5 77.5> -6 35<333 358 333 367> 370 38<168.5 212.5>
VStem: 54 38 279 38<73 79 79 265>
LayerCount: 2
Fore
SplineSet
73 -404 m 0
 62 -404 54 -396 54 -384 c 2
 53 309 l 1
 44 284 8 202 8 202 c 2
 6 195 -2 192 -9 194 c 0
 -17 198 -20 205 -17 212 c 0
 -17 213 23 306 43 364 c 2
 53 395 l 2
 58 403 67 407 74 406 c 0
 84 404 91 397 91 388 c 2
 91 364 l 1
 116 392 150 408 187 408 c 0
 258 408 317 343 317 265 c 2
 317 79 l 2
 317 29 328 29 338 29 c 0
 378 29 413 95 473 240 c 0
 476 246 484 249 490 248 c 0
 497 245 500 237 499 229 c 2
 488 204 l 2
 426 60 399 -6 335 -6 c 0
 282 -6 281 46 279 73 c 2
 279 265 l 2
 279 322 238 370 187 370 c 0
 133 370 92 323 92 265 c 2
 91 -384 l 2
 91 -395 82 -404 73 -404 c 0
EndSplineSet
Substitution2: "Single Substitution lookup 90 subtable" p.001
EndChar

StartChar: q
Encoding: 113 113 74
Width: 330
GlyphClass: 5
Flags: MW
HStem: -6 38<103 153> 370 38<103 153.5 92 161.5>
VStem: -12 37<154.5 247.5 154.5 259> 240 37<-385 62 62 62 199 204 204 204 340 388>
LayerCount: 2
Fore
SplineSet
342 249 m 0
 349 247 353 238 350 233 c 0
 331 179 303 138 277 102 c 1
 277 -385 l 2
 277 -396 269 -404 258 -404 c 0
 248 -404 240 -396 240 -385 c 2
 240 62 l 1
 212 18 174 -6 132 -6 c 0
 52 -6 -12 85 -12 201 c 0
 -12 317 52 408 132 408 c 0
 175 408 212 384 240 340 c 1
 240 388 l 2
 240 399 248 407 258 407 c 0
 269 407 277 399 277 388 c 2
 277 152 l 1
 294 177 311 207 325 243 c 0
 328 249 335 253 342 249 c 0
132 32 m 0
 191 32 239 107 240 199 c 2
 240 204 l 2
 239 295 191 370 132 370 c 0
 74 370 25 294 25 201 c 0
 25 108 74 32 132 32 c 0
EndSplineSet
Substitution2: "Single Substitution lookup 92 subtable" qfin
Substitution2: "Single Substitution lookup 90 subtable" q.001
Substitution2: "Single Substitution lookup 88 subtable" qfin
Substitution2: "Single Substitution lookup 75 subtable" qfin
EndChar

StartChar: r
Encoding: 114 114 75
Width: 373
GlyphClass: 5
Flags: MW
HStem: -5 34<227 252 227 261.5> 331 37<111 127.5 111 129>
VStem: 174 37<74 77 77 350 350 350>
LayerCount: 2
Fore
SplineSet
229 -5 m 0
 174 -5 174 53 174 74 c 2
 174 350 l 1
 159 339 142 331 116 331 c 0
 99 331 83 339 72 355 c 1
 64 338 l 1
 8 202 l 2
 6 195 -3 192 -10 194 c 0
 -18 198 -21 205 -18 212 c 0
 -18 213 29 329 55 398 c 0
 59 406 67 411 74 410 c 0
 83 408 90 402 91 394 c 0
 95 371 106 368 116 368 c 0
 139 368 151 379 168 396 c 2
 180 407 l 2
 186 412 194 413 200 411 c 0
 208 408 211 401 211 393 c 2
 211 77 l 2
 211 29 223 29 231 29 c 0
 273 29 308 98 368 242 c 0
 371 248 378 252 385 249 c 0
 394 246 396 238 394 231 c 0
 323 66 294 -5 229 -5 c 0
EndSplineSet
Substitution2: "Single Substitution lookup 92 subtable" rdebut
Substitution2: "Single Substitution lookup 90 subtable" r.001
Substitution2: "Single Substitution lookup 88 subtable" rdebut
EndChar

StartChar: s
Encoding: 115 115 76
Width: 296
GlyphClass: 5
Flags: MW
HStem: -8 35<73.5 116>
VStem: 185 37
LayerCount: 2
Fore
SplineSet
309 251 m 0
 315 249 319 241 317 235 c 0
 287 154 238 86 199 45 c 1
 174 11 135 -8 97 -8 c 0
 38 -8 -8 22 -28 70 c 1
 -49 47 -70 28 -87 18 c 0
 -98 12 -105 22 -106 32 c 0
 -106 41 -102 46 -94 52 c 0
 -44 90 7 158 49 214 c 2
 184 393 l 2
 191 403 197 409 205 410 c 0
 215 411 222 403 222 394 c 2
 223 124 l 1
 223 122 l 1
 248 156 274 198 292 245 c 0
 295 251 303 254 309 251 c 0
2 101 m 0
 18 46 50 27 97 27 c 0
 147 27 185 57 185 136 c 2
 186 339 l 1
 69 188 l 2
 52 166 27 134 1 103 c 0
 2 102 2 102 2 101 c 0
EndSplineSet
Substitution2: "Single Substitution lookup 92 subtable" sisol
Substitution2: "Single Substitution lookup 91 subtable" s.003
Substitution2: "Single Substitution lookup 89 subtable" s.002
Substitution2: "Single Substitution lookup 88 subtable" sisol
EndChar

StartChar: t
Encoding: 116 116 77
Width: 266
GlyphClass: 5
Flags: MW
HStem: -5 34<118.5 145 118.5 154> 510 40<102 196 102 196>
VStem: 64 38<79 346 346 346 456 510 550 654>
LayerCount: 2
Fore
SplineSet
120 -5 m 0
 64 -5 64 52 64 79 c 2
 64 346 l 1
 53 318 19 233 12 213 c 0
 7 206 3 201 -7 205 c 0
 -16 209 -15 221 -12 226 c 0
 -3 250 24 317 42 364 c 0
 54 394 64 422 64 456 c 2
 64 654 l 2
 64 665 73 674 83 674 c 0
 94 674 102 665 102 654 c 2
 102 550 l 1
 196 550 l 2
 207 550 214 541 214 530 c 0
 214 519 207 510 196 510 c 2
 102 510 l 1
 102 79 l 2
 102 29 114 29 123 29 c 0
 167 29 214 126 262 246 c 0
 265 254 273 257 280 253 c 0
 287 251 291 244 287 235 c 0
 220 72 188 -5 120 -5 c 0
EndSplineSet
Substitution2: "Single Substitution lookup 90 subtable" t.001
EndChar

StartChar: u
Encoding: 117 117 78
Width: 503
GlyphClass: 5
Flags: MW
HStem: -6 35<358 384.5 358 392.5> -6 38<169 219.5>
VStem: 54 37<137 312 312 312> 305 38<134 388>
LayerCount: 2
Fore
SplineSet
199 -6 m 0x70
 118 -6 54 58 54 137 c 2
 54 312 l 1
 45 289 8 202 8 202 c 2
 6 195 -2 192 -9 194 c 0
 -17 198 -20 205 -17 212 c 0
 -17 213 23 306 43 364 c 2
 53 395 l 2
 58 403 67 407 74 406 c 0
 84 404 91 397 91 388 c 2
 91 137 l 2
 91 80 139 32 199 32 c 0x70
 256 32 305 77 305 134 c 2
 305 388 l 2
 305 399 313 407 324 407 c 0
 335 407 343 399 343 388 c 2
 343 77 l 2
 343 29 353 29 363 29 c 0xb0
 406 29 442 107 497 239 c 0
 500 245 507 250 515 246 c 0
 521 244 526 238 522 228 c 0
 456 67 425 -6 360 -6 c 0
 321 -6 310 23 307 43 c 1
 279 12 240 -6 199 -6 c 0x70
EndSplineSet
Substitution2: "Single Substitution lookup 90 subtable" u.001
Substitution2: "Single Substitution lookup 76 subtable" u.002
EndChar

StartChar: v
Encoding: 118 118 79
Width: 470
GlyphClass: 5
Flags: MW
HStem: -6 38<164.5 227 161.5 237.5> 166 31<394.5 426 394 433.5>
VStem: 53 37<178 309 309 309> 307 37<139 180>
LayerCount: 2
Fore
SplineSet
197 -6 m 0
 132 -6 53 26 53 178 c 2
 53 309 l 1
 44 286 8 202 8 202 c 2
 5 195 -2 192 -9 194 c 0
 -17 198 -20 205 -17 212 c 0
 -17 213 23 306 43 364 c 2
 53 395 l 2
 58 403 67 407 74 406 c 0
 84 404 90 397 90 388 c 2
 90 178 l 2
 90 81 126 32 197 32 c 0
 257 32 307 98 307 180 c 0
 308 259 289 319 255 380 c 0
 249 388 250 398 260 404 c 0
 269 410 281 408 288 398 c 0
 294 389 316 349 329 317 c 0
 346 279 372 197 416 197 c 0
 436 197 450 205 466 243 c 0
 467 247 477 252 483 247 c 0
 491 243 490 236 489 232 c 0
 478 185 451 166 416 166 c 0
 373 166 339 221 339 221 c 1
 344 204 344 193 344 178 c 0
 344 77 278 -6 197 -6 c 0
EndSplineSet
EndChar

StartChar: w
Encoding: 119 119 80
Width: 728
GlyphClass: 5
Flags: MW
HStem: -6 39<164.5 223 420 483> 166 31<652.5 684 652 691.5>
VStem: 53 37<178 309 309 309> 307 39<180 389> 562 39<140 187.5>
LayerCount: 2
Fore
SplineSet
197 -6 m 0
 132 -6 53 24 53 178 c 2
 53 309 l 1
 44 286 8 202 8 202 c 2
 5 195 -2 192 -9 194 c 0
 -17 198 -20 205 -17 212 c 0
 -17 213 23 306 43 364 c 2
 53 395 l 2
 58 403 67 407 74 406 c 0
 84 404 90 397 90 388 c 2
 90 177 l 2
 90 80 127 33 197 33 c 0
 258 33 307 99 307 180 c 2
 307 389 l 2
 307 398 313 408 327 408 c 0
 340 408 346 398 346 389 c 2
 346 180 l 2
 346 83 382 33 452 33 c 0
 514 33 562 100 562 180 c 0
 563 259 546 319 512 380 c 0
 506 388 507 398 517 404 c 0
 526 410 538 408 545 398 c 0
 551 389 573 349 586 317 c 0
 603 279 630 197 674 197 c 0
 694 197 708 205 724 243 c 0
 725 247 735 252 741 247 c 0
 749 243 748 236 747 232 c 0
 736 185 709 166 674 166 c 0
 631 166 596 221 596 221 c 1
 601 204 601 195 601 180 c 0
 598 71 534 -6 452 -6 c 0
 388 -6 345 24 324 82 c 1
 295 26 249 -6 197 -6 c 0
EndSplineSet
EndChar

StartChar: x
Encoding: 120 120 81
Width: 502
GlyphClass: 2
Flags: MW
HStem: -9 35<344 355> -9 38<116.5 158> 374 38<115 157.5 348 356.5>
VStem: 224 38<170 250 170 250.5>
LayerCount: 2
Fore
SplineSet
135 -9 m 0x70
 78 -9 32 35 22 105 c 0
 21 109 22 114 24 118 c 0
 27 123 32 125 39 126 c 0
 49 128 59 120 60 110 c 0
 69 62 98 29 135 29 c 0x70
 184 29 224 110 224 203 c 0
 224 298 178 374 137 374 c 0
 93 374 58 323 14 219 c 0
 9 211 2 209 -4 212 c 0
 -10 214 -13 221 -11 229 c 0
 30 348 79 412 138 412 c 0
 181 412 220 374 243 311 c 1
 265 373 304 411 346 412 c 0
 383 412 411 404 446 349 c 0
 452 338 449 327 441 322 c 0
 432 316 420 319 414 327 c 0
 383 377 365 374 348 374 c 0
 308 373 262 297 262 203 c 0
 262 137 282 77 312 47 c 0
 325 33 336 26 352 26 c 0xb0
 405 26 438 100 498 242 c 0
 502 249 509 251 517 248 c 0
 524 245 526 238 523 231 c 0
 457 77 423 -8 355 -9 c 0
 325 -9 303 1 284 19 c 0
 267 37 254 62 243 89 c 1
 221 27 181 -9 135 -9 c 0x70
EndSplineSet
Substitution2: "Single Substitution lookup 90 subtable" x.001
EndChar

StartChar: y
Encoding: 121 121 82
Width: 446
GlyphClass: 5
Flags: MW
HStem: -404 38 -6 38<169.5 220>
VStem: 54 37<139 312 312 312> 167.46 39.79 306 37<-79 -79 388 394>
LayerCount: 2
Fore
SplineSet
233 -404 m 0
 175 -401 148 -340 182 -261 c 0
 217 -177 250 -118 305 -16 c 1
 306 41 l 1
 279 11 240 -6 200 -6 c 0
 119 -6 54 59 54 139 c 2
 54 312 l 1
 45 289 8 202 8 202 c 2
 6 195 -2 192 -9 194 c 0
 -17 198 -20 205 -17 212 c 0
 -17 213 23 306 43 364 c 2
 53 395 l 2
 58 403 67 407 74 406 c 0
 84 404 91 397 91 388 c 2
 91 139 l 2
 91 80 139 32 200 32 c 0
 257 32 306 81 306 139 c 2
 306 388 l 2
 306 400 315 407 326 407 c 0
 334 407 343 400 343 388 c 2
 342 51 l 1
 382 123 429 210 440 240 c 0
 444 246 451 251 459 247 c 0
 467 243 468 237 466 228 c 0
 460 214 392 75 343 -14 c 1
 343 -88 l 2
 343 -201 333 -342 288 -386 c 0
 273 -399 253 -406 233 -404 c 0
235 -366 m 0
 247 -367 253 -366 261 -358 c 0
 310 -310 306 -79 306 -79 c 1
 261 -166 224 -255 223 -256 c 0
 206 -292 194 -360 235 -366 c 0
EndSplineSet
Substitution2: "Single Substitution lookup 90 subtable" y.001
Substitution2: "Single Substitution lookup 76 subtable" y.002
EndChar

StartChar: z
Encoding: 122 122 83
Width: 383
GlyphClass: 5
Flags: MW
HStem: -402 37 372 34<134.5 181.5>
VStem: -12 26 112.87 34.5 259 37<232 288.5> 273.25 17.75
LayerCount: 2
Fore
SplineSet
174 -402 m 0xd4
 87 -395 114 -289 126 -256 c 0
 140 -220 180 -130 243 -14 c 2
 254 5 l 1
 231 65 194 103 143 116 c 0
 134 118 128 124 128 134 c 2
 128 135 l 2
 131 146 138 152 147 152 c 0
 209 152 259 202 259 260 c 0
 259 317 211 372 152 372 c 0
 117 372 90 355 73 332 c 0
 63 319 54 305 45 288 c 2
 14 217 l 2
 11 209 4 205 -6 210 c 0
 -14 213 -13 221 -12 228 c 0
 -10 233 19 303 21 309 c 0
 26 321 33 337 42 348 c 0
 70 388 105 406 152 406 c 0
 232 406 296 341 296 260 c 0
 296 204 260 151 207 126 c 1
 235 109 258 81 276 45 c 1
 316 120 373 230 377 236 c 0
 379 243 388 247 392 243 c 0xf8
 399 240 402 233 399 225 c 0
 387 190 325 71 291 10 c 1
 291 10 327 -70 301 -223 c 0
 282 -332 236 -407 174 -402 c 0xd4
177 -365 m 0
 211 -367 249 -301 264 -217 c 0
 277 -135 275 -94 266 -35 c 1
 254 -56 l 2
 209 -140 174 -223 159 -261 c 0
 146 -299 135 -360 177 -365 c 0
EndSplineSet
Substitution2: "Single Substitution lookup 90 subtable" z.001
EndChar

StartChar: dieresis
Encoding: 168 168 84
Width: 264
GlyphClass: 2
Flags: MW
HStem: 500 122<104 107 177 179.5>
VStem: 88 31.5 161 34
LayerCount: 2
Fore
SplineSet
102 500 m 0
 93 500 88 509 88 514 c 2
 84 604 l 2
 85 615 91 623 104 622 c 0
 118 622 124 613 122 603 c 2
 117 514 l 2
 116 505 112 500 102 500 c 0
175 500 m 0
 165 500 161 509 161 514 c 2
 157 604 l 2
 158 615 162 623 177 622 c 0
 191 622 195 613 195 603 c 2
 189 514 l 2
 189 505 184 500 175 500 c 0
EndSplineSet
EndChar

StartChar: guillemotleft
Encoding: 171 171 85
Width: 376
GlyphClass: 5
Flags: MW
HStem: 131 293.88 277 14<-16 -10>
VStem: -16 246.12
LayerCount: 2
Fore
SplineSet
124 135 m 0xa0
 116 129 110 130 104 136 c 2
 -10 264 l 1
 -10 264 -11 265 -11 266 c 0
 -14 269 -16 273 -16 277 c 2
 -16 278 l 2
 -16 282 -14 286 -11 289 c 0
 -11 290 -10 291 -10 291 c 1x60
 104 419 l 2
 110 426 116 427 124 421 c 0
 131 414 129 404 126 401 c 2
 29 277 l 1
 126 155 l 2
 129 152 131 142 124 135 c 0xa0
225 135 m 0
 217 129 211 130 206 136 c 2
 91 264 l 1
 91 264 91 265 90 266 c 0
 87 269 85 273 85 277 c 2
 85 278 l 2
 85 282 87 286 90 289 c 0
 91 290 91 291 91 291 c 1
 206 419 l 2
 211 426 217 427 225 421 c 0
 233 414 230 404 227 401 c 2
 131 277 l 1
 227 155 l 2
 230 152 233 142 225 135 c 0
EndSplineSet
EndChar

StartChar: acute
Encoding: 180 180 86
Width: 78
GlyphClass: 2
Flags: MW
HStem: 495.96 123.77
VStem: -7.5 94.5
LayerCount: 2
Fore
SplineSet
-1 498 m 0
 -9 504 -9 510 -5 517 c 2
 52 611 l 2
 57 619 67 624 78 616 c 0
 89 608 89 599 84 589 c 2
 18 502 l 2
 16 498 8 493 -1 498 c 0
EndSplineSet
EndChar

StartChar: cedilla
Encoding: 184 184 88
Width: 80
GlyphClass: 2
Flags: MW
HStem: -140 32<36 40.5 36 42> -65.46 65.46 0 21G<24 52 52 52>
VStem: 51 34<4.29497e+09 4.29497e+09>
LayerCount: 2
Fore
SplineSet
36 -140 m 0xb0
 23 -140 3 -133 -5 -97 c 0
 -5 -94 -7 -87 3 -82 c 0
 13 -78 18 -84 20 -87 c 0
 21 -89 30 -109 36 -108 c 0
 45 -108 49 -101 51 -86 c 0
 52 -63 46 -59 45 -59 c 0
 40 -60 35 -71 22 -62 c 0xd0
 13 -56 13 -51 13 -46 c 0xb0
 13 -39 24 0 24 0 c 1
 52 0 l 1
 52 -3 47 -27 46 -29 c 1
 55 -29 63 -33 72 -39 c 0xd0
 77 -45 89 -60 85 -87 c 0
 80 -132 48 -140 36 -140 c 0xb0
EndSplineSet
EndChar

StartChar: guillemotright
Encoding: 187 187 89
Width: 356
GlyphClass: 5
Flags: MW
HStem: 131 293.88
VStem: 116.87 246.13
LayerCount: 2
Fore
SplineSet
122 135 m 0
 114 142 117 152 120 155 c 2
 216 277 l 1
 120 401 l 2
 117 404 114 414 122 421 c 0
 130 427 136 426 141 419 c 2
 256 291 l 1
 256 291 256 290 257 289 c 0
 260 286 262 282 262 278 c 2
 262 277 l 2
 262 273 260 269 257 266 c 0
 256 265 256 264 256 264 c 1
 141 136 l 2
 136 130 130 129 122 135 c 0
223 135 m 0
 216 142 218 152 221 155 c 2
 318 277 l 1
 221 401 l 2
 218 404 216 414 223 421 c 0
 231 427 237 426 243 419 c 2
 357 291 l 1
 357 291 358 290 358 289 c 0
 361 286 363 282 363 278 c 2
 363 277 l 2
 363 273 361 269 358 266 c 0
 358 265 357 264 357 264 c 1
 243 136 l 2
 237 130 231 129 223 135 c 0
EndSplineSet
EndChar

StartChar: Agrave
Encoding: 192 192 90
Width: 816
GlyphClass: 2
Flags: MW
HStem: -19 40<54.5 73 54.5 79> 0 21G 105 35<615 615> 884.96 124.03
VStem: 615 38<0 105 105 105 140 734 734 734>
LayerCount: 2
Fore
SplineSet
675 887 m 0x78
 666 882 658 887 655 891 c 2
 589 978 l 2
 583 988 583 997 594 1006 c 0
 606 1013 616 1007 621 999 c 2
 679 906 l 2
 683 899 683 893 675 887 c 0x78
65 -19 m 0xb8
 26 -19 -8 8 -17 46 c 0
 -20 56 -13 66 -3 69 c 0
 7 71 19 66 22 56 c 0
 26 34 44 21 65 21 c 0
 81 21 94 28 102 40 c 2xb8
 618 811 l 2
 622 818 631 821 640 818 c 0
 649 816 653 809 653 800 c 2
 653 140 l 1
 752 147 779 186 808 244 c 0
 812 250 820 253 827 249 c 0
 834 247 836 238 833 231 c 0
 798 148 747 112 653 106 c 1
 653 0 l 2
 653 -10 645 -19 634 -19 c 0
 624 -19 615 -10 615 0 c 2x78
 615 105 l 1
 517 101 399 143 276 228 c 1
 134 19 l 2
 119 -4 93 -19 65 -19 c 0xb8
615 140 m 1
 615 734 l 1
 585 690 359 353 297 261 c 1
 369 211 439 176 504 157 c 0
 542 145 580 139 615 140 c 1
EndSplineSet
EndChar

StartChar: Ccedilla
Encoding: 199 199 91
Width: 434
GlyphClass: 2
Flags: MW
HStem: -142 32<240 243 240 245.5> -58 30<245 254.5> -5 37 766 38<178.5 260>
VStem: -6 37<300 499 300 509.5> 213 37<-46.5 -27> 254 33
LayerCount: 2
Fore
SplineSet
240 -142 m 0
 225 -142 202 -136 193 -99 c 0
 193 -95 191 -86 201 -82 c 0
 213 -79 218 -85 218 -87 c 0
 220 -90 230 -111 240 -110 c 0
 246 -110 252 -104 254 -85 c 0
 255 -62 250 -57 246 -58 c 0
 244 -58 238 -70 221 -59 c 0
 213 -54 213 -49 213 -44 c 0
 213 -40 218 -19 224 -5 c 1
 99 3 -6 186 -6 399 c 0
 -6 620 104 804 234 804 c 0
 300 804 363 757 409 676 c 0
 413 665 412 658 400 650 c 0
 391 644 378 651 376 658 c 0
 338 726 286 766 234 766 c 0
 123 766 31 599 31 399 c 0
 31 201 123 32 234 32 c 0
 311 32 343 68 425 241 c 0
 428 247 435 250 444 247 c 0
 450 244 451 235 450 230 c 0
 367 38 323 0 254 -5 c 1
 253 -14 250 -26 250 -28 c 1
 259 -28 266 -31 273 -37 c 0
 279 -43 291 -58 287 -87 c 0
 281 -135 251 -142 240 -142 c 0
EndSplineSet
EndChar

StartChar: Egrave
Encoding: 200 200 92
Width: 468
GlyphClass: 2
Flags: MW
HStem: -17 39<158.5 253> 379 40<196 260 196 260> 779 39<154 250> 884.96 124.03
VStem: -17 39<163 249.5> -14 38<552 639.5 546 649>
LayerCount: 2
Fore
SplineSet
244 887 m 0xf8
 235 882 227 887 224 891 c 2
 158 978 l 2
 152 988 152 997 163 1006 c 0
 175 1013 185 1007 190 999 c 2
 248 906 l 2
 252 899 252 893 244 887 c 0xf8
213 -17 m 0
 104 -17 -17 70 -17 208 c 0xf8
 -17 291 33 365 111 399 c 1
 36 433 -14 510 -14 594 c 0
 -14 704 71 818 213 818 c 0
 304 818 379 770 417 692 c 0
 422 681 420 669 410 664 c 0
 400 659 388 660 381 674 c 0
 351 740 287 779 213 779 c 0
 95 779 24 685 24 594 c 0xf4
 24 498 102 420 196 419 c 2
 260 419 l 2
 272 419 280 409 280 399 c 0
 280 388 271 379 260 379 c 2
 196 379 l 1
 98 375 22 299 22 208 c 0
 22 118 99 22 213 22 c 0
 317 22 381 78 457 236 c 0
 461 242 467 246 476 241 c 0
 486 237 486 231 482 224 c 0
 385 3 293 -17 213 -17 c 0
EndSplineSet
EndChar

StartChar: Eacute
Encoding: 201 201 93
Width: 468
GlyphClass: 2
Flags: MW
HStem: -17 39<158.5 253> 379 40<196 260 196 260> 779 39<154 250> 886.94 124.61
VStem: -17 39<163 249.5> -14 38<552 639.5 546 649>
LayerCount: 2
Fore
SplineSet
168 889 m 0xf8
 160 894 159 901 164 909 c 2
 221 1001 l 2
 226 1010 236 1016 246 1008 c 0
 258 999 258 990 253 980 c 2
 187 892 l 2
 185 889 176 884 168 889 c 0xf8
213 -17 m 0
 104 -17 -17 70 -17 208 c 0xf8
 -17 291 33 365 111 399 c 1
 36 433 -14 510 -14 594 c 0
 -14 704 71 818 213 818 c 0
 304 818 379 770 417 692 c 0
 422 681 420 669 410 664 c 0
 400 659 388 660 381 674 c 0
 351 740 287 779 213 779 c 0
 95 779 24 685 24 594 c 0xf4
 24 498 102 420 196 419 c 2
 260 419 l 2
 272 419 280 409 280 399 c 0
 280 388 271 379 260 379 c 2
 196 379 l 1
 98 375 22 299 22 208 c 0
 22 118 99 22 213 22 c 0
 317 22 381 78 457 236 c 0
 461 242 467 246 476 241 c 0
 486 237 486 231 482 224 c 0
 385 3 293 -17 213 -17 c 0
EndSplineSet
EndChar

StartChar: Ecircumflex
Encoding: 202 202 94
Width: 468
GlyphClass: 2
Flags: MW
HStem: -17 39<158.5 253> 379 40<196 260 196 260> 779 39<154 250> 959 41<182 200>
VStem: -17 39<163 249.5> -14 38<552 639.5 546 649> 122.96 154.41
LayerCount: 2
Fore
SplineSet
130 888 m 0xfa
 122 894 121 901 125 908 c 2
 182 1000 l 2
 186 1005 192 1010 200 1009 c 0
 206 1010 213 1005 217 1000 c 2
 275 908 l 2
 279 901 279 894 270 888 c 0
 262 883 253 888 250 892 c 2
 200 959 l 1
 149 892 l 2
 147 888 137 883 130 888 c 0xfa
213 -17 m 0
 104 -17 -17 70 -17 208 c 0xfa
 -17 291 33 365 111 399 c 1
 36 433 -14 510 -14 594 c 0
 -14 704 71 818 213 818 c 0
 304 818 379 770 417 692 c 0
 422 681 420 669 410 664 c 0
 400 659 388 660 381 674 c 0
 351 740 287 779 213 779 c 0
 95 779 24 685 24 594 c 0xf6
 24 498 102 420 196 419 c 2
 260 419 l 2
 272 419 280 409 280 399 c 0
 280 388 271 379 260 379 c 2
 196 379 l 1
 98 375 22 299 22 208 c 0
 22 118 99 22 213 22 c 0
 317 22 381 78 457 236 c 0
 461 242 467 246 476 241 c 0
 486 237 486 231 482 224 c 0
 385 3 293 -17 213 -17 c 0
EndSplineSet
EndChar

StartChar: Edieresis
Encoding: 203 203 95
Width: 468
GlyphClass: 2
Flags: MW
HStem: -17 39<158.5 253> 379 40<196 260 196 260> 779 39<154 250>
VStem: -17 39<163 249.5> -14 38<552 639.5 546 649> 148 35 220 35
LayerCount: 2
Fore
SplineSet
162 886 m 0xf6
 152 886 148 896 148 900 c 2
 144 992 l 2
 145 1004 150 1011 164 1011 c 0
 178 1011 183 1000 183 991 c 2
 177 899 l 2
 176 891 171 886 162 886 c 0xf6
234 886 m 0
 224 886 220 896 220 900 c 2
 216 992 l 2
 217 1004 222 1011 236 1011 c 0
 251 1011 255 1000 255 991 c 2
 249 899 l 2
 248 891 244 886 234 886 c 0
213 -17 m 0
 104 -17 -17 70 -17 208 c 0xf6
 -17 291 33 365 111 399 c 1
 36 433 -14 510 -14 594 c 0
 -14 704 71 818 213 818 c 0
 304 818 379 770 417 692 c 0
 422 681 420 669 410 664 c 0
 400 659 388 660 381 674 c 0
 351 740 287 779 213 779 c 0
 95 779 24 685 24 594 c 0xee
 24 498 102 420 196 419 c 2
 260 419 l 2
 272 419 280 409 280 399 c 0
 280 388 271 379 260 379 c 2
 196 379 l 1
 98 375 22 299 22 208 c 0
 22 118 99 22 213 22 c 0
 317 22 381 78 457 236 c 0
 461 242 467 246 476 241 c 0
 486 237 486 231 482 224 c 0
 385 3 293 -17 213 -17 c 0
EndSplineSet
EndChar

StartChar: Ocircumflex
Encoding: 212 212 96
Width: 532
GlyphClass: 2
Flags: MW
HStem: -17 37<167 267 167 278.5> 779 38<167 267> 959 41<198 216>
VStem: -4 38<297 502.5 297 514.5> 138.96 154.41 401 38<297 502.5>
LayerCount: 2
Fore
SplineSet
146 888 m 0
 138 894 137 901 141 908 c 2
 198 1000 l 2
 202 1005 208 1010 216 1009 c 0
 222 1010 229 1005 233 1000 c 2
 291 908 l 2
 295 901 295 894 286 888 c 0
 278 883 269 888 266 892 c 2
 216 959 l 1
 165 892 l 2
 163 888 153 883 146 888 c 0
217 -17 m 0
 94 -17 -4 170 -4 400 c 0
 -4 629 94 817 217 817 c 0
 340 817 439 629 439 400 c 0
 439 170 340 -17 217 -17 c 0
217 20 m 0
 317 20 401 194 401 400 c 0
 401 605 317 779 217 779 c 0
 117 779 34 605 34 400 c 0
 34 194 117 20 217 20 c 0
EndSplineSet
EndChar

StartChar: multiply
Encoding: 215 215 97
Width: 500
GlyphClass: 2
Flags: MW
HStem: -13.24 21G
VStem: 3.12 271.75
LayerCount: 2
Fore
SplineSet
12 -10 m 0
 2 -4 0 7 7 18 c 2
 116 199 l 1
 7 380 l 2
 0 392 2 403 12 409 c 0
 22 415 33 412 39 400 c 2
 138 235 l 1
 239 400 l 2
 245 412 256 415 266 409 c 0
 276 403 278 392 271 380 c 2
 161 199 l 1
 271 18 l 2
 278 7 276 -4 266 -10 c 0
 256 -17 245 -13 239 -2 c 2
 138 164 l 1
 39 -2 l 2
 33 -13 22 -17 12 -10 c 0
EndSplineSet
EndChar

StartChar: agrave
Encoding: 224 224 98
Width: 441
GlyphClass: 2
Flags: MW
HStem: -6 35 -6 39<112 152> 369 39<111.5 152 111.5 161.5> 515.82 120.75
VStem: -13 37<173.5 229.5> 239 39<62 62>
LayerCount: 2
Fore
SplineSet
164 518 m 0x7c
 156 513 148 517 146 522 c 2
 81 606 l 2
 76 616 76 625 87 633 c 0
 99 641 109 635 114 627 c 2
 169 538 l 2
 173 530 172 524 164 518 c 0x7c
132 -6 m 0
 92 -6 53 18 28 58 c 0x7c
 1 96 -13 146 -13 201 c 0
 -13 258 1 306 28 344 c 0
 52 383 91 408 132 408 c 0
 172 408 209 386 236 344 c 0
 238 342 238 341 239 340 c 1
 240 388 l 2
 240 399 249 408 258 408 c 0
 269 408 277 399 277 388 c 2
 278 78 l 2
 278 37 282 29 296 29 c 0xbc
 333 25 364 80 435 245 c 0
 438 251 445 254 452 251 c 0
 459 249 462 241 460 234 c 0
 387 52 352 -8 292 -6 c 0
 246 -5 240 33 239 62 c 1
 239 62 238 59 236 57 c 0
 208 17 172 -6 132 -6 c 0
132 33 m 0
 191 33 239 109 239 201 c 0
 239 293 191 369 132 369 c 0
 73 369 24 293 24 201 c 0
 24 109 73 33 132 33 c 0
EndSplineSet
EndChar

StartChar: acircumflex
Encoding: 226 226 99
Width: 441
GlyphClass: 2
Flags: MW
HStem: -6 35 -6 39<112 152> 369 39<111.5 152 111.5 161.5> 591 41<115 132>
VStem: -13 37<173.5 229.5> 55.12 153.38 239 39<62 62>
LayerCount: 2
Fore
SplineSet
62 520 m 0x7e
 54 526 53 532 58 539 c 2
 115 632 l 2
 118 637 125 642 132 641 c 0
 140 642 145 637 149 632 c 2
 206 539 l 2
 210 532 210 526 202 520 c 0
 193 515 185 520 183 524 c 2
 132 591 l 1
 80 524 l 2
 78 520 69 515 62 520 c 0x7e
132 -6 m 0
 92 -6 53 18 28 58 c 0x7e
 1 96 -13 146 -13 201 c 0
 -13 258 1 306 28 344 c 0
 52 383 91 408 132 408 c 0
 172 408 209 386 236 344 c 0
 238 342 238 341 239 340 c 1
 240 388 l 2
 240 399 249 408 258 408 c 0
 269 408 277 399 277 388 c 2
 278 78 l 2
 278 37 282 29 296 29 c 0xbe
 333 25 364 80 435 245 c 0
 438 251 445 254 452 251 c 0
 459 249 462 241 460 234 c 0
 387 52 352 -8 292 -6 c 0
 246 -5 240 33 239 62 c 1
 239 62 238 59 236 57 c 0
 208 17 172 -6 132 -6 c 0
132 33 m 0
 191 33 239 109 239 201 c 0
 239 293 191 369 132 369 c 0
 73 369 24 293 24 201 c 0
 24 109 73 33 132 33 c 0
EndSplineSet
EndChar

StartChar: ccedilla
Encoding: 231 231 100
Width: 313
GlyphClass: 2
Flags: MW
HStem: -139 32<128.5 132 128.5 138.5> -57 81 -11 35 375 39<125 158.5>
VStem: -14 38<174.5 231.5> 117 28 147 35
LayerCount: 2
Fore
SplineSet
132 -139 m 0xda
 119 -139 98 -132 89 -95 c 0
 89 -91 86 -83 97 -79 c 0
 108 -75 113 -82 114 -85 c 0
 116 -87 125 -107 132 -107 c 0
 140 -106 146 -100 147 -82 c 0
 149 -62 143 -57 140 -57 c 0xda
 136 -57 131 -68 117 -58 c 0
 108 -54 108 -48 108 -42 c 0xdc
 108 -37 117 -10 117 -9 c 0
 83 -2 52 21 27 58 c 0
 0 95 -14 146 -14 203 c 0
 -15 270 9 338 47 376 c 0
 73 400 106 414 137 414 c 0
 194 414 241 379 259 328 c 0
 262 317 257 307 247 304 c 0
 238 300 228 306 224 313 c 0
 207 355 180 375 137 375 c 0
 113 375 90 366 73 348 c 0
 44 319 24 260 24 203 c 0
 25 100 76 22 142 24 c 0
 205 26 245 96 301 232 c 0
 305 239 313 243 320 239 c 0
 328 236 328 226 326 221 c 0
 260 67 229 -3 146 -11 c 1xbc
 144 -26 l 1xdc
 152 -26 160 -30 167 -36 c 0
 173 -42 185 -57 182 -84 c 0
 175 -131 145 -139 132 -139 c 0xda
EndSplineSet
Substitution2: "Single Substitution lookup 90 subtable" ccedilla.001
EndChar

StartChar: egrave
Encoding: 232 232 101
Width: 304
GlyphClass: 5
Flags: MW
HStem: -4 34<124 124> 379 35.59 511.54 126.03
VStem: -10 35<164 182 164 183> 147 36.91
LayerCount: 2
Fore
SplineSet
156 514 m 0
 147 508 139 514 137 518 c 2
 68 606 l 2
 62 617 62 626 74 634 c 0
 86 642 96 636 101 628 c 2
 160 534 l 2
 164 526 163 520 156 514 c 0
124 -4 m 0
 56 -3 16 33 0 92 c 1
 -29 62 -56 39 -85 18 c 0
 -94 11 -102 22 -103 32 c 0
 -103 41 -99 46 -91 52 c 0
 -69 69 -32 102 -9 127 c 1
 -10 142 -10 153 -10 164 c 0
 -10 202 -5 237 4 271 c 0
 33 372 81 430 146 411 c 0
 163 407 176 392 181 373 c 0
 187 352 192 293 107 204 c 0
 77 171 51 143 29 120 c 1
 41 60 75 30 124 30 c 0
 194 30 243 105 300 243 c 0
 304 250 312 253 318 250 c 0
 324 249 328 243 325 233 c 0
 257 75 217 -5 124 -4 c 0
25 164 m 1
 44 184 63 204 81 225 c 0
 139 291 154 339 147 363 c 0
 144 375 137 379 123 379 c 0
 84 379 51 314 38 262 c 0
 30 232 25 200 25 164 c 1
EndSplineSet
Substitution2: "Single Substitution lookup 91 subtable" egrave.003
Substitution2: "Single Substitution lookup 90 subtable" egrave.001
Substitution2: "Single Substitution lookup 76 subtable" egrave.003
Substitution2: "Single Substitution lookup 75 subtable" egrave.alt
EndChar

StartChar: eacute
Encoding: 233 233 102
Width: 304
GlyphClass: 5
Flags: MW
HStem: -4 34<124 124> 379 35.59 510.54 125.46
VStem: -10 35<164 182 164 183> 147 36.91
LayerCount: 2
Fore
SplineSet
72 513 m 0
 64 518 64 525 68 533 c 2
 127 627 l 2
 132 634 141 641 155 632 c 0
 166 624 166 615 160 605 c 2
 93 517 l 2
 91 513 81 507 72 513 c 0
124 -4 m 0
 56 -3 16 33 0 92 c 1
 -29 62 -56 39 -85 18 c 0
 -94 11 -102 22 -103 32 c 0
 -103 41 -99 46 -91 52 c 0
 -69 69 -32 102 -9 127 c 1
 -10 142 -10 153 -10 164 c 0
 -10 202 -5 237 4 271 c 0
 33 372 81 430 146 411 c 0
 163 407 176 392 181 373 c 0
 187 352 192 293 107 204 c 0
 77 171 51 143 29 120 c 1
 41 60 75 30 124 30 c 0
 194 30 243 105 300 243 c 0
 304 250 312 253 318 250 c 0
 324 249 328 243 325 233 c 0
 257 75 217 -5 124 -4 c 0
25 164 m 1
 44 184 63 204 81 225 c 0
 139 291 154 339 147 363 c 0
 144 375 137 379 123 379 c 0
 84 379 51 314 38 262 c 0
 30 232 25 200 25 164 c 1
EndSplineSet
Substitution2: "Single Substitution lookup 91 subtable" eacute.003
Substitution2: "Single Substitution lookup 90 subtable" eacute.001
Substitution2: "Single Substitution lookup 76 subtable" eacute.003
Substitution2: "Single Substitution lookup 75 subtable" eacute.alt
EndChar

StartChar: ecircumflex
Encoding: 234 234 103
Width: 304
GlyphClass: 5
Flags: MW
HStem: -4 34<124 124> 379 35.59 589 41<101 118>
VStem: -10 35<164 182 164 183> 41.12 153.38 147 36.91
LayerCount: 2
Fore
SplineSet
48 518 m 0xf8
 40 524 39 530 44 537 c 2
 101 630 l 2
 104 635 111 640 118 639 c 0
 126 640 131 635 135 630 c 2
 192 537 l 2
 196 530 196 524 188 518 c 0
 179 513 171 518 169 522 c 2
 118 589 l 1
 66 522 l 2
 64 518 55 513 48 518 c 0xf8
124 -4 m 0
 56 -3 16 33 0 92 c 1
 -29 62 -56 39 -85 18 c 0
 -94 11 -102 22 -103 32 c 0
 -103 41 -99 46 -91 52 c 0
 -69 69 -32 102 -9 127 c 1
 -10 142 -10 153 -10 164 c 0
 -10 202 -5 237 4 271 c 0
 33 372 81 430 146 411 c 0
 163 407 176 392 181 373 c 0
 187 352 192 293 107 204 c 0xd4
 77 171 51 143 29 120 c 1
 41 60 75 30 124 30 c 0
 194 30 243 105 300 243 c 0
 304 250 312 253 318 250 c 0
 324 249 328 243 325 233 c 0
 257 75 217 -5 124 -4 c 0
25 164 m 1
 44 184 63 204 81 225 c 0
 139 291 154 339 147 363 c 0
 144 375 137 379 123 379 c 0
 84 379 51 314 38 262 c 0
 30 232 25 200 25 164 c 1
EndSplineSet
Substitution2: "Single Substitution lookup 91 subtable" ecircumflex.003
Substitution2: "Single Substitution lookup 90 subtable" ecircumflex.001
Substitution2: "Single Substitution lookup 76 subtable" ecircumflex.003
Substitution2: "Single Substitution lookup 75 subtable" ecircumflex.alt
EndChar

StartChar: edieresis
Encoding: 235 235 104
Width: 304
GlyphClass: 5
Flags: MW
HStem: -4 34<124 124> 379 35.59 515 106<61 85 61 158>
VStem: -10 35<164 182 164 183> 66 31.5 139 35 147 36.91
LayerCount: 2
Fore
SplineSet
80 515 m 0xfc
 70 515 66 525 66 529 c 2
 61 621 l 2
 62 633 68 641 82 641 c 0
 96 641 101 630 100 621 c 2
 95 529 l 2
 94 520 90 515 80 515 c 0xfc
153 515 m 0
 143 515 139 525 139 529 c 2
 135 621 l 2
 136 633 141 641 156 641 c 0
 170 641 174 630 174 621 c 2
 168 529 l 2
 167 520 163 515 153 515 c 0
124 -4 m 0
 56 -3 16 33 0 92 c 1
 -29 62 -56 39 -85 18 c 0
 -94 11 -102 22 -103 32 c 0
 -103 41 -99 46 -91 52 c 0
 -69 69 -32 102 -9 127 c 1
 -10 142 -10 153 -10 164 c 0
 -10 202 -5 237 4 271 c 0
 33 372 81 430 146 411 c 0
 163 407 176 392 181 373 c 0
 187 352 192 293 107 204 c 0xfa
 77 171 51 143 29 120 c 1
 41 60 75 30 124 30 c 0
 194 30 243 105 300 243 c 0
 304 250 312 253 318 250 c 0
 324 249 328 243 325 233 c 0
 257 75 217 -5 124 -4 c 0
25 164 m 1
 44 184 63 204 81 225 c 0
 139 291 154 339 147 363 c 0
 144 375 137 379 123 379 c 0
 84 379 51 314 38 262 c 0
 30 232 25 200 25 164 c 1
EndSplineSet
Substitution2: "Single Substitution lookup 91 subtable" edieresis.003
Substitution2: "Single Substitution lookup 90 subtable" edieresis.001
Substitution2: "Single Substitution lookup 76 subtable" edieresis.003
Substitution2: "Single Substitution lookup 75 subtable" edieresis.alt
EndChar

StartChar: icircumflex
Encoding: 238 238 105
Width: 252
GlyphClass: 2
Flags: MW
HStem: -6 35<106.5 132 106.5 140.5> 589 41<53 70>
VStem: -6.88 153.38 52 38<76 306 306 306>
LayerCount: 2
Fore
SplineSet
0 518 m 0xe0
 -8 524 -9 530 -4 537 c 2
 53 630 l 2
 56 635 63 640 70 639 c 0
 78 640 83 635 87 630 c 2
 144 537 l 2
 148 530 148 524 140 518 c 0
 131 513 123 518 121 522 c 2
 70 589 l 1
 18 522 l 2
 16 518 7 513 0 518 c 0xe0
107 -6 m 0x90
 52 -6 52 49 52 76 c 2
 52 306 l 1
 43 283 7 202 7 202 c 2
 5 195 -3 192 -10 194 c 0
 -18 198 -21 205 -18 212 c 0
 -18 213 22 306 42 364 c 2
 52 395 l 2
 57 403 66 407 73 406 c 0
 83 404 90 397 90 388 c 2
 90 76 l 2
 90 29 102 29 111 29 c 0
 153 29 194 116 246 243 c 0
 250 250 259 253 266 250 c 0
 272 246 275 240 272 232 c 0
 206 71 174 -6 107 -6 c 0x90
EndSplineSet
EndChar

StartChar: idieresis
Encoding: 239 239 106
Width: 252
GlyphClass: 2
Flags: MW
HStem: -6 35<106.5 132 106.5 140.5> 518 122<37 40 110 112.5>
VStem: 21 31.5 52 38<76 306 306 306> 94 34
LayerCount: 2
Fore
SplineSet
35 518 m 0xe8
 26 518 21 527 21 532 c 2
 17 622 l 2
 18 633 24 641 37 640 c 0
 51 640 57 631 55 621 c 2
 50 532 l 2
 49 523 45 518 35 518 c 0xe8
108 518 m 0
 98 518 94 527 94 532 c 2
 90 622 l 2
 91 633 95 641 110 640 c 0
 124 640 128 631 128 621 c 2
 122 532 l 2
 122 523 117 518 108 518 c 0
266 250 m 0
 272 246 275 240 272 232 c 0
 206 71 174 -6 107 -6 c 0
 52 -6 52 49 52 76 c 2
 52 306 l 1
 43 283 7 202 7 202 c 2
 5 195 -3 192 -10 194 c 0
 -18 198 -21 205 -18 212 c 0
 -18 213 22 306 42 364 c 2
 52 395 l 2
 57 403 66 407 73 406 c 0
 83 404 90 397 90 388 c 2
 90 76 l 2
 90 29 102 29 111 29 c 0x90
 153 29 194 116 246 243 c 0
 250 250 259 253 266 250 c 0
EndSplineSet
Substitution2: "Single Substitution lookup 90 subtable" idieresis.001
EndChar

StartChar: ocircumflex
Encoding: 244 244 107
Width: 430
GlyphClass: 2
Flags: MW
HStem: -15 38<125.5 170> 164 30<356.5 392.5> 376 38<125.5 170 125.5 181.5> 587 41<130 147>
VStem: -11 37<171.5 228.5> 70.12 153.38 270 37
LayerCount: 2
Fore
SplineSet
77 516 m 0
 69 522 68 528 73 535 c 2
 130 628 l 2
 133 633 140 638 147 637 c 0
 155 638 160 633 164 628 c 2
 221 535 l 2
 225 528 225 522 217 516 c 0
 208 511 200 516 198 520 c 2
 147 587 l 1
 95 520 l 2
 93 516 84 511 77 516 c 0
148 -15 m 0
 103 -15 64 8 34 50 c 0
 5 89 -11 143 -11 200 c 0
 -11 257 4 309 34 350 c 0
 63 391 103 414 148 414 c 0
 192 414 233 391 263 350 c 0
 271 338 278 325 284 313 c 2
 292 295 l 1
 318 226 343 194 370 194 c 0
 402 193 414 227 419 238 c 0
 422 244 429 249 436 246 c 0
 443 244 446 237 443 230 c 0
 438 208 415 164 370 164 c 0
 346 163 326 174 307 197 c 1
 306 141 291 88 263 50 c 0
 232 8 192 -15 148 -15 c 0
148 23 m 0
 215 23 270 103 270 200 c 0
 270 297 215 376 148 376 c 0
 81 376 26 295 26 200 c 0
 26 105 81 23 148 23 c 0
EndSplineSet
EndChar

StartChar: odieresis
Encoding: 246 246 108
Width: 430
GlyphClass: 2
Flags: MW
HStem: -15 38<125.5 170> 164 30<356.5 392.5> 376 38<125.5 170 125.5 181.5> 515 122<113 116 186 188.5>
VStem: -11 37<171.5 228.5> 97 31.5 170 34 270 37
LayerCount: 2
Fore
SplineSet
111 515 m 0
 102 515 97 524 97 529 c 2
 93 619 l 2
 94 630 100 638 113 637 c 0
 127 637 133 628 131 618 c 2
 126 529 l 2
 125 520 121 515 111 515 c 0
184 515 m 0
 174 515 170 524 170 529 c 2
 166 619 l 2
 167 630 171 638 186 637 c 0
 200 637 204 628 204 618 c 2
 198 529 l 2
 198 520 193 515 184 515 c 0
148 -15 m 0
 103 -15 64 8 34 50 c 0
 5 89 -11 143 -11 200 c 0
 -11 257 4 309 34 350 c 0
 63 391 103 414 148 414 c 0
 192 414 233 391 263 350 c 0
 271 338 278 325 284 313 c 2
 292 295 l 1
 318 226 343 194 370 194 c 0
 402 193 414 227 419 238 c 0
 422 244 429 249 436 246 c 0
 443 244 446 237 443 230 c 0
 438 208 415 164 370 164 c 0
 346 163 326 174 307 197 c 1
 306 141 291 88 263 50 c 0
 232 8 192 -15 148 -15 c 0
148 23 m 0
 215 23 270 103 270 200 c 0
 270 297 215 376 148 376 c 0
 81 376 26 295 26 200 c 0
 26 105 81 23 148 23 c 0
EndSplineSet
EndChar

StartChar: divide
Encoding: 247 247 109
Width: 505
GlyphClass: 2
Flags: MW
HStem: 112 73<167 187.5> 240 38<4.5 345 10 345> 335 73<167 187.5>
VStem: 140 75<139 159 361.5 381>
LayerCount: 2
Fore
SplineSet
177 335 m 0
 157 335 140 352 140 371 c 0
 140 391 157 408 177 408 c 0
 198 408 215 391 215 371 c 0
 215 352 198 335 177 335 c 0
10 240 m 2
 -1 240 -9 248 -9 260 c 0
 -9 271 -1 278 10 278 c 2
 345 278 l 2
 356 278 364 271 364 260 c 0
 364 248 356 240 345 240 c 2
 10 240 l 2
177 112 m 0
 157 112 140 129 140 149 c 0
 140 169 157 185 177 185 c 0
 198 185 215 169 215 149 c 0
 215 129 198 112 177 112 c 0
EndSplineSet
EndChar

StartChar: ugrave
Encoding: 249 249 110
Width: 503
GlyphClass: 2
Flags: MW
HStem: -6 35<358 384.5 358 392.5> -6 38<169 219.5> 513.52 123.47
VStem: 54 37<137 312 312 312> 305 38<134 388>
LayerCount: 2
Fore
SplineSet
228 516 m 0x78
 220 510 212 516 210 519 c 2
 143 606 l 2
 137 616 138 626 149 634 c 0
 160 641 171 635 176 627 c 2
 233 534 l 2
 237 528 237 520 228 516 c 0x78
199 -6 m 0
 118 -6 54 58 54 137 c 2
 54 312 l 1
 45 289 8 202 8 202 c 2
 6 195 -2 192 -9 194 c 0
 -17 198 -20 205 -17 212 c 0
 -17 213 23 306 43 364 c 2
 53 395 l 2
 58 403 67 407 74 406 c 0
 84 404 91 397 91 388 c 2
 91 137 l 2
 91 80 139 32 199 32 c 0x78
 256 32 302 77 305 134 c 2
 305 388 l 2
 305 399 313 407 324 407 c 0
 335 407 343 399 343 388 c 2
 343 77 l 2
 343 29 353 29 363 29 c 0xb8
 406 29 442 107 497 239 c 0
 500 245 507 250 515 246 c 0
 521 244 526 238 522 228 c 0
 456 67 425 -6 360 -6 c 0
 321 -6 310 23 307 43 c 1
 279 12 240 -6 199 -6 c 0
EndSplineSet
EndChar

StartChar: ucircumflex
Encoding: 251 251 111
Width: 503
GlyphClass: 2
Flags: MW
HStem: -6 35<358 384.5 358 392.5> -6 38<169 219.5> 587 41<177 194>
VStem: 54 37<137 312 312 312> 117.12 153.38 305 38<134 388>
LayerCount: 2
Fore
SplineSet
124 516 m 0x7c
 116 522 115 528 120 535 c 2
 177 628 l 2
 180 633 187 638 194 637 c 0
 202 638 207 633 211 628 c 2
 268 535 l 2
 272 528 272 522 264 516 c 0
 255 511 247 516 245 520 c 2
 194 587 l 1
 142 520 l 2
 140 516 131 511 124 516 c 0x7c
199 -6 m 0x54
 118 -6 54 58 54 137 c 2
 54 312 l 1
 45 289 8 202 8 202 c 2
 6 195 -2 192 -9 194 c 0
 -17 198 -20 205 -17 212 c 0
 -17 213 23 306 43 364 c 2
 53 395 l 2
 58 403 67 407 74 406 c 0
 84 404 91 397 91 388 c 2
 91 137 l 2
 91 80 139 32 199 32 c 0x54
 256 32 302 77 305 134 c 2
 305 388 l 2
 305 399 313 407 324 407 c 0
 335 407 343 399 343 388 c 2
 343 77 l 2
 343 29 353 29 363 29 c 0x94
 406 29 442 107 497 239 c 0
 500 245 507 250 515 246 c 0
 521 244 526 238 522 228 c 0
 456 67 425 -6 360 -6 c 0
 321 -6 310 23 307 43 c 1
 279 12 240 -6 199 -6 c 0x54
EndSplineSet
EndChar

StartChar: udieresis
Encoding: 252 252 112
Width: 503
GlyphClass: 2
Flags: MW
HStem: -6 35<358 384.5 358 392.5> -6 38<169 219.5> 514 122<163 166 236 238.5>
VStem: 54 37<137 312 312 312> 147 31.5 220 34 305 38<134 388>
LayerCount: 2
Fore
SplineSet
161 514 m 0x7e
 152 514 147 523 147 528 c 2
 143 618 l 2
 144 629 150 637 163 636 c 0
 177 636 183 627 181 617 c 2
 176 528 l 2
 175 519 171 514 161 514 c 0x7e
234 514 m 0
 224 514 220 523 220 528 c 2
 216 618 l 2
 217 629 221 637 236 636 c 0
 250 636 254 627 254 617 c 2
 248 528 l 2
 248 519 243 514 234 514 c 0
199 -6 m 0
 118 -6 54 58 54 137 c 2
 54 312 l 1
 45 289 8 202 8 202 c 2
 6 195 -2 192 -9 194 c 0
 -17 198 -20 205 -17 212 c 0
 -17 213 23 306 43 364 c 2
 53 395 l 2
 58 403 67 407 74 406 c 0
 84 404 91 397 91 388 c 2
 91 137 l 2
 91 80 139 32 199 32 c 0x7e
 256 32 302 77 305 134 c 2
 305 388 l 2
 305 399 313 407 324 407 c 0
 335 407 343 399 343 388 c 2
 343 77 l 2
 343 29 353 29 363 29 c 0xbe
 406 29 442 107 497 239 c 0
 500 245 507 250 515 246 c 0
 521 244 526 238 522 228 c 0
 456 67 425 -6 360 -6 c 0
 321 -6 310 23 307 43 c 1
 279 12 240 -6 199 -6 c 0
EndSplineSet
EndChar

StartChar: OE
Encoding: 338 338 113
Width: 856
GlyphClass: 3
Flags: MW
HStem: -17 38<560 646> 381 40<589 654 589 654> 781 39<547.5 644>
VStem: -17 38<297.5 505 297.5 517.5> 384 30 391 35
LayerCount: 2
Fore
SplineSet
206 -19 m 0xf4
 83 -19 -17 169 -17 401 c 0
 -17 634 83 821 206 821 c 0
 280 821 346 753 387 649 c 1
 409 740 487 820 607 820 c 0
 697 820 773 772 812 692 c 0
 817 681 813 670 804 666 c 0
 795 660 782 661 776 676 c 0
 744 741 681 781 607 781 c 0
 488 781 417 685 417 593 c 0
 417 499 494 421 589 421 c 2
 654 421 l 2
 666 421 673 409 673 401 c 0
 673 390 665 381 654 381 c 2
 589 381 l 1
 490 376 414 300 414 207 c 0
 414 118 491 21 607 21 c 0
 711 21 775 78 852 235 c 0
 855 242 861 247 871 242 c 0
 880 237 880 230 877 224 c 0
 779 3 685 -17 607 -17 c 0
 513 -17 412 45 384 148 c 1xf8
 344 47 279 -19 206 -19 c 0xf4
206 20 m 0
 307 20 391 194 391 401 c 0
 391 609 307 783 206 783 c 0
 106 783 21 609 21 401 c 0
 21 194 106 20 206 20 c 0
426 344 m 1
 447 368 472 388 503 401 c 1
 472 413 447 434 426 460 c 1
 428 440 428 421 428 401 c 0
 428 382 428 363 426 344 c 1
EndSplineSet
Substitution2: "Single Substitution lookup 90 subtable" OE.001
Ligature2: "'liga' Standard Ligatures lookup 37 subtable" O e
EndChar

StartChar: oe
Encoding: 339 339 114
Width: 594
GlyphClass: 2
Flags: MW
HStem: -15 38<123.5 168> -4 34<414 414> 376 38<123.5 168 123.5 179.5> 379 35.64
VStem: -13 37<171.5 228.5> 268 47<164 182 164 248.5> 437 36.63
LayerCount: 2
Fore
SplineSet
608 250 m 0x6e
 614 249 618 243 615 233 c 0
 547 75 507 -5 414 -4 c 0x6e
 346 -3 306 33 290 92 c 2
 288 100 l 1
 281 81 272 65 261 50 c 0
 230 8 190 -15 146 -15 c 0
 101 -15 62 8 32 50 c 0
 3 89 -13 143 -13 200 c 0
 -13 257 2 309 32 350 c 0
 61 391 101 414 146 414 c 0
 190 414 230 391 260 350 c 0xae
 276 328 290 300 296 276 c 1x5e
 328 373 372 430 436 411 c 0
 453 407 466 392 471 373 c 0
 477 352 480 295 397 204 c 0
 367 171 341 143 319 120 c 1
 331 60 365 30 414 30 c 0
 484 30 533 105 590 243 c 0
 594 250 602 253 608 250 c 0x6e
328 262 m 0
 320 232 315 200 315 164 c 1
 334 184 353 204 371 225 c 0
 428 292 444 339 437 363 c 0
 434 375 427 379 413 379 c 0x5e
 374 379 342 314 328 262 c 0
146 23 m 0xae
 213 23 268 103 268 200 c 0
 268 297 213 376 146 376 c 0
 79 376 24 295 24 200 c 0
 24 105 79 23 146 23 c 0xae
EndSplineSet
Substitution2: "Single Substitution lookup 90 subtable" oe.001
EndChar

StartChar: circumflex
Encoding: 710 710 115
Width: 133
GlyphClass: 2
Flags: MW
HStem: 568 41<50 67>
VStem: -9.88 153.38
LayerCount: 2
Fore
SplineSet
-3 497 m 0
 -11 503 -12 509 -7 516 c 2
 50 609 l 2
 53 614 60 619 67 618 c 0
 75 619 80 614 84 609 c 2
 141 516 l 2
 145 509 145 503 137 497 c 0
 128 492 120 497 118 501 c 2
 67 568 l 1
 15 501 l 2
 13 497 4 492 -3 497 c 0
EndSplineSet
EndChar

StartChar: qfin
Encoding: 960 960 116
Width: 367
GlyphClass: 2
Flags: MW
HStem: -404 21G<252.5 263.5> -6 38<102.5 152.5> 370 38<102.5 152.5 91.5 161>
VStem: -12 37<154.5 247.5 154.5 258.5> 239 38<-385 62 62 62 197 204 204 249.5 340 388>
LayerCount: 2
Fore
SplineSet
258 -404 m 0
 247 -404 239 -396 239 -385 c 2
 239 62 l 1
 211 18 173 -6 132 -6 c 0
 51 -6 -12 84 -12 201 c 0
 -12 316 51 408 132 408 c 0
 173 408 212 383 239 340 c 1
 239 388 l 2
 239 398 247 407 258 407 c 0
 269 407 277 398 277 388 c 2
 277 -385 l 2
 277 -395 269 -404 258 -404 c 0
132 32 m 0
 190 32 239 107 239 197 c 2
 239 204 l 2
 239 295 190 370 132 370 c 0
 73 370 25 294 25 201 c 0
 25 108 73 32 132 32 c 0
EndSplineSet
EndChar

StartChar: quoteright
Encoding: 8217 8217 117
Width: 231
GlyphClass: 2
Flags: MW
HStem: 626 180<40.5 122.5>
VStem: 33.22 98.6
LayerCount: 2
Fore
SplineSet
48 626 m 0
 33 626 32 640 34 646 c 2
 79 782 l 2
 82 788 92 806 112 806 c 0
 133 806 134 787 130 778 c 2
 69 642 l 2
 66 635 58 626 48 626 c 0
EndSplineSet
EndChar

StartChar: quotedblleft
Encoding: 8220 8220 118
Width: 265
GlyphClass: 2
Flags: MW
HStem: 500 122<104 107 177 179.5>
VStem: 88 31.5 161 34
LayerCount: 2
Fore
SplineSet
102 500 m 0
 93 500 88 509 88 514 c 2
 84 604 l 2
 85 615 91 623 104 622 c 0
 118 622 124 613 122 603 c 2
 117 514 l 2
 116 505 112 500 102 500 c 0
175 500 m 0
 165 500 161 509 161 514 c 2
 157 604 l 2
 158 615 162 623 177 622 c 0
 191 622 195 613 195 603 c 2
 189 514 l 2
 189 505 184 500 175 500 c 0
EndSplineSet
EndChar

StartChar: quotedblright
Encoding: 8221 8221 119
Width: 265
GlyphClass: 2
Flags: MW
HStem: 500 122<104 107 177 179.5>
VStem: 88 31.5 161 34
LayerCount: 2
Fore
SplineSet
102 500 m 0
 93 500 88 509 88 514 c 2
 84 604 l 2
 85 615 91 623 104 622 c 0
 118 622 124 613 122 603 c 2
 117 514 l 2
 116 505 112 500 102 500 c 0
175 500 m 0
 165 500 161 509 161 514 c 2
 157 604 l 2
 158 615 162 623 177 622 c 0
 191 622 195 613 195 603 c 2
 189 514 l 2
 189 505 184 500 175 500 c 0
EndSplineSet
EndChar

StartChar: quotedblbase
Encoding: 8222 8222 120
Width: 265
GlyphClass: 2
Flags: MW
HStem: 500 122<104 107 177 179.5>
VStem: 88 31.5 161 34
LayerCount: 2
Fore
SplineSet
102 500 m 0
 93 500 88 509 88 514 c 2
 84 604 l 2
 85 615 91 623 104 622 c 0
 118 622 124 613 122 603 c 2
 117 514 l 2
 116 505 112 500 102 500 c 0
175 500 m 0
 165 500 161 509 161 514 c 2
 157 604 l 2
 158 615 162 623 177 622 c 0
 191 622 195 613 195 603 c 2
 189 514 l 2
 189 505 184 500 175 500 c 0
EndSplineSet
EndChar

StartChar: bullet
Encoding: 8226 8226 121
Width: 450
GlyphClass: 2
Flags: MW
HStem: 243 318<105 193>
VStem: -10 318<358 446>
LayerCount: 2
Fore
SplineSet
149 243 m 0
 61 243 -10 314 -10 402 c 0
 -10 490 61 561 149 561 c 0
 237 561 308 490 308 402 c 0
 308 314 237 243 149 243 c 0
EndSplineSet
EndChar

StartChar: ellipsis
Encoding: 8230 8230 122
Width: 412
GlyphClass: 2
Flags: MW
HStem: -6 62<47 64.5 188 204.5 327.5 345>
VStem: 24 62<16 33.5> 165 62<16 33.5> 306 62<16 33.5>
LayerCount: 2
Fore
SplineSet
56 -6 m 0
 38 -6 24 7 24 25 c 0
 24 42 38 56 56 56 c 0
 73 56 86 42 86 25 c 0
 86 7 73 -6 56 -6 c 0
196 -6 m 0
 180 -6 165 7 165 25 c 0
 165 42 180 56 196 56 c 0
 213 56 227 42 227 25 c 0
 227 7 213 -6 196 -6 c 0
336 -6 m 0
 319 -6 306 7 306 25 c 0
 306 42 319 56 336 56 c 0
 354 56 368 42 368 25 c 0
 368 7 354 -6 336 -6 c 0
EndSplineSet
EndChar

StartChar: Euro
Encoding: 8364 8364 123
Width: 529
GlyphClass: 2
Flags: MW
HStem: -5 38<266 356.5> 326 38<9.5 72 15 72 15 75 115 115 115 403> 434 38<9.5 75 15 72 15 112 115 448> 769 38<267 343.5>
VStem: 72 40<364 370>
LayerCount: 2
Fore
SplineSet
315 -5 m 0
 198 -5 97 140 75 326 c 1
 15 326 l 2
 4 326 -4 333 -4 345 c 0
 -4 357 4 364 15 364 c 2
 72 364 l 1
 71 377 70 389 70 401 c 0
 70 412 71 423 72 434 c 1
 15 434 l 2
 4 434 -4 441 -4 453 c 0
 -4 465 4 472 15 472 c 2
 75 472 l 1
 96 661 198 807 315 807 c 0
 385 807 454 756 498 675 c 0
 504 667 505 656 491 648 c 0
 480 641 470 647 465 656 c 0
 431 721 371 769 316 769 c 0
 218 769 134 639 115 472 c 1
 448 472 l 2
 459 472 466 465 466 453 c 0
 466 441 459 434 448 434 c 2
 112 434 l 1
 112 422 111 411 111 400 c 0
 111 388 112 376 112 364 c 1
 403 364 l 2
 415 364 423 357 423 345 c 0
 423 333 415 326 403 326 c 2
 115 326 l 1
 134 160 217 33 315 33 c 0
 401 33 459 111 496 216 c 0
 498 222 507 232 518 227 c 0
 530 223 536 216 532 203 c 0
 477 51 398 -5 315 -5 c 0
EndSplineSet
EndChar

StartChar: rdebut
Encoding: 8719 8719 124
Width: 464
GlyphClass: 2
Flags: MW
HStem: -5 34<318 343 318 352.5> 330 38<201.5 217 201.5 218.5>
VStem: 265 37<63.5 74>
LayerCount: 2
Fore
SplineSet
320 -5 m 0
 265 -5 265 53 265 74 c 2
 264 350 l 1
 249 339 231 330 206 330 c 0
 189 330 172 340 161 355 c 1
 153 338 l 2
 140 301 32 43 22 16 c 0
 18 10 9 7 3 10 c 0
 -5 13 -7 20 -4 28 c 0
 14 70 113 313 132 366 c 2
 145 397 l 2
 147 406 156 411 164 409 c 0
 173 408 180 402 181 393 c 0
 185 371 197 368 206 368 c 0
 228 368 241 379 259 396 c 2
 271 407 l 2
 277 412 284 413 291 410 c 0
 298 408 302 401 302 392 c 2
 302 77 l 2
 302 29 314 29 322 29 c 0
 364 29 399 98 459 242 c 0
 462 248 469 252 476 249 c 0
 485 246 487 238 485 231 c 0
 414 66 385 -5 320 -5 c 0
EndSplineSet
Substitution2: "Single Substitution lookup 92 subtable" rdebut.001
Substitution2: "Single Substitution lookup 90 subtable" rdebut.001
EndChar

StartChar: minus
Encoding: 8722 8722 125
Width: 371
GlyphClass: 2
Flags: MW
HStem: 180 39<84 277 89 277>
VStem: 89 188<180 180 180 219>
LayerCount: 2
Fore
SplineSet
89 180 m 2
 79 180 71 187 71 199 c 0
 71 212 79 219 89 219 c 2
 277 219 l 2
 288 219 296 212 296 199 c 0
 296 187 288 180 277 180 c 2
 89 180 l 2
EndSplineSet
EndChar

StartChar: e.001
Encoding: 65537 -1 126
Width: 281
GlyphClass: 2
Flags: MW
HStem: -4 33<123 139 103 139.5> 379 35.59
VStem: -10 35<164 182 164 183> 147 36.91
LayerCount: 2
Fore
SplineSet
123 -4 m 0
 56 -3 17 33 0 92 c 1
 -29 62 -56 39 -85 18 c 0
 -94 11 -102 22 -103 32 c 0
 -103 41 -99 46 -91 52 c 0
 -69 69 -32 102 -9 127 c 1
 -10 142 -10 153 -10 164 c 0
 -10 202 -5 237 4 271 c 0
 33 372 81 430 146 411 c 0
 163 407 176 392 181 373 c 0
 187 352 192 293 107 204 c 0
 77 171 51 143 29 120 c 1
 42 59 78 29 128 29 c 0
 150 29 165 36 182 46 c 0
 188 51 198 54 205 46 c 0
 212 38 209 28 203 23 c 0
 179 8 156 -4 123 -4 c 0
25 164 m 1
 44 184 63 204 81 225 c 0
 139 291 154 339 147 363 c 0
 144 375 137 379 123 379 c 0
 84 379 51 314 38 262 c 0
 30 232 25 200 25 164 c 1
EndSplineSet
Substitution2: "Single Substitution lookup 90 subtable" e.006
EndChar

StartChar: s.001
Encoding: 65538 -1 127
Width: 365
GlyphClass: 2
Flags: MW
HStem: -8 35<73.5 114> -1 33<231 240.5 231 241>
VStem: 185 38<96.5 124 85 136>
LayerCount: 2
Fore
SplineSet
287 46 m 0x60
 294 38 291 29 285 23 c 0
 268 8 251 -1 231 -1 c 0x60
 203 0 193 15 189 33 c 1
 165 6 131 -8 97 -8 c 0
 38 -8 -5 23 -27 71 c 1
 -48 48 -69 28 -87 18 c 0
 -98 12 -105 22 -106 32 c 0
 -106 41 -102 46 -94 52 c 0xa0
 -44 90 7 158 49 214 c 2
 184 393 l 2
 191 403 197 409 205 410 c 0
 215 411 222 403 222 394 c 2
 223 124 l 2
 223 46 226 32 236 32 c 0
 245 32 253 38 264 46 c 0
 270 51 280 54 287 46 c 0x60
185 136 m 2
 186 339 l 1
 69 188 l 2
 52 166 27 134 1 103 c 0
 2 102 2 102 2 101 c 0
 20 47 50 27 97 27 c 0xa0
 147 27 185 57 185 136 c 2
EndSplineSet
EndChar

StartChar: sisol
Encoding: 65541 -1 130
Width: 283
GlyphClass: 2
Flags: MW
HStem: -8 35<73.5 122 73.5 128>
VStem: 185 38<96.5 124 82.5 136>
LayerCount: 2
Fore
SplineSet
222 394 m 2
 223 124 l 2
 223 41 159 -8 97 -8 c 0
 38 -8 -5 23 -27 71 c 1
 -48 48 -69 28 -87 18 c 0
 -98 12 -105 22 -106 32 c 0
 -106 41 -102 46 -94 52 c 0
 -44 90 7 158 49 214 c 2
 184 393 l 2
 191 403 197 409 205 410 c 0
 215 411 222 403 222 394 c 2
185 136 m 2
 186 339 l 1
 69 188 l 2
 52 166 27 134 1 103 c 0
 2 102 2 102 2 101 c 0
 20 47 50 27 97 27 c 0
 147 27 185 57 185 136 c 2
EndSplineSet
EndChar

StartChar: quotedbl_sisol_quotedbl
Encoding: 65542 -1 131
Width: 743
GlyphClass: 3
Flags: MW
HStem: -8 35<293.5 342 293.5 348> 667 127<37 59.5 46 65 46 110 46 137>
VStem: 37 34 110 30 405 38<96.5 124 82.5 136> 606 34 679 30
LayerCount: 2
Fore
SplineSet
53 794 m 0
 66 794 71 783 71 774 c 2
 65 667 l 2
 64 658 60 653 50 653 c 0
 41 653 37 662 37 667 c 2
 32 775 l 2
 33 787 39 794 53 794 c 0
123 653 m 0
 114 653 110 662 110 667 c 2
 105 775 l 2
 106 787 112 794 125 794 c 0
 139 794 144 783 143 774 c 2
 137 667 l 2
 136 658 132 653 123 653 c 0
622 794 m 0
 635 794 640 783 640 774 c 2
 634 667 l 2
 633 658 629 653 619 653 c 0
 610 653 606 662 606 667 c 2
 601 775 l 2
 602 787 608 794 622 794 c 0
694 794 m 0
 708 794 713 783 712 774 c 2
 706 667 l 2
 705 658 701 653 692 653 c 0
 683 653 679 662 679 667 c 2
 674 775 l 2
 675 787 681 794 694 794 c 0
425 410 m 0
 435 411 442 403 442 394 c 2
 443 124 l 2
 443 41 379 -8 317 -8 c 0
 258 -8 215 23 193 71 c 1
 172 48 151 28 133 18 c 0
 122 12 115 22 114 32 c 0
 114 41 118 46 126 52 c 0
 176 90 227 158 269 214 c 2
 404 393 l 2
 411 403 417 409 425 410 c 0
405 136 m 2
 406 339 l 1
 289 188 l 2
 272 166 247 134 221 103 c 0
 222 102 222 102 222 101 c 0
 240 47 270 27 317 27 c 0
 367 27 405 57 405 136 c 2
EndSplineSet
Ligature2: "'liga' Standard Ligatures lookup 71 subtable" quotedbl s quotedbl
EndChar

StartChar: space_sisol
Encoding: 65543 -1 132
Width: 920
GlyphClass: 2
Flags: MW
HStem: -8 35<435.5 484 435.5 490>
VStem: 547 38<96.5 124 82.5 136>
LayerCount: 2
Fore
SplineSet
584 394 m 2
 585 124 l 2
 585 41 521 -8 459 -8 c 0
 400 -8 357 23 335 71 c 1
 314 48 293 28 275 18 c 0
 264 12 257 22 256 32 c 0
 256 41 260 46 268 52 c 0
 318 90 369 158 411 214 c 2
 546 393 l 2
 553 403 559 409 567 410 c 0
 577 411 584 403 584 394 c 2
547 136 m 2
 548 339 l 1
 431 188 l 2
 414 166 389 134 363 103 c 0
 364 102 364 102 364 101 c 0
 382 47 412 27 459 27 c 0
 509 27 547 57 547 136 c 2
EndSplineSet
EndChar

StartChar: space_partialdiff
Encoding: 65544 -1 133
Width: 730
GlyphClass: 2
Flags: MW
HStem: -8 35<432.5 473> -5 34
VStem: 544 37
LayerCount: 2
Fore
SplineSet
743 251 m 0xa0
 749 249 753 241 751 235 c 0
 682 52 650 -7 595 -5 c 0x60
 566 -4 554 13 549 34 c 1
 524 7 490 -8 456 -8 c 0
 397 -8 354 23 332 71 c 1
 311 48 290 28 272 18 c 0
 261 12 254 22 253 32 c 0
 253 41 257 46 265 52 c 0xa0
 315 90 366 158 408 214 c 2
 543 393 l 2
 550 403 556 409 564 410 c 0
 574 411 581 403 581 394 c 2
 582 124 l 1
 582 117 l 2
 580 38 587 30 598 29 c 0x60
 632 26 662 80 726 245 c 0
 729 251 737 254 743 251 c 0xa0
544 136 m 2
 545 339 l 1
 428 188 l 2
 411 166 386 134 360 103 c 0
 361 102 361 102 361 101 c 0
 379 47 409 27 456 27 c 0
 506 27 544 57 544 136 c 2
EndSplineSet
EndChar

StartChar: qfin_rdebut
Encoding: 65545 -1 134
Width: 1050
GlyphClass: 2
Flags: MW
HStem: -404 21G<252.5 263.5> -6 38<102.5 152.5> -5 34<900.5 925 900.5 935> 331 38<783.5 799 783.5 800.5> 370 38<102.5 152.5 91.5 161>
VStem: -12 37<154.5 247.5 154.5 258.5> 239 38<-385 62 62 62 197 204 204 249.5 340 388> 846 38<74 78 78 351 351 351>
LayerCount: 2
Fore
SplineSet
902 -5 m 0xb7
 846 -5 846 52 846 74 c 2
 846 351 l 1
 831 340 813 331 788 331 c 0
 771 331 754 341 743 356 c 1
 735 339 l 2
 722 302 614 44 604 17 c 0
 600 11 591 8 585 11 c 0
 577 14 575 21 578 29 c 0
 596 71 695 314 714 367 c 2
 727 398 l 2
 729 407 738 412 746 410 c 0
 755 409 762 403 763 394 c 0
 767 372 779 369 788 369 c 0
 810 369 823 380 841 397 c 2
 853 408 l 2
 859 413 866 414 873 411 c 0
 880 409 884 402 884 393 c 2
 884 78 l 2
 884 29 896 29 905 29 c 0
 945 29 981 98 1040 243 c 0
 1044 250 1051 253 1058 251 c 0
 1066 247 1069 239 1066 233 c 0
 997 66 968 -5 902 -5 c 0xb7
258 -404 m 0
 247 -404 239 -396 239 -385 c 2
 239 62 l 1
 211 18 173 -6 132 -6 c 0
 51 -6 -12 84 -12 201 c 0
 -12 316 51 408 132 408 c 0
 173 408 212 383 239 340 c 1
 239 388 l 2
 239 398 247 407 258 407 c 0
 269 407 277 398 277 388 c 2xcf
 277 -385 l 2
 277 -395 269 -404 258 -404 c 0
132 32 m 0
 190 32 239 107 239 197 c 2
 239 204 l 2
 239 295 190 370 132 370 c 0
 73 370 25 294 25 201 c 0
 25 108 73 32 132 32 c 0
EndSplineSet
EndChar

StartChar: summation_rdebut
Encoding: 65546 -1 135
Width: 1040
GlyphClass: 2
Flags: MW
HStem: -8 35<73.5 122 73.5 128> -6 34<893.5 918 893.5 928> 330 38<776.5 792 776.5 793.5>
VStem: 185 38<96.5 124 82.5 136> 839 38<73 77 77 350 350 350>
LayerCount: 2
Fore
SplineSet
1051 250 m 0xb8
 1059 246 1062 238 1059 232 c 0
 990 65 961 -6 895 -6 c 0
 839 -6 839 51 839 73 c 2
 839 350 l 1
 824 339 806 330 781 330 c 0
 764 330 747 340 736 355 c 1
 728 338 l 2
 715 301 607 43 597 16 c 0
 593 10 584 7 578 10 c 0
 570 13 568 20 571 28 c 0
 589 70 688 313 707 366 c 2
 720 397 l 2
 722 406 731 411 739 409 c 0
 748 408 755 402 756 393 c 0
 760 371 772 368 781 368 c 0
 803 368 816 379 834 396 c 2
 846 407 l 2
 852 412 859 413 866 410 c 0
 873 408 877 401 877 392 c 2
 877 77 l 2
 877 28 889 28 898 28 c 0x78
 938 28 974 97 1033 242 c 0
 1037 249 1044 252 1051 250 c 0xb8
205 410 m 0
 215 411 222 403 222 394 c 2
 223 124 l 2
 223 41 159 -8 97 -8 c 0
 38 -8 -5 23 -27 71 c 1
 -48 48 -69 28 -87 18 c 0
 -98 12 -105 22 -106 32 c 0
 -106 41 -102 46 -94 52 c 0
 -44 90 7 158 49 214 c 2
 184 393 l 2
 191 403 197 409 205 410 c 0
185 136 m 2
 186 339 l 1
 69 188 l 2
 52 166 27 134 1 103 c 0
 2 102 2 102 2 101 c 0
 20 47 50 27 97 27 c 0
 147 27 185 57 185 136 c 2
EndSplineSet
EndChar

StartChar: quotedbl_rdebut_quotedbl
Encoding: 65547 -1 136
Width: 742
GlyphClass: 2
Flags: MW
HStem: -6 34<471.5 496 471.5 506> 330 38<354.5 370 354.5 371.5>
VStem: 37 34 110 30 417 38<73 77 77 350 350 350> 605 34 678 30
LayerCount: 2
Fore
SplineSet
50 653 m 0
 41 653 37 662 37 667 c 2
 32 775 l 2
 33 787 39 794 53 794 c 0
 66 794 71 783 71 774 c 2
 65 667 l 2
 64 658 60 653 50 653 c 0
123 653 m 0
 114 653 110 662 110 667 c 2
 105 775 l 2
 106 787 112 794 125 794 c 0
 139 794 144 783 143 774 c 2
 137 667 l 2
 136 658 132 653 123 653 c 0
618 653 m 0
 609 653 605 662 605 667 c 2
 600 775 l 2
 601 787 607 794 621 794 c 0
 634 794 639 783 639 774 c 2
 633 667 l 2
 632 658 628 653 618 653 c 0
691 653 m 0
 682 653 678 662 678 667 c 2
 673 775 l 2
 674 787 680 794 693 794 c 0
 707 794 712 783 711 774 c 2
 705 667 l 2
 704 658 700 653 691 653 c 0
473 -6 m 0
 417 -6 417 51 417 73 c 2
 417 350 l 1
 402 339 384 330 359 330 c 0
 342 330 325 340 314 355 c 1
 306 338 l 2
 293 301 185 43 175 16 c 0
 171 10 162 7 156 10 c 0
 148 13 146 20 149 28 c 0
 167 70 266 313 285 366 c 2
 298 397 l 2
 300 406 309 411 317 409 c 0
 326 408 333 402 334 393 c 0
 338 371 350 368 359 368 c 0
 381 368 394 379 412 396 c 2
 424 407 l 2
 430 412 437 413 444 410 c 0
 451 408 455 401 455 392 c 2
 455 77 l 2
 455 28 467 28 476 28 c 0
 516 28 552 97 611 242 c 0
 615 249 622 252 629 250 c 0
 637 246 640 238 637 232 c 0
 568 65 539 -6 473 -6 c 0
EndSplineSet
EndChar

StartChar: guillemotleft_rdebut_guillemotright
Encoding: 65548 -1 137
Width: 1037
GlyphClass: 2
Flags: MW
HStem: -6 34<592.5 617 592.5 627> 264 27<-10 -10> 330 38<475.5 491 475.5 492.5>
VStem: 538 38<73 77 77 350 350 350>
LayerCount: 2
Fore
SplineSet
124 135 m 0
 116 129 110 130 104 136 c 2
 -10 264 l 1
 -10 264 -11 265 -11 266 c 0
 -14 269 -16 273 -16 277 c 2
 -16 278 l 2
 -16 282 -14 286 -11 289 c 0
 -11 290 -10 291 -10 291 c 1
 104 419 l 2
 110 426 116 427 124 421 c 0
 131 414 129 404 126 401 c 2
 29 277 l 1
 126 155 l 2
 129 152 131 142 124 135 c 0
225 135 m 0
 217 129 211 130 206 136 c 2
 91 264 l 1
 91 264 91 265 90 266 c 0
 87 269 85 273 85 277 c 2
 85 278 l 2
 85 282 87 286 90 289 c 0
 91 290 91 291 91 291 c 1
 206 419 l 2
 211 426 217 427 225 421 c 0
 233 414 230 404 227 401 c 2
 131 277 l 1
 227 155 l 2
 230 152 233 142 225 135 c 0
804 135 m 0
 796 142 799 152 802 155 c 2
 898 277 l 1
 802 401 l 2
 799 404 796 414 804 421 c 0
 812 427 818 426 823 419 c 2
 938 291 l 1
 938 291 938 290 939 289 c 0
 942 286 944 282 944 278 c 2
 944 277 l 2
 944 273 942 269 939 266 c 0
 938 265 938 264 938 264 c 1
 823 136 l 2
 818 130 812 129 804 135 c 0
905 135 m 0
 898 142 900 152 903 155 c 2
 1000 277 l 1
 903 401 l 2
 900 404 898 414 905 421 c 0
 913 427 919 426 925 419 c 2
 1039 291 l 1
 1039 291 1040 290 1040 289 c 0
 1043 286 1045 282 1045 278 c 2
 1045 277 l 2
 1045 273 1043 269 1040 266 c 0
 1040 265 1039 264 1039 264 c 1
 925 136 l 2
 919 130 913 129 905 135 c 0
594 -6 m 0
 538 -6 538 51 538 73 c 2
 538 350 l 1
 523 339 505 330 480 330 c 0
 463 330 446 340 435 355 c 1
 427 338 l 2
 414 301 306 43 296 16 c 0
 292 10 283 7 277 10 c 0
 269 13 267 20 270 28 c 0
 288 70 387 313 406 366 c 2
 419 397 l 2
 421 406 430 411 438 409 c 0
 447 408 454 402 455 393 c 0
 459 371 471 368 480 368 c 0
 502 368 515 379 533 396 c 2
 545 407 l 2
 551 412 558 413 565 410 c 0
 572 408 576 401 576 392 c 2
 576 77 l 2
 576 28 588 28 597 28 c 0
 637 28 673 97 732 242 c 0
 736 249 743 252 750 250 c 0
 758 246 761 238 758 232 c 0
 689 65 660 -6 594 -6 c 0
EndSplineSet
EndChar

StartChar: guillemotleft_sisol_guillemotright
Encoding: 65549 -1 138
Width: 957
GlyphClass: 3
Flags: MW
HStem: -8 35<444.5 493 444.5 499> 264 27<-10 -10>
VStem: 556 38<96.5 124 82.5 136>
LayerCount: 2
Fore
SplineSet
29 277 m 1
 126 155 l 2
 129 152 131 142 124 135 c 0
 116 129 110 130 104 136 c 2
 -10 264 l 1
 -10 264 -11 265 -11 266 c 0
 -14 269 -16 273 -16 277 c 2
 -16 278 l 2
 -16 282 -14 286 -11 289 c 0
 -11 290 -10 291 -10 291 c 1
 104 419 l 2
 110 426 116 427 124 421 c 0
 131 414 129 404 126 401 c 2
 29 277 l 1
225 421 m 0
 233 414 230 404 227 401 c 2
 131 277 l 1
 227 155 l 2
 230 152 233 142 225 135 c 0
 217 129 211 130 206 136 c 2
 91 264 l 1
 91 264 91 265 90 266 c 0
 87 269 85 273 85 277 c 2
 85 278 l 2
 85 282 87 286 90 289 c 0
 91 290 91 291 91 291 c 1
 206 419 l 2
 211 426 217 427 225 421 c 0
863 266 m 0
 862 265 862 264 862 264 c 1
 747 136 l 2
 742 130 736 129 728 135 c 0
 720 142 723 152 726 155 c 2
 822 277 l 1
 726 401 l 2
 723 404 720 414 728 421 c 0
 736 427 742 426 747 419 c 2
 862 291 l 1
 862 291 862 290 863 289 c 0
 866 286 868 282 868 278 c 2
 868 277 l 2
 868 273 866 269 863 266 c 0
964 289 m 0
 967 286 969 282 969 278 c 2
 969 277 l 2
 969 273 967 269 964 266 c 0
 964 265 963 264 963 264 c 1
 849 136 l 2
 843 130 837 129 829 135 c 0
 822 142 824 152 827 155 c 2
 924 277 l 1
 827 401 l 2
 824 404 822 414 829 421 c 0
 837 427 843 426 849 419 c 2
 963 291 l 1
 963 291 964 290 964 289 c 0
576 410 m 0
 586 411 593 403 593 394 c 2
 594 124 l 2
 594 41 530 -8 468 -8 c 0
 409 -8 366 23 344 71 c 1
 323 48 302 28 284 18 c 0
 273 12 266 22 265 32 c 0
 265 41 269 46 277 52 c 0
 327 90 378 158 420 214 c 2
 555 393 l 2
 562 403 568 409 576 410 c 0
556 136 m 2
 557 339 l 1
 440 188 l 2
 423 166 398 134 372 103 c 0
 373 102 373 102 373 101 c 0
 391 47 421 27 468 27 c 0
 518 27 556 57 556 136 c 2
EndSplineSet
Ligature2: "'liga' Standard Ligatures lookup 73 subtable" guillemotleft s guillemotright
EndChar

StartChar: A.001
Encoding: 65550 -1 139
Width: 1119
GlyphClass: 3
Flags: MW
HStem: -10 38<73.5 92 73.5 97> -4 34<929 929> 123 35<660 660> 378.33 35.55
VStem: 623 37<9 122 122 122 158 727 727 727> 766 35<181 185 185 185> 976.5 35.75
LayerCount: 2
Fore
SplineSet
1133 250 m 0x7e
 1139 249 1143 243 1140 233 c 0
 1072 75 1016 -5 929 -4 c 0x7e
 840 -3 785 49 770 135 c 1
 736 127 699 122 660 123 c 1
 660 9 l 2
 660 -1 652 -10 643 -10 c 0
 632 -10 623 -2 623 9 c 2
 623 122 l 1
 526 126 412 160 291 231 c 1
 212 116 152 26 152 26 c 2
 137 4 110 -10 84 -10 c 0
 46 -10 13 17 4 52 c 0
 1 62 7 73 17 76 c 0
 27 79 38 73 41 63 c 0
 45 42 63 28 84 28 c 0
 100 28 111 35 119 47 c 2xbe
 626 802 l 2
 629 809 639 812 648 810 c 0
 655 808 660 801 660 791 c 2
 660 158 l 1
 697 157 733 161 766 170 c 1
 766 185 l 2
 768 245 800 322 851 374 c 0
 905 429 962 419 990 393 c 0
 1015 372 1024 331 991 280 c 0
 953 225 888 174 805 145 c 1
 823 47 890 30 929 30 c 0
 999 30 1057 105 1114 243 c 0
 1118 250 1127 253 1133 250 c 0x7e
623 158 m 1
 623 727 l 1
 593 684 372 354 311 265 c 1
 406 208 524 162 623 158 c 1
801 187 m 2
 801 181 l 1
 871 206 927 250 959 295 c 0
 983 332 979 356 967 367 c 0
 949 384 909 386 871 345 c 0
 826 296 804 230 801 187 c 2
EndSplineSet
Substitution2: "Single Substitution lookup 87 subtable" A.002
Ligature2: "'liga' Standard Ligatures lookup 63 subtable" A e
EndChar

StartChar: C.001
Encoding: 65551 -1 140
Width: 439
GlyphClass: 2
Flags: MW
HStem: -17 37<177 257 177 261.5> 779 40<174 257.5>
VStem: -15 39<298 503 298 514>
LayerCount: 2
Fore
SplineSet
240 20 m 0
 274 20 304 28 338 46 c 0
 345 50 354 54 361 46 c 0
 368 38 366 27 359 22 c 0
 320 -5 283 -17 240 -17 c 0
 94 -17 -15 175 -15 400 c 0
 -15 628 98 819 230 819 c 0
 300 819 366 770 412 686 c 0
 417 676 415 665 404 660 c 0
 393 653 382 661 379 668 c 0
 340 736 285 779 230 779 c 0
 118 779 24 606 24 400 c 0
 24 196 114 20 240 20 c 0
EndSplineSet
EndChar

StartChar: D.001
Encoding: 65552 -1 141
Width: 729
GlyphClass: 2
Flags: MW
HStem: -7 35 -6 39<314 354.5> 71 36 767 39<279 300 285 300>
VStem: -14 32 210 39<213 760 760 760> 595 40<361 500.5>
LayerCount: 2
Fore
SplineSet
593 198 m 1x7e
 601 211 610 228 619 249 c 1
 627 202 l 1
 600 148 557 117 537 108 c 1
 476 35 394 -6 315 -6 c 0x7e
 313 -6 240 -4 181 26 c 1
 181 26 178 27 176 29 c 0
 151 6 116 -6 88 -7 c 0
 62 -8 -5 -4 -14 43 c 0xbe
 -18 59 -14 74 -5 84 c 0
 13 105 45 110 76 107 c 0
 112 104 137 91 168 76 c 1
 188 99 210 141 210 213 c 2
 210 760 l 1
 173 754 141 744 113 729 c 0
 104 725 90 729 87 739 c 0
 83 750 86 761 96 765 c 0
 151 792 215 806 285 806 c 2
 300 806 l 2
 484 806 635 623 635 399 c 0
 635 323 619 255 593 198 c 1x7e
315 33 m 0
 450 33 595 173 595 399 c 0
 595 602 463 767 300 767 c 2
 285 767 l 2
 273 767 260 767 249 766 c 1
 249 213 l 2
 249 152 233 98 203 58 c 1
 252 35 313 33 315 33 c 0
86 28 m 0xbe
 104 28 123 35 140 47 c 1
 114 62 97 68 71 71 c 0
 45 74 23 69 19 62 c 0
 18 60 16 55 18 51 c 0
 21 34 55 28 86 28 c 0xbe
EndSplineSet
EndChar

StartChar: E.001
Encoding: 65553 -1 142
Width: 422
GlyphClass: 2
Flags: MW
HStem: -17 37<164.5 239 162.5 243.5> 381 40<197 261 197 261> 780 39<155.5 251.5>
VStem: -15 38<162 249.5> -12 39<551.5 639.5 546.5 648.5>
LayerCount: 2
Fore
SplineSet
222 -17 m 0xf0
 107 -17 -15 68 -15 207 c 0xf0
 -15 292 35 365 112 400 c 1
 37 435 -12 510 -12 593 c 0
 -12 704 72 819 215 819 c 0
 305 819 381 771 419 692 c 0
 426 681 423 669 412 665 c 0
 404 660 389 661 383 675 c 0
 352 740 288 780 215 780 c 0
 96 780 27 686 27 593 c 0xe8
 27 500 102 422 197 421 c 2
 261 421 l 2
 274 421 280 411 280 400 c 0
 280 389 273 381 261 381 c 2
 197 381 l 1
 99 376 23 300 23 207 c 0
 23 117 103 20 222 20 c 0
 256 20 286 28 320 46 c 0
 327 50 336 54 343 46 c 0
 350 38 348 27 341 22 c 0
 302 -5 265 -17 222 -17 c 0xf0
EndSplineSet
EndChar

StartChar: G.001
Encoding: 65554 -1 143
Width: 520
GlyphClass: 2
Flags: MW
HStem: -407 40 -6 37<164 241 159.5 248.5> 768 40<222 222>
VStem: -19 40<286 514 286 514.5> 244 36<4.29497e+09 4.29497e+09> 380 38<-56 -37 -37 -37 43 139 139 139 329 399>
LayerCount: 2
Fore
SplineSet
418 43 m 1
 430 53 442 64 456 75 c 0
 467 84 476 86 481 77 c 0
 486 68 480 58 471 49 c 0
 446 26 434 17 418 3 c 1
 418 -89 l 2
 418 -163 414 -223 407 -269 c 0
 395 -350 371 -411 307 -407 c 0
 261 -404 243 -362 244 -299 c 0
 246 -187 296 -73 380 11 c 1
 380 139 l 1
 377 122 365 97 356 81 c 0
 320 23 275 -6 222 -6 c 0
 106 -6 -19 100 -19 399 c 0
 -19 630 84 807 222 808 c 0
 326 808 389 758 421 670 c 0
 426 660 422 651 410 646 c 0
 396 641 388 648 385 657 c 0
 356 735 294 770 222 768 c 0
 125 767 21 629 21 399 c 0
 21 173 97 31 222 31 c 0
 260 31 295 56 322 101 c 0
 354 153 380 208 380 329 c 2
 380 399 l 2
 380 411 388 419 399 419 c 0
 410 419 418 409 418 399 c 2
 418 43 l 1
311 -367 m 0
 351 -371 360 -316 368 -258 c 0
 376 -203 380 -132 380 -56 c 2
 380 -37 l 1
 313 -113 284 -206 280 -300 c 0
 279 -335 286 -365 311 -367 c 0
EndSplineSet
EndChar

StartChar: H.001
Encoding: 65555 -1 144
Width: 557
GlyphClass: 2
Flags: MW
HStem: -5 39.88 -1 33<419 430 416.5 430.5> 308 180<238 238 238 276> 766 39<54 130 66 110>
VStem: -16 39<718 735 717.5 745.5> -13 38 110.5 38.5 238 38<308 361 361 361 441 488> 364 39<81 482 482 482> 490 37
LayerCount: 2
Fore
SplineSet
466 578 m 0xb7c0
 449 561 411 529 403 521 c 1
 403 81 l 2
 403 47 409 32 424 32 c 0
 436 32 444 38 455 46 c 0
 461 51 471 54 478 46 c 0
 485 38 482 29 476 23 c 0
 459 8 442 -1 419 -1 c 0
 362 0 364 56 364 81 c 2x77c0
 364 482 l 1
 276 397 l 1
 276 308 l 2
 276 297 267 289 256 289 c 0
 245 289 238 297 238 308 c 2
 238 361 l 1
 149 275 l 1
 149 102 l 2
 149 59 127 -5 62 -5 c 0
 -1 -4 -15 49 -13 95 c 0
 -11 140 11 183 48 223 c 0xb7c0
 61 235 99 269 111 281 c 1
 110 766 l 1
 66 766 l 2
 42 766 23 747 23 723 c 0
 23 712 15 705 3 705 c 0xbbc0
 -8 705 -16 713 -16 723 c 0
 -16 768 21 805 66 805 c 2
 130 805 l 2
 140 805 149 797 149 786 c 2
 149 319 l 1
 238 404 l 1
 238 488 l 2
 238 498 245 508 256 508 c 0
 267 508 276 499 276 488 c 2
 276 441 l 1
 364 525 l 1
 365 700 l 2
 365 744 379 773 409 792 c 0
 429 806 453 810 478 800 c 0
 500 792 515 774 522 750 c 0
 528 732 528 715 527 705 c 0
 524 660 505 619 466 578 c 0xb7c0
403 698 m 2
 403 561 l 1
 433 588 447 606 455 615 c 0
 476 642 488 675 490 710 c 0
 491 728 484 756 465 763 c 0
 452 769 440 765 431 760 c 0
 412 748 403 727 403 698 c 2
110 103 m 2
 111 240 l 1
 82 214 65 196 58 186 c 0
 36 158 26 125 25 92 c 0
 23 72 31 43 49 37 c 0
 61 33 72 34 83 41 c 0
 101 53 110 73 110 103 c 2
EndSplineSet
EndChar

StartChar: I.001
Encoding: 65556 -1 145
Width: 431
GlyphClass: 2
Flags: MW
HStem: -18 39<146.5 239.5> 765 41<305.5 384 317 364>
VStem: -16 37<144.5 197 144.5 197> 235 38<717.5 735 717.5 745.5> 364 38<194 765 765 765>
LayerCount: 2
Fore
SplineSet
422 235 m 1
 447 222 l 1
 429 180 410 144 401 129 c 0
 398 125 395 123 391 123 c 0
 362 42 285 -18 194 -18 c 0
 78 -18 -16 77 -16 191 c 0
 -16 203 -8 211 3 211 c 0
 13 211 21 203 21 191 c 0
 21 98 99 21 194 21 c 0
 287 21 364 98 364 191 c 2
 364 765 l 1
 317 765 l 2
 294 765 273 747 273 723 c 0
 273 712 265 703 254 703 c 0
 243 703 235 712 235 723 c 0
 235 768 272 806 317 806 c 2
 384 806 l 2
 393 806 402 796 402 785 c 2
 402 194 l 1
 409 207 416 221 422 235 c 1
EndSplineSet
EndChar

StartChar: J.001
Encoding: 65557 -1 146
Width: 266
GlyphClass: 2
Flags: MW
HStem: -407 40 765 40<65.5 143 78 123>
VStem: -10 36<4.29497e+09 4.29497e+09> -4 39<718 734.5 718 745.5> 123 39<9 791 765 791> 126 38<-56 -37 -37 -37>
LayerCount: 2
Fore
SplineSet
123 9 m 1xe8
 123 765 l 1
 78 765 l 2
 53 765 35 746 35 723 c 0
 35 713 26 703 15 703 c 0xd8
 5 703 -4 713 -4 723 c 0
 -4 768 32 805 78 805 c 2
 143 805 l 2
 154 805 162 796 162 786 c 2
 164 43 l 1
 176 53 188 64 202 75 c 0
 213 84 222 86 227 77 c 0
 232 68 226 58 217 49 c 0
 192 26 180 17 164 3 c 1
 164 -89 l 2
 164 -163 160 -223 153 -269 c 0
 141 -350 117 -411 53 -407 c 0
 7 -404 -11 -362 -10 -299 c 0
 -8 -187 42 -75 123 9 c 1xe8
57 -367 m 0xe4
 97 -371 106 -316 114 -258 c 0
 122 -203 126 -132 126 -56 c 2
 126 -37 l 1
 59 -113 30 -206 26 -300 c 0
 25 -335 32 -365 57 -367 c 0xe4
EndSplineSet
EndChar

StartChar: K.001
Encoding: 65558 -1 147
Width: 595
GlyphClass: 2
Flags: MW
HStem: -6 34<458 465 449.5 469.5> -5 38<59 82.5 59 93> 764 38<56 132 68 112>
VStem: -15 38<715 732 714.5 742.5> -11 38<63.5 81.5 63.5 81.5> 112 39<76 355 435 764 764 764>
LayerCount: 2
Fore
SplineSet
458 -6 m 0xb4
 432 -7 412 2 396 22 c 2xac
 151 355 l 1
 151 76 l 2
 151 30 115 -5 71 -5 c 0
 25 -5 -11 30 -11 76 c 0
 -11 87 -3 95 8 95 c 0
 18 95 27 87 27 76 c 0
 27 51 47 33 71 33 c 0
 94 33 112 52 112 76 c 2x6c
 112 764 l 1
 68 764 l 2
 44 764 23 744 23 720 c 0
 23 709 16 702 4 702 c 0
 -6 702 -15 710 -15 720 c 0
 -15 765 22 802 68 802 c 2
 132 802 l 2
 138 802 142 800 146 798 c 0
 150 793 151 788 151 783 c 2
 151 435 l 1
 502 796 l 2
 509 804 521 805 529 798 c 0
 534 793 535 789 535 783 c 0
 535 777 534 773 529 769 c 2
 168 397 l 1
 424 49 l 2
 431 40 441 28 458 28 c 0
 472 28 482 37 495 46 c 0
 501 51 511 54 518 46 c 0
 525 38 522 29 516 23 c 0
 499 5 481 -6 458 -6 c 0xb4
EndSplineSet
EndChar

StartChar: L.001
Encoding: 65559 -1 148
Width: 512
GlyphClass: 2
Flags: MW
HStem: -8 35 -7 35 69 36 776 37<297.5 333.5 295 334>
VStem: -12 32 51.25 24.75 222 38 360 35<684 720 681 723.5>
LayerCount: 2
Fore
SplineSet
365 -8 m 0xbf
 340 -8 320 -6 278 10 c 0xbf
 257 18 224 31 198 42 c 1
 156 0 103 -7 82 -7 c 0
 7 -7 -7 16 -12 35 c 0x7f
 -15 49 -12 61 -4 73 c 0
 10 91 38 103 77 105 c 0
 109 107 143 101 186 87 c 1
 210 121 223 171 223 231 c 2
 223 396 l 1
 189 351 87 220 76 204 c 0
 73 198 62 197 56 202 c 0
 50 206 50 215 54 221 c 0
 65 235 208 426 223 446 c 1
 222 660 l 2
 222 787 274 813 316 813 c 0
 351 813 376 790 386 767 c 0
 391 749 395 730 395 710 c 0
 395 652 371 587 325 526 c 2
 325 526 287 478 261 444 c 1
 261 231 l 2
 261 165 248 113 223 72 c 1
 223 72 274 50 297 42 c 0
 331 30 349 26 369 27 c 0
 385 28 396 37 411 46 c 0
 417 51 427 54 434 46 c 0
 441 38 438 29 432 23 c 0
 414 4 393 -7 365 -8 c 0xbf
260 495 m 1
 284 527 308 561 309 561 c 0
 341 605 360 660 360 708 c 0
 360 739 352 776 316 776 c 0
 279 776 260 737 260 657 c 2
 260 495 l 1
78 28 m 0x7f
 108 29 136 39 156 56 c 1
 131 65 105 70 74 69 c 0
 43 68 20 56 20 44 c 0
 20 34 37 26 78 28 c 0x7f
EndSplineSet
EndChar

StartChar: M.001
Encoding: 65560 -1 149
Width: 819
GlyphClass: 2
Flags: MW
HStem: -7 39<53.5 77 53.5 88.5> -1 33<683 694>
VStem: -17 39<62 79> 108 38<74 671> 627 40<83 668 668 668>
LayerCount: 2
Fore
SplineSet
627 83 m 2x58
 627 668 l 1
 570 494 408 5 408 5 c 2
 405 -2 398 -7 390 -7 c 0
 380 -7 373 -1 371 7 c 0
 369 11 204 500 146 671 c 1
 146 74 l 2
 146 29 111 -7 66 -7 c 0
 19 -7 -17 30 -17 74 c 0
 -17 84 -8 93 2 93 c 0
 13 93 22 85 22 74 c 0
 22 50 41 32 66 32 c 0
 88 32 108 50 108 74 c 2
 108 786 l 2
 108 796 115 804 124 805 c 0
 133 807 143 802 146 793 c 0
 148 786 347 196 390 71 c 1
 432 196 626 785 628 792 c 0
 632 801 641 806 650 805 c 0
 660 803 667 796 667 785 c 2
 667 81 l 2
 667 47 673 32 688 32 c 0
 700 32 708 38 719 46 c 0
 725 51 735 54 742 46 c 0xb8
 749 38 746 29 740 23 c 0
 723 8 706 -1 683 -1 c 0
 626 0 627 58 627 83 c 2x58
EndSplineSet
EndChar

StartChar: O.001
Encoding: 65561 -1 150
Width: 811
GlyphClass: 3
Flags: MW
HStem: -17 38<156 239.5> -4 34<631 631> 379 35.59 780 39<156 255.5>
VStem: -15 38<298 504.5 298 516.5> 389 39<356.5 504.5> 498 35 654 36.87
LayerCount: 2
Fore
SplineSet
825 250 m 0xbf
 831 249 835 243 832 233 c 0
 764 75 724 -5 631 -4 c 0x7f
 544 -2 503 55 498 142 c 1
 461 131 419 126 374 128 c 1
 333 39 273 -17 206 -17 c 0xbf
 83 -17 -15 170 -15 401 c 0
 -15 632 83 819 206 819 c 0
 328 819 428 632 428 401 c 0
 428 312 413 229 388 162 c 1
 431 162 467 167 497 176 c 1
 498 209 503 241 511 271 c 0
 540 372 588 430 653 411 c 0
 670 406 683 392 688 373 c 0
 693 356 697 317 656 256 c 0
 628 214 586 178 533 155 c 1
 538 79 568 30 631 30 c 0x7f
 701 30 750 105 807 243 c 0
 811 250 819 253 825 250 c 0xbf
206 21 m 0
 305 21 389 195 389 401 c 0
 389 608 305 780 206 780 c 0
 106 780 23 608 23 401 c 0
 23 195 106 21 206 21 c 0
545 262 m 0
 539 238 534 214 532 190 c 1
 575 211 605 242 629 279 c 0
 648 309 661 340 654 363 c 0
 651 375 644 379 630 379 c 0
 591 379 558 314 545 262 c 0
EndSplineSet
Substitution2: "Single Substitution lookup 88 subtable" O.002
Ligature2: "'liga' Standard Ligatures lookup 65 subtable" O e
EndChar

StartChar: OE.001
Encoding: 65562 -1 151
Width: 812
GlyphClass: 2
Flags: MW
HStem: -17 37<564 629> 381 40<589 654 589 654> 781 39<547.5 644>
VStem: -17 38<297.5 505 297.5 517.5> 384 30 391 35
LayerCount: 2
Fore
SplineSet
612 -17 m 0xf4
 516 -17 413 45 384 148 c 1
 344 47 279 -19 206 -19 c 0
 83 -19 -17 169 -17 401 c 0
 -17 634 83 821 206 821 c 0
 280 821 346 753 387 649 c 1
 409 740 487 820 607 820 c 0
 697 820 773 772 812 692 c 0
 817 681 813 670 804 666 c 0
 795 660 782 661 776 676 c 0
 744 741 681 781 607 781 c 0
 488 781 417 685 417 593 c 0
 417 499 494 421 589 421 c 2
 654 421 l 2
 666 421 673 409 673 401 c 0
 673 390 665 381 654 381 c 2
 589 381 l 1
 490 376 414 300 414 207 c 0xf8
 414 118 493 20 612 20 c 0
 646 20 676 28 710 46 c 0
 717 50 726 54 733 46 c 0
 740 38 738 27 731 22 c 0
 692 -5 655 -17 612 -17 c 0xf4
206 20 m 0
 307 20 391 194 391 401 c 0
 391 609 307 783 206 783 c 0
 106 783 21 609 21 401 c 0
 21 194 106 20 206 20 c 0
426 344 m 1
 447 368 472 388 503 401 c 1
 472 413 447 434 426 460 c 1
 428 440 428 421 428 401 c 0
 428 382 428 363 426 344 c 1
EndSplineSet
EndChar

StartChar: Q.001
Encoding: 65563 -1 152
Width: 545
GlyphClass: 2
Flags: MW
HStem: -18 39<194 215.5 194 221> -11 33<395 404 395 404.5> 61.38 37.62 781 37<154.5 254.5>
VStem: -18 39<330.5 504 330.5 516> 388 38<330.5 504>
LayerCount: 2
Fore
SplineSet
390 -11 m 0x7c
 358 -11 326 9 300 23 c 1
 270 -3 237 -18 205 -18 c 0xbc
 82 -18 -18 169 -18 401 c 0
 -18 631 82 818 205 818 c 0
 326 818 426 631 426 401 c 0
 426 254 385 125 325 49 c 1
 354 33 370 23 395 22 c 0
 413 22 426 31 441 43 c 0
 447 48 457 51 464 43 c 0
 471 35 469 25 462 20 c 0
 440 2 419 -11 390 -11 c 0x7c
115 68 m 1
 130 79 165 102 211 99 c 0
 242 95 268 83 292 69 c 1
 349 135 388 260 388 401 c 0
 388 607 304 781 205 781 c 0
 104 781 21 607 21 401 c 0
 21 260 59 135 115 68 c 1
205 21 m 0
 226 21 246 29 266 43 c 1
 221 68 180 67 141 43 c 1
 161 29 183 21 205 21 c 0
EndSplineSet
EndChar

StartChar: R.001
Encoding: 65564 -1 153
Width: 604
GlyphClass: 2
Flags: MW
HStem: -6 34<461 473 461 476.5> -6 38<62.5 84 62.5 93.5> 384 39<187 287 187 187> 768 39<251 282 271 281>
VStem: 115 40<77 363 423 749 749 749> 488 40<570.5 646>
LayerCount: 2
Fore
SplineSet
466 28 m 0xbc
 480 28 491 36 504 45 c 0
 510 50 519 54 526 46 c 0xbc
 533 38 530 27 524 22 c 0
 505 6 489 -6 464 -6 c 0
 440 -6 420 0 400 26 c 2
 155 363 l 1
 155 60 l 2
 155 30 115 -6 72 -6 c 0
 36 -6 3 20 -7 56 c 0
 -9 61 -8 75 5 79 c 0
 17 84 27 74 31 65 c 0
 36 47 53 32 72 32 c 0
 96 32 115 53 115 77 c 2x7c
 115 749 l 1
 78 740 38 726 12 713 c 0
 2 708 -9 711 -14 721 c 0
 -18 732 -14 743 -4 747 c 0
 77 785 174 807 271 807 c 2
 282 807 l 2
 431 806 528 721 528 593 c 0
 528 539 507 490 470 452 c 0
 424 407 361 384 287 384 c 2
 187 384 l 1
 431 50 l 2
 447 32 456 28 466 28 c 0xbc
155 423 m 1
 287 423 l 2
 351 423 405 442 442 480 c 0
 473 509 488 548 488 593 c 0
 488 699 407 767 281 768 c 2
 270 768 l 2
 232 768 193 764 155 758 c 1
 155 423 l 1
EndSplineSet
EndChar

StartChar: U.001
Encoding: 65565 -1 154
Width: 689
GlyphClass: 2
Flags: MW
HStem: -7 38<273.5 357> -1 33<552 563 549.5 563.5> 765 39<54 77.5>
VStem: -17 38<716 733 716 744> 109 38<206 721> 497 39<81 85 85 85 206 786>
LayerCount: 2
Fore
SplineSet
497 81 m 2xac
 497 85 l 1xac
 458 27 392 -7 322 -7 c 0
 204 -7 109 88 109 206 c 2
 109 721 l 2
 109 745 89 765 66 765 c 0
 42 765 21 745 21 721 c 0
 21 711 13 703 2 703 c 0
 -8 703 -17 711 -17 721 c 0
 -17 767 20 804 66 804 c 0
 111 804 147 767 147 721 c 2
 147 206 l 2
 147 110 225 31 322 31 c 0xbc
 418 31 497 110 497 206 c 2
 497 786 l 2
 497 797 505 805 516 805 c 0
 528 805 536 797 536 786 c 2
 536 81 l 2
 536 47 542 32 557 32 c 0
 569 32 577 38 588 46 c 0
 594 51 604 54 611 46 c 0
 618 38 615 29 609 23 c 0
 592 8 575 -1 552 -1 c 0x6c
 495 0 497 56 497 81 c 2xac
EndSplineSet
EndChar

StartChar: X.001
Encoding: 65566 -1 155
Width: 653
GlyphClass: 2
Flags: MW
HStem: -12 37<447.5 478 447.5 482.5> -7 37<139 152 114.5 157> 766 40<140 140 455 455>
VStem: 278 38<306.5 486.5>
LayerCount: 2
Fore
SplineSet
461 -12 m 0xb0
 421 -12 387 3 361 29 c 0xb0
 331 60 311 105 297 167 c 1
 284 105 263 60 233 29 c 0
 206 6 175 -7 139 -7 c 0
 73 -6 -2 60 -17 204 c 0
 -17 215 -10 225 1 227 c 0
 13 227 22 218 22 208 c 0
 33 86 90 30 139 30 c 0
 165 30 187 40 206 58 c 0x70
 255 106 278 216 278 397 c 0
 278 576 254 692 206 739 c 0
 188 756 170 767 140 766 c 0
 95 764 47 694 22 586 c 0
 19 575 9 569 -1 571 c 0
 -12 574 -18 585 -15 595 c 0
 14 724 72 803 139 806 c 0
 180 806 208 790 233 767 c 0
 263 737 284 694 297 629 c 1
 311 694 331 737 361 767 c 0
 384 791 413 807 455 806 c 0
 521 802 579 724 611 595 c 0
 612 584 608 574 595 571 c 0
 584 568 572 577 571 587 c 0
 547 694 499 764 455 766 c 0
 427 767 408 758 388 739 c 0
 341 692 316 576 316 397 c 0
 316 216 340 106 388 58 c 0
 409 38 434 25 461 25 c 0
 495 25 522 31 551 46 c 0
 558 50 567 54 574 46 c 0
 581 38 579 27 572 22 c 0
 540 -2 504 -12 461 -12 c 0xb0
EndSplineSet
EndChar

StartChar: Y.001
Encoding: 65567 -1 156
Width: 639
GlyphClass: 2
Flags: MW
HStem: -407 40 -6 38<274.5 357> 766 37<55 78.5>
VStem: -15 37<716 734 716 744.5> 108 40<207 722> 363 36<4.29497e+09 4.29497e+09> 497 38<42 85 85 85 205 784 42 790>
LayerCount: 2
Fore
SplineSet
497 9 m 1
 497 85 l 1
 457 27 391 -6 323 -6 c 0
 206 -6 108 89 108 207 c 2
 108 722 l 2
 108 747 90 766 67 766 c 0
 43 766 22 746 22 722 c 0
 22 710 15 703 3 703 c 0
 -8 703 -15 710 -15 722 c 0
 -15 767 21 803 67 803 c 0
 112 803 148 767 148 722 c 2
 148 207 l 2
 148 110 226 32 323 32 c 0
 416 32 496 109 497 205 c 2
 497 784 l 2
 497 796 505 803 516 803 c 0
 527 803 535 794 535 784 c 2
 535 42 l 1
 547 52 561 64 575 75 c 0
 586 84 595 86 600 77 c 0
 605 68 599 58 590 49 c 0
 565 26 553 17 537 3 c 1
 537 -89 l 2
 537 -163 533 -223 526 -269 c 0
 514 -350 490 -411 426 -407 c 0
 380 -404 362 -362 363 -299 c 0
 365 -187 416 -75 497 9 c 1
430 -367 m 0
 470 -371 479 -316 487 -258 c 0
 495 -203 499 -132 499 -56 c 2
 499 -37 l 1
 432 -113 403 -206 399 -300 c 0
 398 -335 405 -365 430 -367 c 0
EndSplineSet
EndChar

StartChar: Z.001
Encoding: 65568 -1 157
Width: 497
GlyphClass: 2
Flags: MW
HStem: -5 38<1 316 35 307> 766 37<44 384 57 354>
VStem: -16 38<719 743.5 719 744.5>
LayerCount: 2
Fore
SplineSet
307 -5 m 2
 4 -5 l 2
 -2 -5 -8 -3 -13 4 c 0
 -17 10 -16 17 -13 23 c 0
 -10 30 311 677 354 766 c 1
 57 766 l 2
 31 766 22 763 22 724 c 0
 22 714 15 704 4 704 c 0
 -7 704 -16 713 -16 724 c 0
 -16 765 -7 803 57 803 c 2
 384 803 l 2
 391 803 397 800 401 795 c 0
 406 790 406 782 403 775 c 0
 399 768 79 122 35 33 c 1
 316 33 l 2
 369 33 384 37 399 47 c 0
 406 52 413 54 420 46 c 0
 427 38 426 28 419 23 c 0
 395 5 371 -5 307 -5 c 2
EndSplineSet
EndChar

StartChar: A.002
Encoding: 65569 -1 158
Width: 1100
GlyphClass: 2
Flags: MW
HStem: -10 38<73.5 92 73.5 97> -4 33<929 950 915.5 950.5> 123 35<660 660> 378.33 35.55
VStem: 623 37<9 122 122 122 158 727 727 727> 766 35<181 185 185 185> 976.5 35.75
LayerCount: 2
Fore
SplineSet
1022 46 m 0x7e
 1029 38 1026 28 1020 23 c 0
 996 8 972 -4 929 -4 c 0x7e
 843 -3 789 49 771 135 c 1
 736 127 699 122 660 123 c 1
 660 9 l 2
 660 -1 652 -10 643 -10 c 0
 632 -10 623 -2 623 9 c 2
 623 122 l 1
 526 126 412 160 291 231 c 1
 212 116 152 26 152 26 c 2
 137 4 110 -10 84 -10 c 0
 46 -10 13 17 4 52 c 0
 1 62 7 73 17 76 c 0
 27 79 38 73 41 63 c 0
 45 42 63 28 84 28 c 0
 100 28 111 35 119 47 c 2xbe
 626 802 l 2
 629 809 639 812 648 810 c 0
 655 808 660 801 660 791 c 2
 660 158 l 1
 697 157 733 161 766 170 c 1
 766 185 l 2
 768 245 800 322 851 374 c 0
 905 429 962 419 990 393 c 0
 1015 372 1024 331 991 280 c 0
 953 225 888 174 805 145 c 1
 829 46 897 29 934 29 c 0
 966 29 982 36 999 46 c 0
 1005 51 1015 54 1022 46 c 0x7e
623 158 m 1
 623 727 l 1
 593 684 372 354 311 265 c 1
 406 208 524 162 623 158 c 1
801 187 m 2
 801 181 l 1
 871 206 927 250 959 295 c 0
 983 332 979 356 967 367 c 0
 949 384 909 386 871 345 c 0
 826 296 804 230 801 187 c 2
EndSplineSet
EndChar

StartChar: O.002
Encoding: 65570 -1 159
Width: 803
GlyphClass: 2
Flags: MW
HStem: -17 38<156 239.5> -4 33<632 653 604 653.5> 379 35.59 780 39<156 255.5>
VStem: -15 38<298 504.5 298 516.5> 389 39<356.5 504.5> 498 35 654 36.87
LayerCount: 2
Fore
SplineSet
725 46 m 0x7f
 732 38 729 28 723 23 c 0
 699 8 675 -4 632 -4 c 0x7f
 544 -2 503 55 498 142 c 1
 461 131 419 126 374 128 c 1
 333 39 273 -17 206 -17 c 0xbf
 83 -17 -15 170 -15 401 c 0
 -15 632 83 819 206 819 c 0
 328 819 428 632 428 401 c 0
 428 312 413 229 388 162 c 1
 431 162 467 167 497 176 c 1
 498 209 503 241 511 271 c 0
 540 372 588 430 653 411 c 0
 670 406 683 392 688 373 c 0
 693 356 697 317 656 256 c 0
 628 214 586 178 533 155 c 1
 538 78 571 29 637 29 c 0
 669 29 685 36 702 46 c 0
 708 51 718 54 725 46 c 0x7f
206 21 m 0xbf
 305 21 389 195 389 401 c 0
 389 608 305 780 206 780 c 0
 106 780 23 608 23 401 c 0
 23 195 106 21 206 21 c 0xbf
545 262 m 0
 539 238 534 214 532 190 c 1
 575 211 605 242 629 279 c 0
 648 309 661 340 654 363 c 0
 651 375 644 379 630 379 c 0
 591 379 558 314 545 262 c 0
EndSplineSet
EndChar

StartChar: A.003
Encoding: 65571 -1 160
Width: 1082
GlyphClass: 3
Flags: MW
HStem: -10 38<73.5 92 73.5 97> -8 35<859.5 902> 123 36<660 660>
VStem: 623 37<9 122 122 122 159 727 727 727> 971 37
LayerCount: 2
Fore
SplineSet
1095 251 m 0x78
 1101 249 1105 241 1103 235 c 0
 1073 154 1024 86 985 45 c 1
 960 11 921 -8 883 -8 c 0
 816 -8 765 31 752 91 c 0
 750 100 756 108 767 111 c 0
 775 113 785 111 788 101 c 0
 804 46 836 27 883 27 c 0x78
 933 27 971 57 971 136 c 2
 972 339 l 1
 874 212 l 2
 820 142 735 122 660 123 c 1
 660 9 l 2
 660 -1 652 -10 643 -10 c 0
 632 -10 623 -2 623 9 c 2
 623 122 l 1
 526 126 412 160 291 231 c 1
 212 116 152 26 152 26 c 2
 137 4 110 -10 84 -10 c 0
 46 -10 13 17 4 52 c 0
 1 62 7 73 17 76 c 0
 27 79 38 73 41 63 c 0
 45 42 63 28 84 28 c 0
 100 28 111 35 119 47 c 2xb8
 626 802 l 2
 629 809 639 812 648 810 c 0
 655 808 660 801 660 791 c 2
 660 159 l 1
 720 158 798 165 854 239 c 2
 970 393 l 2
 977 403 983 409 991 410 c 0
 1001 411 1008 403 1008 394 c 2
 1009 124 l 1
 1009 122 l 1
 1034 156 1060 198 1078 245 c 0
 1081 251 1089 254 1095 251 c 0x78
623 158 m 1
 623 727 l 1
 593 684 372 354 311 265 c 1
 406 208 524 162 623 158 c 1
EndSplineSet
Substitution2: "Single Substitution lookup 87 subtable" A.007
Substitution2: "Single Substitution lookup 86 subtable" A.005
Substitution2: "Single Substitution lookup 85 subtable" A.004
Ligature2: "'liga' Standard Ligatures lookup 63 subtable" A s
EndChar

StartChar: I.003
Encoding: 65572 -1 161
Width: 719
GlyphClass: 3
Flags: MW
HStem: -18 39<146.5 219> -8 35<496.5 539> 765 41<305.5 384 317 364>
VStem: -16 37<144.5 197 144.5 197> 235 38<717.5 735 717.5 745.5> 364 38<191 765 765 765> 608 37
LayerCount: 2
Fore
SplineSet
732 251 m 0x7e
 738 249 742 241 740 235 c 0
 710 154 661 86 622 45 c 1
 597 11 558 -8 520 -8 c 0
 455 -8 405 28 390 85 c 1
 379 73 368 62 357 53 c 2x7e
 326 30 l 2
 290 0 244 -18 194 -18 c 0
 78 -18 -16 77 -16 191 c 0
 -16 203 -8 211 3 211 c 0
 13 211 21 203 21 191 c 0
 21 98 99 21 194 21 c 0xbe
 287 21 364 98 364 191 c 2
 364 765 l 1
 317 765 l 2
 294 765 273 747 273 723 c 0
 273 712 265 703 254 703 c 0
 243 703 235 712 235 723 c 0
 235 768 272 806 317 806 c 2
 384 806 l 2
 393 806 402 796 402 785 c 2
 402 191 l 2
 402 171 399 152 394 134 c 1
 419 162 444 194 466 221 c 2
 607 395 l 2
 614 403 620 409 628 410 c 0
 638 411 645 403 645 394 c 2
 646 124 l 1
 646 122 l 1
 671 156 697 198 715 245 c 0
 718 251 726 254 732 251 c 0x7e
425 101 m 0
 441 46 473 27 520 27 c 0
 570 27 608 57 608 136 c 2
 609 343 l 1
 485 194 l 2
 469 174 446 146 421 118 c 1
 422 112 423 106 425 101 c 0
EndSplineSet
Ligature2: "'liga' Standard Ligatures lookup 11 subtable" I s
EndChar

StartChar: O.003
Encoding: 65573 -1 162
Width: 441
GlyphClass: 2
Flags: MW
HStem: -17 38<156 229> 780 39<156 255.5>
VStem: -15 38<298 504.5 298 516.5> 389 39<353.5 504.5>
LayerCount: 2
Fore
SplineSet
452 212 m 1
 425 153 386 105 330 54 c 1
 294 9 252 -17 206 -17 c 0
 83 -17 -15 170 -15 401 c 0
 -15 632 83 819 206 819 c 0
 328 819 428 632 428 401 c 0
 428 306 411 218 382 147 c 1
 398 168 413 192 428 222 c 1
 452 212 l 1
206 21 m 0
 305 21 389 195 389 401 c 0
 389 608 305 780 206 780 c 0
 106 780 23 608 23 401 c 0
 23 195 106 21 206 21 c 0
EndSplineSet
EndChar

StartChar: A.004
Encoding: 65574 -1 163
Width: 1151
GlyphClass: 2
Flags: MW
HStem: -10 38<73.5 92 73.5 97> -8 35<859.5 900> -1 33<1017 1026.5 1017 1027> 123 36<660 660>
VStem: 623 37<9 122 122 122 159 727 727 727> 971 38<96.5 124 85 136>
LayerCount: 2
Fore
SplineSet
1073 46 m 0x3c
 1080 38 1077 29 1071 23 c 0
 1054 8 1037 -1 1017 -1 c 0x3c
 989 0 979 15 975 33 c 1
 951 6 917 -8 883 -8 c 0
 816 -8 770 32 752 91 c 0
 750 100 756 108 767 111 c 0
 775 113 785 111 788 101 c 0
 806 47 836 27 883 27 c 0x5c
 933 27 971 57 971 136 c 2
 972 339 l 1
 874 212 l 2
 820 142 735 122 660 123 c 1
 660 9 l 2
 660 -1 652 -10 643 -10 c 0
 632 -10 623 -2 623 9 c 2
 623 122 l 1
 526 126 412 160 291 231 c 1
 212 116 152 26 152 26 c 2
 137 4 110 -10 84 -10 c 0
 46 -10 13 17 4 52 c 0
 1 62 7 73 17 76 c 0
 27 79 38 73 41 63 c 0
 45 42 63 28 84 28 c 0
 100 28 111 35 119 47 c 2x9c
 626 802 l 2
 629 809 639 812 648 810 c 0
 655 808 660 801 660 791 c 2
 660 159 l 1
 720 158 798 165 854 239 c 2
 970 393 l 2
 977 403 983 409 991 410 c 0
 1001 411 1008 403 1008 394 c 2
 1009 124 l 2
 1009 46 1012 32 1022 32 c 0
 1031 32 1039 38 1050 46 c 0
 1056 51 1066 54 1073 46 c 0x3c
623 158 m 1
 623 727 l 1
 593 684 372 354 311 265 c 1
 406 208 524 162 623 158 c 1
EndSplineSet
EndChar

StartChar: I.004
Encoding: 65575 -1 164
Width: 720
GlyphClass: 2
Flags: MW
HStem: -18 39<146.5 219> -8 35<496.5 531.5> 765 41<305.5 384 317 364>
VStem: -16 37<144.5 197 144.5 197> 235 38<717.5 735 717.5 745.5> 364 38<191 765 765 765> 608 37
LayerCount: 2
Fore
SplineSet
733 251 m 0x7e
 739 249 743 241 741 235 c 0
 710 151 658 81 618 40 c 0
 609 29 599 19 587 12 c 2
 586 11 l 1
 566 -1 543 -8 520 -8 c 0
 455 -8 405 28 390 85 c 1
 379 73 368 62 357 53 c 2x7e
 326 30 l 2
 290 0 244 -18 194 -18 c 0
 78 -18 -16 77 -16 191 c 0
 -16 203 -8 211 3 211 c 0
 13 211 21 203 21 191 c 0
 21 98 99 21 194 21 c 0xbe
 287 21 364 98 364 191 c 2
 364 765 l 1
 317 765 l 2
 294 765 273 747 273 723 c 0
 273 712 265 703 254 703 c 0
 243 703 235 712 235 723 c 0
 235 768 272 806 317 806 c 2
 384 806 l 2
 393 806 402 796 402 785 c 2
 402 191 l 2
 402 171 399 152 394 134 c 1
 419 162 444 194 466 221 c 2
 607 395 l 2
 614 403 620 409 628 410 c 0
 638 411 645 403 645 394 c 2
 646 124 l 1
 646 121 l 1
 672 155 698 197 716 245 c 0
 719 251 727 254 733 251 c 0x7e
425 101 m 0
 441 46 473 27 520 27 c 0
 570 27 608 57 608 136 c 2
 609 343 l 1
 485 194 l 2
 469 174 446 146 421 118 c 1
 422 112 423 106 425 101 c 0
EndSplineSet
EndChar

StartChar: O.004
Encoding: 65576 -1 165
Width: 772
GlyphClass: 2
Flags: MW
HStem: -17 38<156 223> -8 35<480.5 521> -1 33<638 647.5 638 648> 780 39<156 255.5>
VStem: -15 38<298 504.5 298 516.5> 389 39<349.5 504.5> 592 38<96.5 124 85 136>
LayerCount: 2
Fore
SplineSet
694 46 m 0x3e
 701 38 698 29 692 23 c 0
 675 8 658 -1 638 -1 c 0x3e
 610 0 600 15 596 33 c 1
 572 6 538 -8 504 -8 c 0
 439 -8 389 28 374 85 c 1
 363 73 352 62 341 53 c 0x5e
 330 44 313 33 301 23 c 0
 272 -3 240 -17 206 -17 c 0x9e
 83 -17 -15 170 -15 401 c 0
 -15 632 83 819 206 819 c 0
 328 819 428 632 428 401 c 0
 428 298 408 203 375 130 c 1
 402 160 427 193 450 221 c 2
 591 395 l 2
 598 403 604 409 612 410 c 0
 622 411 629 403 629 394 c 2
 630 124 l 2
 630 46 633 32 643 32 c 0
 652 32 660 38 671 46 c 0
 677 51 687 54 694 46 c 0x3e
206 21 m 0x9e
 305 21 389 195 389 401 c 0
 389 608 305 780 206 780 c 0
 106 780 23 608 23 401 c 0
 23 195 106 21 206 21 c 0x9e
592 136 m 2
 593 343 l 1
 469 194 l 2
 453 174 430 146 405 118 c 1
 406 112 407 106 409 101 c 0
 425 46 457 27 504 27 c 0x5e
 554 27 592 57 592 136 c 2
EndSplineSet
EndChar

StartChar: A.005
Encoding: 65577 -1 166
Width: 1069
GlyphClass: 2
Flags: MW
HStem: -10 38<73.5 92 73.5 97> -8 35<859.5 908 859.5 914> 123 36<660 660>
VStem: 623 37<9 122 122 122 159 727 727 727> 971 38<96.5 124 82.5 136>
LayerCount: 2
Fore
SplineSet
1008 394 m 2x78
 1009 124 l 2
 1009 41 945 -8 883 -8 c 0
 816 -8 770 32 752 91 c 0
 750 100 756 108 767 111 c 0
 775 113 785 111 788 101 c 0
 806 47 836 27 883 27 c 0x78
 933 27 971 57 971 136 c 2
 972 339 l 1
 874 212 l 2
 820 142 735 122 660 123 c 1
 660 9 l 2
 660 -1 652 -10 643 -10 c 0
 632 -10 623 -2 623 9 c 2
 623 122 l 1
 526 126 412 160 291 231 c 1
 212 116 152 26 152 26 c 2
 137 4 110 -10 84 -10 c 0
 46 -10 13 17 4 52 c 0
 1 62 7 73 17 76 c 0
 27 79 38 73 41 63 c 0
 45 42 63 28 84 28 c 0
 100 28 111 35 119 47 c 2xb8
 626 802 l 2
 629 809 639 812 648 810 c 0
 655 808 660 801 660 791 c 2
 660 159 l 1
 720 158 798 165 854 239 c 2
 970 393 l 2
 977 403 983 409 991 410 c 0
 1001 411 1008 403 1008 394 c 2x78
623 158 m 1
 623 727 l 1
 593 684 372 354 311 265 c 1
 406 208 524 162 623 158 c 1
EndSplineSet
EndChar

StartChar: O.005
Encoding: 65578 -1 167
Width: 690
GlyphClass: 2
Flags: MW
HStem: -17 38<156 223> -8 35<480.5 529 480.5 535> 780 39<156 255.5>
VStem: -15 38<298 504.5 298 516.5> 389 39<349.5 504.5> 592 38<96.5 124 82.5 136>
LayerCount: 2
Fore
SplineSet
629 394 m 2xbc
 630 124 l 2
 630 41 566 -8 504 -8 c 0
 439 -8 389 28 374 85 c 1
 363 73 352 62 341 53 c 0x7c
 330 44 313 33 301 23 c 0
 272 -3 240 -17 206 -17 c 0
 83 -17 -15 170 -15 401 c 0
 -15 632 83 819 206 819 c 0
 328 819 428 632 428 401 c 0
 428 298 408 203 375 130 c 1
 402 160 427 193 450 221 c 2
 591 395 l 2
 598 403 604 409 612 410 c 0
 622 411 629 403 629 394 c 2xbc
206 21 m 0xbc
 305 21 389 195 389 401 c 0
 389 608 305 780 206 780 c 0
 106 780 23 608 23 401 c 0
 23 195 106 21 206 21 c 0xbc
592 136 m 2
 593 343 l 1
 469 194 l 2
 452 174 429 146 405 118 c 1
 406 112 407 106 409 101 c 0
 425 46 457 27 504 27 c 0x7c
 554 27 592 57 592 136 c 2
EndSplineSet
EndChar

StartChar: A.007
Encoding: 65579 -1 168
Width: 1082
GlyphClass: 2
Flags: MW
HStem: -10 38<73.5 92 73.5 97> -8 35<859.5 902> 123 36<660 660>
VStem: 623 37<9 122 122 122 159 727 727 727> 971 37
LayerCount: 2
Fore
SplineSet
1095 251 m 0x78
 1101 249 1105 241 1103 235 c 0
 1073 154 1024 86 985 45 c 1
 960 11 921 -8 883 -8 c 0
 816 -8 765 31 752 91 c 0
 750 100 756 108 767 111 c 0
 775 113 785 111 788 101 c 0
 804 46 836 27 883 27 c 0x78
 933 27 971 57 971 136 c 2
 972 339 l 1
 874 212 l 2
 820 142 735 122 660 123 c 1
 660 9 l 2
 660 -1 652 -10 643 -10 c 0
 632 -10 623 -2 623 9 c 2
 623 122 l 1
 526 126 412 160 291 231 c 1
 212 116 152 26 152 26 c 2
 137 4 110 -10 84 -10 c 0
 46 -10 13 17 4 52 c 0
 1 62 7 73 17 76 c 0
 27 79 38 73 41 63 c 0
 45 42 63 28 84 28 c 0
 100 28 111 35 119 47 c 2xb8
 626 802 l 2
 629 809 639 812 648 810 c 0
 655 808 660 801 660 791 c 2
 660 159 l 1
 720 158 798 165 854 239 c 2
 970 393 l 2
 977 403 983 409 991 410 c 0
 1001 411 1008 403 1008 394 c 2
 1009 124 l 1
 1009 122 l 1
 1034 156 1060 198 1078 245 c 0
 1081 251 1089 254 1095 251 c 0x78
623 158 m 1
 623 727 l 1
 593 684 372 354 311 265 c 1
 406 208 524 162 623 158 c 1
EndSplineSet
EndChar

StartChar: O.007
Encoding: 65580 -1 169
Width: 703
GlyphClass: 3
Flags: MW
HStem: -17 38<156 223> -8 35<480.5 523> 780 39<156 255.5>
VStem: -15 38<298 504.5 298 516.5> 389 39<349.5 504.5> 592 37
LayerCount: 2
Fore
SplineSet
716 251 m 0xbc
 722 249 726 241 724 235 c 0
 694 154 645 86 606 45 c 1
 581 11 542 -8 504 -8 c 0
 439 -8 389 28 374 85 c 1
 363 73 352 62 341 53 c 0x7c
 330 44 313 33 301 23 c 0
 272 -3 240 -17 206 -17 c 0
 83 -17 -15 170 -15 401 c 0
 -15 632 83 819 206 819 c 0
 328 819 428 632 428 401 c 0
 428 298 408 203 375 130 c 1
 402 160 427 193 450 221 c 2
 591 395 l 2
 598 403 604 409 612 410 c 0
 622 411 629 403 629 394 c 2
 630 124 l 1
 630 122 l 1
 655 156 681 198 699 245 c 0
 702 251 710 254 716 251 c 0xbc
206 21 m 0
 305 21 389 195 389 401 c 0
 389 608 305 780 206 780 c 0
 106 780 23 608 23 401 c 0
 23 195 106 21 206 21 c 0
409 101 m 0
 425 46 457 27 504 27 c 0
 554 27 592 57 592 136 c 2
 593 343 l 1
 469 194 l 2
 453 174 430 146 405 118 c 1
 406 112 407 106 409 101 c 0
EndSplineSet
Substitution2: "Single Substitution lookup 88 subtable" O.005
Substitution2: "Single Substitution lookup 87 subtable" O.004
Ligature2: "'liga' Standard Ligatures lookup 65 subtable" O s
EndChar

StartChar: A.00a
Encoding: 65581 -1 170
Width: 1119
GlyphClass: 3
Flags: MW
HStem: -10 38<73.5 92 73.5 97> -4 34<929 929> 123 35<660 660> 378.33 35.55 510.54 125.46
VStem: 623 37<9 122 122 122 158 727 727 727> 766 35<181 185 185 185> 976.5 35.75
LayerCount: 2
Fore
SplineSet
1133 250 m 0x77
 1139 249 1143 243 1140 233 c 0
 1072 75 1016 -5 929 -4 c 0x77
 840 -3 785 49 770 135 c 1
 736 127 699 122 660 123 c 1
 660 9 l 2
 660 -1 652 -10 643 -10 c 0
 632 -10 623 -2 623 9 c 2
 623 122 l 1
 526 126 412 160 291 231 c 1
 212 116 152 26 152 26 c 2
 137 4 110 -10 84 -10 c 0
 46 -10 13 17 4 52 c 0
 1 62 7 73 17 76 c 0
 27 79 38 73 41 63 c 0
 45 42 63 28 84 28 c 0
 100 28 111 35 119 47 c 2xb7
 626 802 l 2
 629 809 639 812 648 810 c 0
 655 808 660 801 660 791 c 2
 660 158 l 1
 697 157 733 161 766 170 c 1
 766 185 l 2
 768 245 800 322 851 374 c 0
 905 429 962 419 990 393 c 0
 1015 372 1024 331 991 280 c 0
 953 225 888 174 805 145 c 1
 823 47 890 30 929 30 c 0
 999 30 1057 105 1114 243 c 0
 1118 250 1127 253 1133 250 c 0x77
623 158 m 1
 623 727 l 1
 593 684 372 354 311 265 c 1
 406 208 524 162 623 158 c 1
875 513 m 0x7f
 867 518 867 525 871 533 c 2
 930 627 l 2
 935 634 944 641 958 632 c 0
 969 624 969 615 963 605 c 2
 896 517 l 2
 894 513 884 507 875 513 c 0x7f
801 187 m 2
 801 181 l 1
 871 206 927 250 959 295 c 0
 983 332 979 356 967 367 c 0
 949 384 909 386 871 345 c 0
 826 296 804 230 801 187 c 2
EndSplineSet
Substitution2: "Single Substitution lookup 87 subtable" A.00a1
Ligature2: "'liga' Standard Ligatures lookup 63 subtable" A eacute
EndChar

StartChar: O.00a
Encoding: 65582 -1 171
Width: 811
GlyphClass: 3
Flags: MW
HStem: -17 38<156 239.5> -4 34<631 631> 379 35.59 510.54 125.46 780 39<156 255.5>
VStem: -15 38<298 504.5 298 516.5> 389 39<356.5 504.5> 498 35 654 36.87
LayerCount: 2
Fore
SplineSet
825 250 m 0xaf80
 831 249 835 243 832 233 c 0
 764 75 724 -5 631 -4 c 0x6f80
 544 -2 503 55 498 142 c 1
 461 131 419 126 374 128 c 1
 333 39 273 -17 206 -17 c 0xaf80
 83 -17 -15 170 -15 401 c 0
 -15 632 83 819 206 819 c 0
 328 819 428 632 428 401 c 0
 428 312 413 229 388 162 c 1
 431 162 467 167 497 176 c 1
 498 209 503 241 511 271 c 0
 540 372 588 430 653 411 c 0
 670 406 683 392 688 373 c 0
 693 356 697 317 656 256 c 0
 628 214 586 178 533 155 c 1
 538 79 568 30 631 30 c 0x6f80
 701 30 750 105 807 243 c 0
 811 250 819 253 825 250 c 0xaf80
206 21 m 0
 305 21 389 195 389 401 c 0
 389 608 305 780 206 780 c 0
 106 780 23 608 23 401 c 0
 23 195 106 21 206 21 c 0
595 513 m 0xbf80
 587 518 587 525 591 533 c 2
 650 627 l 2
 655 634 664 641 678 632 c 0
 689 624 689 615 683 605 c 2
 616 517 l 2
 614 513 604 507 595 513 c 0xbf80
545 262 m 0
 539 238 534 214 532 190 c 1
 575 211 605 242 629 279 c 0
 648 309 661 340 654 363 c 0
 651 375 644 379 630 379 c 0
 591 379 558 314 545 262 c 0
EndSplineSet
Substitution2: "Single Substitution lookup 88 subtable" O.00a1
Ligature2: "'liga' Standard Ligatures lookup 65 subtable" O eacute
EndChar

StartChar: A.00a1
Encoding: 65583 -1 172
Width: 1100
GlyphClass: 2
Flags: MW
HStem: -10 38<73.5 92 73.5 97> -4 33<929 950 915.5 950.5> 123 35<660 660> 378.33 35.55 510.54 125.46
VStem: 623 37<9 122 122 122 158 727 727 727> 766 35<181 185 185 185> 976.5 35.75
LayerCount: 2
Fore
SplineSet
1022 46 m 0x77
 1029 38 1026 28 1020 23 c 0
 996 8 972 -4 929 -4 c 0x77
 843 -3 789 49 771 135 c 1
 736 127 699 122 660 123 c 1
 660 9 l 2
 660 -1 652 -10 643 -10 c 0
 632 -10 623 -2 623 9 c 2
 623 122 l 1
 526 126 412 160 291 231 c 1
 212 116 152 26 152 26 c 2
 137 4 110 -10 84 -10 c 0
 46 -10 13 17 4 52 c 0
 1 62 7 73 17 76 c 0
 27 79 38 73 41 63 c 0
 45 42 63 28 84 28 c 0
 100 28 111 35 119 47 c 2xb7
 626 802 l 2
 629 809 639 812 648 810 c 0
 655 808 660 801 660 791 c 2
 660 158 l 1
 697 157 733 161 766 170 c 1
 766 185 l 2
 768 245 800 322 851 374 c 0
 905 429 962 419 990 393 c 0
 1015 372 1024 331 991 280 c 0
 953 225 888 174 805 145 c 1
 829 46 897 29 934 29 c 0
 966 29 982 36 999 46 c 0
 1005 51 1015 54 1022 46 c 0x77
623 158 m 1
 623 727 l 1
 593 684 372 354 311 265 c 1
 406 208 524 162 623 158 c 1
875 513 m 0x7f
 867 518 867 525 871 533 c 2
 930 627 l 2
 935 634 944 641 958 632 c 0
 969 624 969 615 963 605 c 2
 896 517 l 2
 894 513 884 507 875 513 c 0x7f
801 187 m 2
 801 181 l 1
 871 206 927 250 959 295 c 0
 983 332 979 356 967 367 c 0
 949 384 909 386 871 345 c 0
 826 296 804 230 801 187 c 2
EndSplineSet
EndChar

StartChar: O.00a1
Encoding: 65584 -1 173
Width: 803
GlyphClass: 2
Flags: MW
HStem: -17 38<156 239.5> -4 33<632 653 604 653.5> 379 35.59 510.54 125.46 780 39<156 255.5>
VStem: -15 38<298 504.5 298 516.5> 389 39<356.5 504.5> 498 35 654 36.87
LayerCount: 2
Fore
SplineSet
725 46 m 0x6f80
 732 38 729 28 723 23 c 0
 699 8 675 -4 632 -4 c 0x6f80
 544 -2 503 55 498 142 c 1
 461 131 419 126 374 128 c 1
 333 39 273 -17 206 -17 c 0xaf80
 83 -17 -15 170 -15 401 c 0
 -15 632 83 819 206 819 c 0
 328 819 428 632 428 401 c 0
 428 312 413 229 388 162 c 1
 431 162 467 167 497 176 c 1
 498 209 503 241 511 271 c 0
 540 372 588 430 653 411 c 0
 670 406 683 392 688 373 c 0
 693 356 697 317 656 256 c 0
 628 214 586 178 533 155 c 1
 538 78 571 29 637 29 c 0
 669 29 685 36 702 46 c 0
 708 51 718 54 725 46 c 0x6f80
206 21 m 0xbf80
 305 21 389 195 389 401 c 0
 389 608 305 780 206 780 c 0
 106 780 23 608 23 401 c 0
 23 195 106 21 206 21 c 0xbf80
588 513 m 0
 580 518 580 525 584 533 c 2
 643 627 l 2
 648 634 657 641 671 632 c 0
 682 624 682 615 676 605 c 2
 609 517 l 2
 607 513 597 507 588 513 c 0
545 262 m 0
 539 238 534 214 532 190 c 1
 575 211 605 242 629 279 c 0
 648 309 661 340 654 363 c 0
 651 375 644 379 630 379 c 0
 591 379 558 314 545 262 c 0
EndSplineSet
EndChar

StartChar: A.00b
Encoding: 65585 -1 174
Width: 1119
GlyphClass: 3
Flags: MW
HStem: -10 38<73.5 92 73.5 97> -4 34<929 929> 123 35<660 660> 378.33 35.55 589 41<907 924>
VStem: 623 37<9 122 122 122 158 727 727 727> 766 35<181 185 185 185> 847.12 153.38 976.5 35.75
LayerCount: 2
Fore
SplineSet
1133 250 m 0x7680
 1139 249 1143 243 1140 233 c 0
 1072 75 1016 -5 929 -4 c 0x7680
 840 -3 785 49 770 135 c 1
 736 127 699 122 660 123 c 1
 660 9 l 2
 660 -1 652 -10 643 -10 c 0
 632 -10 623 -2 623 9 c 2
 623 122 l 1
 526 126 412 160 291 231 c 1
 212 116 152 26 152 26 c 2
 137 4 110 -10 84 -10 c 0
 46 -10 13 17 4 52 c 0
 1 62 7 73 17 76 c 0
 27 79 38 73 41 63 c 0
 45 42 63 28 84 28 c 0
 100 28 111 35 119 47 c 2xb680
 626 802 l 2
 629 809 639 812 648 810 c 0
 655 808 660 801 660 791 c 2
 660 158 l 1
 697 157 733 161 766 170 c 1
 766 185 l 2
 768 245 800 322 851 374 c 0
 905 429 962 419 990 393 c 0
 1015 372 1024 331 991 280 c 0
 953 225 888 174 805 145 c 1
 823 47 890 30 929 30 c 0
 999 30 1057 105 1114 243 c 0
 1118 250 1127 253 1133 250 c 0x7680
623 158 m 1
 623 727 l 1
 593 684 372 354 311 265 c 1
 406 208 524 162 623 158 c 1
854 518 m 0x7f
 846 524 845 530 850 537 c 2
 907 630 l 2
 910 635 917 640 924 639 c 0
 932 640 937 635 941 630 c 2
 998 537 l 2
 1002 530 1002 524 994 518 c 0
 985 513 977 518 975 522 c 2
 924 589 l 1
 872 522 l 2
 870 518 861 513 854 518 c 0x7f
801 187 m 2
 801 181 l 1
 871 206 927 250 959 295 c 0
 983 332 979 356 967 367 c 0
 949 384 909 386 871 345 c 0x7680
 826 296 804 230 801 187 c 2
EndSplineSet
Substitution2: "Single Substitution lookup 87 subtable" A.00b1
Ligature2: "'liga' Standard Ligatures lookup 63 subtable" A ecircumflex
EndChar

StartChar: O.00b
Encoding: 65586 -1 175
Width: 811
GlyphClass: 3
Flags: MW
HStem: -17 38<156 239.5> -4 34<631 631> 379 35.59 589 41<611 628> 780 39<156 255.5>
VStem: -15 38<298 504.5 298 516.5> 389 39<356.5 504.5> 498 35 551.12 153.38 654 36.87
LayerCount: 2
Fore
SplineSet
825 250 m 0xaf40
 831 249 835 243 832 233 c 0
 764 75 724 -5 631 -4 c 0x6f40
 544 -2 503 55 498 142 c 1
 461 131 419 126 374 128 c 1
 333 39 273 -17 206 -17 c 0xaf40
 83 -17 -15 170 -15 401 c 0
 -15 632 83 819 206 819 c 0
 328 819 428 632 428 401 c 0
 428 312 413 229 388 162 c 1
 431 162 467 167 497 176 c 1
 498 209 503 241 511 271 c 0
 540 372 588 430 653 411 c 0
 670 406 683 392 688 373 c 0
 693 356 697 317 656 256 c 0
 628 214 586 178 533 155 c 1
 538 79 568 30 631 30 c 0x6f40
 701 30 750 105 807 243 c 0
 811 250 819 253 825 250 c 0xaf40
206 21 m 0
 305 21 389 195 389 401 c 0
 389 608 305 780 206 780 c 0
 106 780 23 608 23 401 c 0
 23 195 106 21 206 21 c 0
558 518 m 0xbf80
 550 524 549 530 554 537 c 2
 611 630 l 2
 614 635 621 640 628 639 c 0
 636 640 641 635 645 630 c 2
 702 537 l 2
 706 530 706 524 698 518 c 0
 689 513 681 518 679 522 c 2
 628 589 l 1
 576 522 l 2
 574 518 565 513 558 518 c 0xbf80
545 262 m 0xaf40
 539 238 534 214 532 190 c 1
 575 211 605 242 629 279 c 0
 648 309 661 340 654 363 c 0
 651 375 644 379 630 379 c 0
 591 379 558 314 545 262 c 0xaf40
EndSplineSet
Substitution2: "Single Substitution lookup 88 subtable" O.00b1
Ligature2: "'liga' Standard Ligatures lookup 65 subtable" O ecircumflex
EndChar

StartChar: A.00b1
Encoding: 65587 -1 176
Width: 1100
GlyphClass: 2
Flags: MW
HStem: -10 38<73.5 92 73.5 97> -4 33<929 950 915.5 950.5> 123 35<660 660> 378.33 35.55 589 41<907 924>
VStem: 623 37<9 122 122 122 158 727 727 727> 766 35<181 185 185 185> 847.12 153.38 976.5 35.75
LayerCount: 2
Fore
SplineSet
1022 46 m 0x7680
 1029 38 1026 28 1020 23 c 0
 996 8 972 -4 929 -4 c 0x7680
 843 -3 789 49 771 135 c 1
 736 127 699 122 660 123 c 1
 660 9 l 2
 660 -1 652 -10 643 -10 c 0
 632 -10 623 -2 623 9 c 2
 623 122 l 1
 526 126 412 160 291 231 c 1
 212 116 152 26 152 26 c 2
 137 4 110 -10 84 -10 c 0
 46 -10 13 17 4 52 c 0
 1 62 7 73 17 76 c 0
 27 79 38 73 41 63 c 0
 45 42 63 28 84 28 c 0
 100 28 111 35 119 47 c 2xb680
 626 802 l 2
 629 809 639 812 648 810 c 0
 655 808 660 801 660 791 c 2
 660 158 l 1
 697 157 733 161 766 170 c 1
 766 185 l 2
 768 245 800 322 851 374 c 0
 905 429 962 419 990 393 c 0
 1015 372 1024 331 991 280 c 0
 953 225 888 174 805 145 c 1
 829 46 897 29 934 29 c 0
 966 29 982 36 999 46 c 0
 1005 51 1015 54 1022 46 c 0x7680
623 158 m 1
 623 727 l 1
 593 684 372 354 311 265 c 1
 406 208 524 162 623 158 c 1
854 518 m 0x7f
 846 524 845 530 850 537 c 2
 907 630 l 2
 910 635 917 640 924 639 c 0
 932 640 937 635 941 630 c 2
 998 537 l 2
 1002 530 1002 524 994 518 c 0
 985 513 977 518 975 522 c 2
 924 589 l 1
 872 522 l 2
 870 518 861 513 854 518 c 0x7f
801 187 m 2
 801 181 l 1
 871 206 927 250 959 295 c 0
 983 332 979 356 967 367 c 0
 949 384 909 386 871 345 c 0x7680
 826 296 804 230 801 187 c 2
EndSplineSet
EndChar

StartChar: O.00b1
Encoding: 65588 -1 177
Width: 803
GlyphClass: 2
Flags: MW
HStem: -17 38<156 239.5> -4 33<632 653 604 653.5> 379 35.59 589 41<610 627> 780 39<156 255.5>
VStem: -15 38<298 504.5 298 516.5> 389 39<356.5 504.5> 498 35 550.12 153.38 654 36.87
LayerCount: 2
Fore
SplineSet
725 46 m 0x6f40
 732 38 729 28 723 23 c 0
 699 8 675 -4 632 -4 c 0x6f40
 544 -2 503 55 498 142 c 1
 461 131 419 126 374 128 c 1
 333 39 273 -17 206 -17 c 0xaf40
 83 -17 -15 170 -15 401 c 0
 -15 632 83 819 206 819 c 0
 328 819 428 632 428 401 c 0
 428 312 413 229 388 162 c 1
 431 162 467 167 497 176 c 1
 498 209 503 241 511 271 c 0
 540 372 588 430 653 411 c 0
 670 406 683 392 688 373 c 0
 693 356 697 317 656 256 c 0
 628 214 586 178 533 155 c 1
 538 78 571 29 637 29 c 0
 669 29 685 36 702 46 c 0
 708 51 718 54 725 46 c 0x6f40
206 21 m 0xbf80
 305 21 389 195 389 401 c 0
 389 608 305 780 206 780 c 0
 106 780 23 608 23 401 c 0
 23 195 106 21 206 21 c 0xbf80
557 518 m 0
 549 524 548 530 553 537 c 2
 610 630 l 2
 613 635 620 640 627 639 c 0
 635 640 640 635 644 630 c 2
 701 537 l 2
 705 530 705 524 697 518 c 0
 688 513 680 518 678 522 c 2
 627 589 l 1
 575 522 l 2
 573 518 564 513 557 518 c 0
545 262 m 0xaf40
 539 238 534 214 532 190 c 1
 575 211 605 242 629 279 c 0
 648 309 661 340 654 363 c 0
 651 375 644 379 630 379 c 0
 591 379 558 314 545 262 c 0xaf40
EndSplineSet
EndChar

StartChar: A.00c
Encoding: 65589 -1 178
Width: 1119
GlyphClass: 3
Flags: MW
HStem: -10 38<73.5 92 73.5 97> -4 34<929 929> 123 35<660 660> 378.33 35.55
VStem: 623 37<9 122 122 122 158 727 727 727> 766 35<181 185 185 185> 870 31.5 943 35 976.5 35.75
LayerCount: 2
Fore
SplineSet
1133 250 m 0x7e80
 1139 249 1143 243 1140 233 c 0
 1072 75 1016 -5 929 -4 c 0x7e80
 840 -3 785 49 770 135 c 1
 736 127 699 122 660 123 c 1
 660 9 l 2
 660 -1 652 -10 643 -10 c 0
 632 -10 623 -2 623 9 c 2
 623 122 l 1
 526 126 412 160 291 231 c 1
 212 116 152 26 152 26 c 2
 137 4 110 -10 84 -10 c 0
 46 -10 13 17 4 52 c 0
 1 62 7 73 17 76 c 0
 27 79 38 73 41 63 c 0
 45 42 63 28 84 28 c 0
 100 28 111 35 119 47 c 2xbe80
 626 802 l 2
 629 809 639 812 648 810 c 0
 655 808 660 801 660 791 c 2
 660 158 l 1
 697 157 733 161 766 170 c 1
 766 185 l 2
 768 245 800 322 851 374 c 0
 905 429 962 419 990 393 c 0
 1015 372 1024 331 991 280 c 0
 953 225 888 174 805 145 c 1
 823 47 890 30 929 30 c 0
 999 30 1057 105 1114 243 c 0
 1118 250 1127 253 1133 250 c 0x7e80
623 158 m 1
 623 727 l 1
 593 684 372 354 311 265 c 1
 406 208 524 162 623 158 c 1
884 515 m 0
 874 515 870 525 870 529 c 2
 865 621 l 2
 866 633 872 641 886 641 c 0
 900 641 905 630 904 621 c 2
 899 529 l 2
 898 520 894 515 884 515 c 0
957 515 m 0x7f
 947 515 943 525 943 529 c 2
 939 621 l 2
 940 633 945 641 960 641 c 0
 974 641 978 630 978 621 c 2
 972 529 l 2
 971 520 967 515 957 515 c 0x7f
801 187 m 2
 801 181 l 1
 871 206 927 250 959 295 c 0
 983 332 979 356 967 367 c 0
 949 384 909 386 871 345 c 0x7e80
 826 296 804 230 801 187 c 2
EndSplineSet
Substitution2: "Single Substitution lookup 87 subtable" A.00c1
Ligature2: "'liga' Standard Ligatures lookup 63 subtable" A edieresis
EndChar

StartChar: O.00c
Encoding: 65590 -1 179
Width: 811
GlyphClass: 3
Flags: MW
HStem: -17 38<156 239.5> -4 34<631 631> 379 35.59 780 39<156 255.5>
VStem: -15 38<298 504.5 298 516.5> 389 39<356.5 504.5> 498 35 568 31.5 641 35 654 36.87
LayerCount: 2
Fore
SplineSet
825 250 m 0xbf80
 831 249 835 243 832 233 c 0
 764 75 724 -5 631 -4 c 0x7f80
 544 -2 503 55 498 142 c 1
 461 131 419 126 374 128 c 1
 333 39 273 -17 206 -17 c 0xbf80
 83 -17 -15 170 -15 401 c 0
 -15 632 83 819 206 819 c 0
 328 819 428 632 428 401 c 0
 428 312 413 229 388 162 c 1
 431 162 467 167 497 176 c 1
 498 209 503 241 511 271 c 0
 540 372 588 430 653 411 c 0
 670 406 683 392 688 373 c 0
 693 356 697 317 656 256 c 0
 628 214 586 178 533 155 c 1
 538 79 568 30 631 30 c 0x7f40
 701 30 750 105 807 243 c 0
 811 250 819 253 825 250 c 0xbf80
206 21 m 0
 305 21 389 195 389 401 c 0
 389 608 305 780 206 780 c 0
 106 780 23 608 23 401 c 0
 23 195 106 21 206 21 c 0
582 515 m 0
 572 515 568 525 568 529 c 2
 563 621 l 2
 564 633 570 641 584 641 c 0
 598 641 603 630 602 621 c 2
 597 529 l 2
 596 520 592 515 582 515 c 0
655 515 m 0
 645 515 641 525 641 529 c 2
 637 621 l 2
 638 633 643 641 658 641 c 0
 672 641 676 630 676 621 c 2
 670 529 l 2
 669 520 665 515 655 515 c 0
545 262 m 0
 539 238 534 214 532 190 c 1
 575 211 605 242 629 279 c 0
 648 309 661 340 654 363 c 0
 651 375 644 379 630 379 c 0xbf40
 591 379 558 314 545 262 c 0
EndSplineSet
Substitution2: "Single Substitution lookup 88 subtable" O.00c1
Ligature2: "'liga' Standard Ligatures lookup 65 subtable" O edieresis
EndChar

StartChar: A.00c1
Encoding: 65591 -1 180
Width: 1100
GlyphClass: 2
Flags: MW
HStem: -10 38<73.5 92 73.5 97> -4 33<929 950 915.5 950.5> 123 35<660 660> 378.33 35.55
VStem: 623 37<9 122 122 122 158 727 727 727> 766 35<181 185 185 185> 870 31.5 943 35 976.5 35.75
LayerCount: 2
Fore
SplineSet
1022 46 m 0x7e80
 1029 38 1026 28 1020 23 c 0
 996 8 972 -4 929 -4 c 0x7e80
 843 -3 789 49 771 135 c 1
 736 127 699 122 660 123 c 1
 660 9 l 2
 660 -1 652 -10 643 -10 c 0
 632 -10 623 -2 623 9 c 2
 623 122 l 1
 526 126 412 160 291 231 c 1
 212 116 152 26 152 26 c 2
 137 4 110 -10 84 -10 c 0
 46 -10 13 17 4 52 c 0
 1 62 7 73 17 76 c 0
 27 79 38 73 41 63 c 0
 45 42 63 28 84 28 c 0
 100 28 111 35 119 47 c 2xbe80
 626 802 l 2
 629 809 639 812 648 810 c 0
 655 808 660 801 660 791 c 2
 660 158 l 1
 697 157 733 161 766 170 c 1
 766 185 l 2
 768 245 800 322 851 374 c 0
 905 429 962 419 990 393 c 0
 1015 372 1024 331 991 280 c 0
 953 225 888 174 805 145 c 1
 829 46 897 29 934 29 c 0
 966 29 982 36 999 46 c 0
 1005 51 1015 54 1022 46 c 0x7e80
623 158 m 1
 623 727 l 1
 593 684 372 354 311 265 c 1
 406 208 524 162 623 158 c 1
884 515 m 0
 874 515 870 525 870 529 c 2
 865 621 l 2
 866 633 872 641 886 641 c 0
 900 641 905 630 904 621 c 2
 899 529 l 2
 898 520 894 515 884 515 c 0
957 515 m 0x7f
 947 515 943 525 943 529 c 2
 939 621 l 2
 940 633 945 641 960 641 c 0
 974 641 978 630 978 621 c 2
 972 529 l 2
 971 520 967 515 957 515 c 0x7f
801 187 m 2
 801 181 l 1
 871 206 927 250 959 295 c 0
 983 332 979 356 967 367 c 0
 949 384 909 386 871 345 c 0x7e80
 826 296 804 230 801 187 c 2
EndSplineSet
EndChar

StartChar: O.00c1
Encoding: 65592 -1 181
Width: 803
GlyphClass: 2
Flags: MW
HStem: -17 38<156 239.5> -4 33<632 653 604 653.5> 379 35.59 780 39<156 255.5>
VStem: -15 38<298 504.5 298 516.5> 389 39<356.5 504.5> 498 35 572 31.5 645 35 654 36.87
LayerCount: 2
Fore
SplineSet
725 46 m 0x7f40
 732 38 729 28 723 23 c 0
 699 8 675 -4 632 -4 c 0x7f80
 544 -2 503 55 498 142 c 1
 461 131 419 126 374 128 c 1
 333 39 273 -17 206 -17 c 0xbf80
 83 -17 -15 170 -15 401 c 0
 -15 632 83 819 206 819 c 0
 328 819 428 632 428 401 c 0
 428 312 413 229 388 162 c 1
 431 162 467 167 497 176 c 1
 498 209 503 241 511 271 c 0
 540 372 588 430 653 411 c 0
 670 406 683 392 688 373 c 0
 693 356 697 317 656 256 c 0
 628 214 586 178 533 155 c 1
 538 78 571 29 637 29 c 0
 669 29 685 36 702 46 c 0
 708 51 718 54 725 46 c 0x7f40
206 21 m 0xbf80
 305 21 389 195 389 401 c 0
 389 608 305 780 206 780 c 0
 106 780 23 608 23 401 c 0
 23 195 106 21 206 21 c 0xbf80
586 515 m 0
 576 515 572 525 572 529 c 2
 567 621 l 2
 568 633 574 641 588 641 c 0
 602 641 607 630 606 621 c 2
 601 529 l 2
 600 520 596 515 586 515 c 0
659 515 m 0
 649 515 645 525 645 529 c 2
 641 621 l 2
 642 633 647 641 662 641 c 0
 676 641 680 630 680 621 c 2
 674 529 l 2
 673 520 669 515 659 515 c 0
545 262 m 0
 539 238 534 214 532 190 c 1
 575 211 605 242 629 279 c 0
 648 309 661 340 654 363 c 0
 651 375 644 379 630 379 c 0xbf40
 591 379 558 314 545 262 c 0
EndSplineSet
EndChar

StartChar: A.00d
Encoding: 65593 -1 182
Width: 1119
GlyphClass: 3
Flags: MW
HStem: -10 38<73.5 92 73.5 97> -4 34<929 929> 123 35<660 660> 378.33 35.55 511.54 126.03
VStem: 623 37<9 122 122 122 158 727 727 727> 766 35<181 185 185 185> 976.5 35.75
LayerCount: 2
Fore
SplineSet
1133 250 m 0x77
 1139 249 1143 243 1140 233 c 0
 1072 75 1016 -5 929 -4 c 0x77
 840 -3 785 49 770 135 c 1
 736 127 699 122 660 123 c 1
 660 9 l 2
 660 -1 652 -10 643 -10 c 0
 632 -10 623 -2 623 9 c 2
 623 122 l 1
 526 126 412 160 291 231 c 1
 212 116 152 26 152 26 c 2
 137 4 110 -10 84 -10 c 0
 46 -10 13 17 4 52 c 0
 1 62 7 73 17 76 c 0
 27 79 38 73 41 63 c 0
 45 42 63 28 84 28 c 0
 100 28 111 35 119 47 c 2xb7
 626 802 l 2
 629 809 639 812 648 810 c 0
 655 808 660 801 660 791 c 2
 660 158 l 1
 697 157 733 161 766 170 c 1
 766 185 l 2
 768 245 800 322 851 374 c 0
 905 429 962 419 990 393 c 0
 1015 372 1024 331 991 280 c 0
 953 225 888 174 805 145 c 1
 823 47 890 30 929 30 c 0
 999 30 1057 105 1114 243 c 0
 1118 250 1127 253 1133 250 c 0x77
623 158 m 1
 623 727 l 1
 593 684 372 354 311 265 c 1
 406 208 524 162 623 158 c 1
941 518 m 2x7f
 872 606 l 2
 866 617 866 626 878 634 c 0
 890 642 900 636 905 628 c 2
 964 534 l 2
 968 526 967 520 960 514 c 0
 951 508 943 514 941 518 c 2x7f
801 187 m 2
 801 181 l 1
 871 206 927 250 959 295 c 0
 983 332 979 356 967 367 c 0
 949 384 909 386 871 345 c 0
 826 296 804 230 801 187 c 2
EndSplineSet
Substitution2: "Single Substitution lookup 87 subtable" A.00d1
Ligature2: "'liga' Standard Ligatures lookup 63 subtable" A egrave
EndChar

StartChar: O.00d
Encoding: 65594 -1 183
Width: 811
GlyphClass: 3
Flags: MW
HStem: -17 38<156 239.5> -4 34<631 631> 379 35.59 511.54 126.03 780 39<156 255.5>
VStem: -15 38<298 504.5 298 516.5> 389 39<356.5 504.5> 498 35 654 36.87
LayerCount: 2
Fore
SplineSet
825 250 m 0xaf80
 831 249 835 243 832 233 c 0
 764 75 724 -5 631 -4 c 0x6f80
 544 -2 503 55 498 142 c 1
 461 131 419 126 374 128 c 1
 333 39 273 -17 206 -17 c 0xaf80
 83 -17 -15 170 -15 401 c 0
 -15 632 83 819 206 819 c 0
 328 819 428 632 428 401 c 0
 428 312 413 229 388 162 c 1
 431 162 467 167 497 176 c 1
 498 209 503 241 511 271 c 0
 540 372 588 430 653 411 c 0
 670 406 683 392 688 373 c 0
 693 356 697 317 656 256 c 0
 628 214 586 178 533 155 c 1
 538 79 568 30 631 30 c 0x6f80
 701 30 750 105 807 243 c 0
 811 250 819 253 825 250 c 0xaf80
206 21 m 0
 305 21 389 195 389 401 c 0
 389 608 305 780 206 780 c 0
 106 780 23 608 23 401 c 0
 23 195 106 21 206 21 c 0
645 518 m 2xbf80
 576 606 l 2
 570 617 570 626 582 634 c 0
 594 642 604 636 609 628 c 2
 668 534 l 2
 672 526 671 520 664 514 c 0
 655 508 647 514 645 518 c 2xbf80
545 262 m 0
 539 238 534 214 532 190 c 1
 575 211 605 242 629 279 c 0
 648 309 661 340 654 363 c 0
 651 375 644 379 630 379 c 0
 591 379 558 314 545 262 c 0
EndSplineSet
Substitution2: "Single Substitution lookup 88 subtable" O.00d1
Ligature2: "'liga' Standard Ligatures lookup 65 subtable" O egrave
EndChar

StartChar: A.00d1
Encoding: 65595 -1 184
Width: 1100
GlyphClass: 2
Flags: MW
HStem: -10 38<73.5 92 73.5 97> -4 33<929 950 915.5 950.5> 123 35<660 660> 378.33 35.55 511.54 126.03
VStem: 623 37<9 122 122 122 158 727 727 727> 766 35<181 185 185 185> 976.5 35.75
LayerCount: 2
Fore
SplineSet
1022 46 m 0x77
 1029 38 1026 28 1020 23 c 0
 996 8 972 -4 929 -4 c 0x77
 843 -3 789 49 771 135 c 1
 736 127 699 122 660 123 c 1
 660 9 l 2
 660 -1 652 -10 643 -10 c 0
 632 -10 623 -2 623 9 c 2
 623 122 l 1
 526 126 412 160 291 231 c 1
 212 116 152 26 152 26 c 2
 137 4 110 -10 84 -10 c 0
 46 -10 13 17 4 52 c 0
 1 62 7 73 17 76 c 0
 27 79 38 73 41 63 c 0
 45 42 63 28 84 28 c 0
 100 28 111 35 119 47 c 2xb7
 626 802 l 2
 629 809 639 812 648 810 c 0
 655 808 660 801 660 791 c 2
 660 158 l 1
 697 157 733 161 766 170 c 1
 766 185 l 2
 768 245 800 322 851 374 c 0
 905 429 962 419 990 393 c 0
 1015 372 1024 331 991 280 c 0
 953 225 888 174 805 145 c 1
 829 46 897 29 934 29 c 0
 966 29 982 36 999 46 c 0
 1005 51 1015 54 1022 46 c 0x77
623 158 m 1
 623 727 l 1
 593 684 372 354 311 265 c 1
 406 208 524 162 623 158 c 1
941 518 m 2x7f
 872 606 l 2
 866 617 866 626 878 634 c 0
 890 642 900 636 905 628 c 2
 964 534 l 2
 968 526 967 520 960 514 c 0
 951 508 943 514 941 518 c 2x7f
801 187 m 2
 801 181 l 1
 871 206 927 250 959 295 c 0
 983 332 979 356 967 367 c 0
 949 384 909 386 871 345 c 0
 826 296 804 230 801 187 c 2
EndSplineSet
EndChar

StartChar: O.00d1
Encoding: 65596 -1 185
Width: 803
GlyphClass: 2
Flags: MW
HStem: -17 38<156 239.5> -4 33<632 653 604 653.5> 379 35.59 511.54 126.03 780 39<156 255.5>
VStem: -15 38<298 504.5 298 516.5> 389 39<356.5 504.5> 498 35 654 36.87
LayerCount: 2
Fore
SplineSet
725 46 m 0x6f80
 732 38 729 28 723 23 c 0
 699 8 675 -4 632 -4 c 0x6f80
 544 -2 503 55 498 142 c 1
 461 131 419 126 374 128 c 1
 333 39 273 -17 206 -17 c 0xaf80
 83 -17 -15 170 -15 401 c 0
 -15 632 83 819 206 819 c 0
 328 819 428 632 428 401 c 0
 428 312 413 229 388 162 c 1
 431 162 467 167 497 176 c 1
 498 209 503 241 511 271 c 0
 540 372 588 430 653 411 c 0
 670 406 683 392 688 373 c 0
 693 356 697 317 656 256 c 0
 628 214 586 178 533 155 c 1
 538 78 571 29 637 29 c 0
 669 29 685 36 702 46 c 0
 708 51 718 54 725 46 c 0x6f80
206 21 m 0xbf80
 305 21 389 195 389 401 c 0
 389 608 305 780 206 780 c 0
 106 780 23 608 23 401 c 0
 23 195 106 21 206 21 c 0xbf80
635 518 m 2
 566 606 l 2
 560 617 560 626 572 634 c 0
 584 642 594 636 599 628 c 2
 658 534 l 2
 662 526 661 520 654 514 c 0
 645 508 637 514 635 518 c 2
545 262 m 0
 539 238 534 214 532 190 c 1
 575 211 605 242 629 279 c 0
 648 309 661 340 654 363 c 0
 651 375 644 379 630 379 c 0
 591 379 558 314 545 262 c 0
EndSplineSet
EndChar

StartChar: q_sfin
Encoding: 65597 -1 186
Width: 571
GlyphClass: 2
Flags: MW
HStem: -8 35<362 410 361.5 416> -6 38<103 153> 370 38<103 153.5 92 161.5>
VStem: -12 37<154.5 247.5 154.5 259> 240 37<-385 41 199 204 204 204 340 388> 473 38<96.5 124 82.5 136>
LayerCount: 2
Fore
SplineSet
510 394 m 2x7c
 511 124 l 2
 511 41 447 -8 385 -8 c 0
 339 -8 301 10 277 41 c 1xbc
 277 -385 l 2
 277 -396 269 -404 258 -404 c 0
 248 -404 240 -396 240 -385 c 2
 240 62 l 1
 212 18 174 -6 132 -6 c 0
 52 -6 -12 85 -12 201 c 0
 -12 317 52 408 132 408 c 0
 175 408 212 384 240 340 c 1
 240 388 l 2
 240 399 248 407 258 407 c 0
 269 407 277 399 277 388 c 2
 277 137 l 1
 298 162 319 189 337 214 c 2
 472 393 l 2
 479 403 485 409 493 410 c 0
 503 411 510 403 510 394 c 2x7c
240 199 m 2
 240 204 l 2xbc
 239 295 191 370 132 370 c 0
 74 370 25 294 25 201 c 0
 25 108 74 32 132 32 c 0x7c
 191 32 239 107 240 199 c 2
473 136 m 2
 474 339 l 1
 357 188 l 2
 340 166 315 134 289 103 c 0
 290 102 290 102 290 101 c 0
 306 46 338 27 385 27 c 0
 435 27 473 57 473 136 c 2
EndSplineSet
EndChar

StartChar: s_sfin
Encoding: 65598 -1 187
Width: 542
GlyphClass: 2
Flags: MW
HStem: -8 35<73.5 111 332.5 381>
VStem: 185 37 444 38<96.5 124 82.5 136>
LayerCount: 2
Fore
SplineSet
481 394 m 2
 482 124 l 2
 482 41 418 -8 356 -8 c 0
 297 -8 254 23 232 71 c 1
 212 50 193 31 176 20 c 0
 153 2 125 -8 97 -8 c 0
 38 -8 -5 23 -27 71 c 1
 -48 48 -69 28 -87 18 c 0
 -98 12 -105 22 -106 32 c 0
 -106 41 -102 46 -94 52 c 0
 -44 90 7 158 49 214 c 2
 184 393 l 2
 191 403 197 409 205 410 c 0
 215 411 222 403 222 394 c 2
 223 124 l 2
 223 118 223 112 222 106 c 1
 253 140 282 179 308 214 c 2
 443 393 l 2
 450 403 456 409 464 410 c 0
 474 411 481 403 481 394 c 2
2 101 m 0
 20 47 50 27 97 27 c 0
 147 27 185 57 185 136 c 2
 186 339 l 1
 69 188 l 2
 52 166 27 134 1 103 c 0
 2 102 2 102 2 101 c 0
444 136 m 2
 445 339 l 1
 328 188 l 2
 311 166 286 134 260 103 c 0
 261 102 261 102 261 101 c 0
 279 47 309 27 356 27 c 0
 406 27 444 57 444 136 c 2
EndSplineSet
EndChar

StartChar: a.001
Encoding: 65599 -1 188
Width: 425
GlyphClass: 2
Flags: MW
HStem: -7 39<115.5 155> -1 33<291 300.5> 368 40<115 156 115 164.5>
VStem: -9 39<174 230> 244 39<155 170 85 248.5>
LayerCount: 2
Fore
SplineSet
135 -7 m 0xb8
 96 -7 56 17 31 58 c 0
 5 95 -9 146 -9 202 c 0
 -9 258 5 306 32 344 c 1
 56 385 95 408 135 408 c 0
 177 408 214 386 241 344 c 1
 244 341 l 1
 245 389 l 2
 245 400 254 408 265 408 c 0
 274 408 282 399 282 389 c 2
 282 389 283 216 283 124 c 0
 283 46 286 32 296 32 c 0
 305 32 313 38 324 46 c 0
 330 51 340 54 347 46 c 0xb8
 354 38 351 29 345 23 c 0
 328 8 311 -1 291 -1 c 0
 242 0 247 46 247 69 c 1x78
 246 65 244 62 241 57 c 0
 213 16 175 -7 135 -7 c 0xb8
135 32 m 0
 194 32 244 108 244 202 c 0
 244 295 194 368 135 368 c 0
 77 368 30 295 30 202 c 0
 30 108 77 32 135 32 c 0
EndSplineSet
EndChar

StartChar: e.alt.001
Encoding: 65600 -1 189
Width: 327
GlyphClass: 2
Flags: MW
HStem: -4 33 379 35.59
VStem: 25 35 182 36.87
LayerCount: 2
Fore
SplineSet
249 46 m 0
 256 38 254 27 247 23 c 0
 222 9 199 -5 156 -4 c 0
 65 -2 25 65 25 164 c 0
 25 202 30 237 39 271 c 0
 68 372 116 430 181 411 c 0
 198 407 211 392 216 373 c 0
 221 356 225 317 184 256 c 0
 156 214 106 178 60 166 c 1
 63 84 93 30 161 29 c 0
 193 29 211 33 226 46 c 0
 232 51 242 54 249 46 c 0
158 379 m 0
 119 379 86 314 73 262 c 0
 68 243 64 223 61 203 c 1
 102 215 134 244 157 279 c 0
 177 309 189 340 182 363 c 0
 179 375 172 379 158 379 c 0
EndSplineSet
EndChar

StartChar: eacute.alt.001
Encoding: 65601 -1 190
Width: 327
GlyphClass: 2
Flags: MW
HStem: -4 33 379 35.59 510.54 125.46
VStem: 25 35 182 36.87
LayerCount: 2
Fore
SplineSet
110 513 m 0
 102 518 102 525 106 533 c 2
 165 627 l 2
 170 634 179 641 193 632 c 0
 204 624 204 615 198 605 c 2
 131 517 l 2
 129 513 119 507 110 513 c 0
249 46 m 0
 256 38 254 27 247 23 c 0
 222 9 199 -5 156 -4 c 0
 65 -2 25 65 25 164 c 0
 25 202 30 237 39 271 c 0
 68 372 116 430 181 411 c 0
 198 407 211 392 216 373 c 0
 221 356 225 317 184 256 c 0
 156 214 106 178 60 166 c 1
 63 84 93 30 161 29 c 0
 193 29 211 33 226 46 c 0
 232 51 242 54 249 46 c 0
158 379 m 0
 119 379 86 314 73 262 c 0
 68 243 64 223 61 203 c 1
 102 215 134 244 157 279 c 0
 177 309 189 340 182 363 c 0
 179 375 172 379 158 379 c 0
EndSplineSet
EndChar

StartChar: ecircumflex.alt.001
Encoding: 65602 -1 191
Width: 327
GlyphClass: 2
Flags: MW
HStem: -4 33 379 35.59 589 41<136 153>
VStem: 25 35 76.12 153.38 182 36.87
LayerCount: 2
Fore
SplineSet
83 518 m 0xf8
 75 524 74 530 79 537 c 2
 136 630 l 2
 139 635 146 640 153 639 c 0
 161 640 166 635 170 630 c 2
 227 537 l 2
 231 530 231 524 223 518 c 0
 214 513 206 518 204 522 c 2
 153 589 l 1
 101 522 l 2
 99 518 90 513 83 518 c 0xf8
249 46 m 0
 256 38 254 27 247 23 c 0
 222 9 199 -5 156 -4 c 0
 65 -2 25 65 25 164 c 0
 25 202 30 237 39 271 c 0
 68 372 116 430 181 411 c 0
 198 407 211 392 216 373 c 0
 221 356 225 317 184 256 c 0
 156 214 106 178 60 166 c 1xd4
 63 84 93 30 161 29 c 0
 193 29 211 33 226 46 c 0
 232 51 242 54 249 46 c 0
158 379 m 0
 119 379 86 314 73 262 c 0
 68 243 64 223 61 203 c 1
 102 215 134 244 157 279 c 0
 177 309 189 340 182 363 c 0
 179 375 172 379 158 379 c 0
EndSplineSet
EndChar

StartChar: edieresis.alt.001
Encoding: 65603 -1 192
Width: 327
GlyphClass: 2
Flags: MW
HStem: -4 33 379 35.59 515 106<95 119 95 192>
VStem: 25 35 100 31.5 173 35 182 36.87
LayerCount: 2
Fore
SplineSet
114 515 m 0xfc
 104 515 100 525 100 529 c 2
 95 621 l 2
 96 633 102 641 116 641 c 0
 130 641 135 630 134 621 c 2
 129 529 l 2
 128 520 124 515 114 515 c 0xfc
187 515 m 0
 177 515 173 525 173 529 c 2
 169 621 l 2
 170 633 175 641 190 641 c 0
 204 641 208 630 208 621 c 2
 202 529 l 2
 201 520 197 515 187 515 c 0
249 46 m 0
 256 38 254 27 247 23 c 0
 222 9 199 -5 156 -4 c 0
 65 -2 25 65 25 164 c 0
 25 202 30 237 39 271 c 0
 68 372 116 430 181 411 c 0
 198 407 211 392 216 373 c 0
 221 356 225 317 184 256 c 0xfa
 156 214 106 178 60 166 c 1
 63 84 93 30 161 29 c 0
 193 29 211 33 226 46 c 0
 232 51 242 54 249 46 c 0
158 379 m 0
 119 379 86 314 73 262 c 0
 68 243 64 223 61 203 c 1
 102 215 134 244 157 279 c 0
 177 309 189 340 182 363 c 0
 179 375 172 379 158 379 c 0
EndSplineSet
EndChar

StartChar: egrave.alt.001
Encoding: 65604 -1 193
Width: 327
GlyphClass: 2
Flags: MW
HStem: -4 33 379 35.59 511.54 126.03
VStem: 25 35 182 36.87
LayerCount: 2
Fore
SplineSet
170 518 m 2
 101 606 l 2
 95 617 95 626 107 634 c 0
 119 642 129 636 134 628 c 2
 193 534 l 2
 197 526 196 520 189 514 c 0
 180 508 172 514 170 518 c 2
249 46 m 0
 256 38 254 27 247 23 c 0
 222 9 199 -5 156 -4 c 0
 65 -2 25 65 25 164 c 0
 25 202 30 237 39 271 c 0
 68 372 116 430 181 411 c 0
 198 407 211 392 216 373 c 0
 221 356 225 317 184 256 c 0
 156 214 106 178 60 166 c 1
 63 84 93 30 161 29 c 0
 193 29 211 33 226 46 c 0
 232 51 242 54 249 46 c 0
158 379 m 0
 119 379 86 314 73 262 c 0
 68 243 64 223 61 203 c 1
 102 215 134 244 157 279 c 0
 177 309 189 340 182 363 c 0
 179 375 172 379 158 379 c 0
EndSplineSet
EndChar

StartChar: b.001
Encoding: 65605 -1 194
Width: 765
GlyphClass: 3
Flags: MW
HStem: -6 38<171.5 235.5 168.5 246.5> -4 34<585 585> 379 35.59 763.75 40.88
VStem: -13 24<212 222.5> 58 38<178 181 130.5 330> 188 39<706.5 723> 318 34<182 188.5 181 197 181 235.5> 451 35<165 165> 608 36.87
LayerCount: 2
Fore
SplineSet
779 250 m 0x7fc0
 785 249 789 243 786 233 c 0
 718 75 678 -5 585 -4 c 0x7fc0
 491 -2 451 65 451 164 c 2
 451 165 l 1
 414 173 380 196 351 227 c 1
 352 212 352 196 352 181 c 0
 351 78 288 -6 205 -6 c 0
 138 -6 60 26 58 178 c 2
 58 330 l 1
 47 300 11 213 11 212 c 0
 7 205 1 202 -6 204 c 0
 -13 207 -16 216 -13 222 c 0
 -13 223 54 393 59 404 c 1
 58 662 l 2
 58 737 69 768 102 792 c 0
 125 807 155 809 181 797 c 0
 209 785 227 757 227 724 c 0
 227 685 197 623 181 584 c 0
 165 547 145 502 97 399 c 1
 96 181 l 2
 96 80 132 32 205 32 c 0xbfc0
 266 32 318 101 318 182 c 2
 318 197 l 2
 318 274 299 320 270 377 c 0
 265 384 268 394 277 401 c 0
 288 407 299 404 304 396 c 0
 313 378 321 361 329 343 c 0
 329 342 330 341 330 340 c 0
 332 335 334 331 335 326 c 0
 362 255 399 215 453 202 c 1
 455 226 459 249 465 271 c 0
 494 372 542 430 607 411 c 0
 624 407 637 392 642 373 c 0
 647 356 651 317 610 256 c 0
 582 214 532 178 486 166 c 1
 489 84 519 30 585 30 c 0
 655 30 704 105 761 243 c 0
 765 250 773 253 779 250 c 0x7fc0
97 662 m 2
 97 470 l 1
 155 603 l 2
 177 651 188 690 188 723 c 0
 187 741 174 756 164 760 c 0
 151 765 137 766 123 757 c 0
 101 742 97 713 97 662 c 2
584 379 m 0
 545 379 512 314 499 262 c 0
 494 243 490 223 487 203 c 1
 528 215 560 244 583 279 c 0
 603 309 615 340 608 363 c 0
 605 375 598 379 584 379 c 0
EndSplineSet
Substitution2: "Single Substitution lookup 78 subtable" b.003
Ligature2: "'liga' Standard Ligatures lookup 53 subtable" b e
EndChar

StartChar: c.001
Encoding: 65606 -1 195
Width: 306
GlyphClass: 2
Flags: MW
HStem: -4 33<140 158 117.5 158.5> 373 38<121.5 154.5>
VStem: -17 37<180.5 201>
LayerCount: 2
Fore
SplineSet
140 -4 m 0
 67 -3 36 33 12 74 c 0
 -7 109 -17 152 -17 201 c 0
 -18 268 6 336 44 373 c 0
 70 398 103 411 134 411 c 0
 189 411 236 377 254 325 c 0
 258 314 253 304 243 301 c 0
 234 298 223 303 220 310 c 0
 202 353 175 373 134 373 c 0
 109 373 86 363 70 347 c 0
 40 316 20 257 20 201 c 0
 20 160 29 124 43 94 c 0
 59 64 90 29 145 29 c 0
 171 29 187 32 207 46 c 0
 214 51 222 55 230 48 c 0
 237 40 235 30 229 25 c 0
 203 4 177 -4 140 -4 c 0
EndSplineSet
EndChar

StartChar: ccedilla.001
Encoding: 65607 -1 196
Width: 311
GlyphClass: 2
Flags: MW
HStem: -139 32<128.5 132 128.5 138.5> -57 85<138 141.5> -5 33<147 147> 375 39<125 158.5>
VStem: -13 37<179.5 200> 108 37 147 35
LayerCount: 2
Fore
SplineSet
259 328 m 0xba
 262 317 257 307 247 304 c 0
 238 300 228 306 224 313 c 0
 207 355 180 375 137 375 c 0
 113 375 90 366 73 348 c 0
 44 319 24 257 24 200 c 0
 24 159 33 123 47 93 c 0
 63 63 94 28 149 28 c 0
 175 28 192 32 212 46 c 0
 219 51 227 55 235 48 c 0
 242 40 240 30 234 25 c 0
 209 5 183 -4 147 -5 c 1xbc
 143 -26 l 1xdc
 151 -26 160 -30 167 -36 c 0
 173 -42 185 -57 182 -84 c 0
 175 -131 145 -139 132 -139 c 0
 119 -139 98 -132 89 -95 c 0
 89 -91 86 -83 97 -79 c 0
 108 -75 113 -82 114 -85 c 0
 116 -87 125 -107 132 -107 c 0
 140 -106 146 -100 147 -82 c 0
 149 -62 143 -57 140 -57 c 0xda
 136 -57 131 -68 117 -58 c 0
 108 -54 108 -48 108 -42 c 0xdc
 108 -38 113 -18 118 -3 c 1xbc
 63 5 37 37 16 73 c 0
 -3 108 -13 151 -13 200 c 0
 -14 267 9 338 47 376 c 0
 73 400 106 414 137 414 c 0
 194 414 241 379 259 328 c 0xba
EndSplineSet
EndChar

StartChar: d.001
Encoding: 65608 -1 197
Width: 419
GlyphClass: 2
Flags: MW
HStem: -6 37<111.5 152.5> -1 33<285 294.5 285 295> 369 38<111.5 152.5 111.5 161.5>
VStem: -12 37<174 227.5> 239 38<154 247.5 341 786>
LayerCount: 2
Fore
SplineSet
132 -6 m 0xb8
 91 -6 54 17 28 57 c 0xb8
 3 95 -12 147 -12 201 c 0
 -12 254 3 305 28 343 c 0
 54 383 91 407 132 407 c 0
 173 407 211 384 238 343 c 0
 238 342 239 342 239 341 c 1
 239 786 l 2
 239 797 250 806 258 806 c 0
 269 806 277 797 277 786 c 2
 277 124 l 2
 277 46 280 32 290 32 c 0
 299 32 307 38 318 46 c 0
 324 51 334 54 341 46 c 0
 348 38 345 29 339 23 c 0
 322 8 305 -1 285 -1 c 0x78
 236 0 241 44 241 67 c 1
 240 63 239 61 237 57 c 0
 211 16 173 -6 132 -6 c 0xb8
132 31 m 0
 191 31 239 107 239 201 c 0
 239 294 191 369 132 369 c 0
 74 369 25 292 25 201 c 0
 25 107 74 31 132 31 c 0
EndSplineSet
EndChar

StartChar: eacute.001
Encoding: 65609 -1 198
Width: 281
GlyphClass: 2
Flags: MW
HStem: -4 33<123 139 103 139.5> 379 35.59 510.54 125.46
VStem: -10 35<164 182 164 183> 147 36.91
LayerCount: 2
Fore
SplineSet
72 513 m 0
 64 518 64 525 68 533 c 2
 127 627 l 2
 132 634 141 641 155 632 c 0
 166 624 166 615 160 605 c 2
 93 517 l 2
 91 513 81 507 72 513 c 0
123 -4 m 0
 56 -3 17 33 0 92 c 1
 -29 62 -56 39 -85 18 c 0
 -94 11 -102 22 -103 32 c 0
 -103 41 -99 46 -91 52 c 0
 -69 69 -32 102 -9 127 c 1
 -10 142 -10 153 -10 164 c 0
 -10 202 -5 237 4 271 c 0
 33 372 81 430 146 411 c 0
 163 407 176 392 181 373 c 0
 187 352 192 293 107 204 c 0
 77 171 51 143 29 120 c 1
 42 59 78 29 128 29 c 0
 150 29 165 36 182 46 c 0
 188 51 198 54 205 46 c 0
 212 38 209 28 203 23 c 0
 179 8 156 -4 123 -4 c 0
25 164 m 1
 44 184 63 204 81 225 c 0
 139 291 154 339 147 363 c 0
 144 375 137 379 123 379 c 0
 84 379 51 314 38 262 c 0
 30 232 25 200 25 164 c 1
EndSplineSet
Substitution2: "Single Substitution lookup 90 subtable" eacute.006
EndChar

StartChar: ecircumflex.001
Encoding: 65610 -1 199
Width: 281
GlyphClass: 2
Flags: MW
HStem: -4 33<123 139 103 139.5> 379 35.59 589 41<101 118>
VStem: -10 35<164 182 164 183> 41.12 153.38 147 36.91
LayerCount: 2
Fore
SplineSet
48 518 m 0xf8
 40 524 39 530 44 537 c 2
 101 630 l 2
 104 635 111 640 118 639 c 0
 126 640 131 635 135 630 c 2
 192 537 l 2
 196 530 196 524 188 518 c 0
 179 513 171 518 169 522 c 2
 118 589 l 1
 66 522 l 2
 64 518 55 513 48 518 c 0xf8
123 -4 m 0
 56 -3 17 33 0 92 c 1
 -29 62 -56 39 -85 18 c 0
 -94 11 -102 22 -103 32 c 0
 -103 41 -99 46 -91 52 c 0
 -69 69 -32 102 -9 127 c 1
 -10 142 -10 153 -10 164 c 0
 -10 202 -5 237 4 271 c 0
 33 372 81 430 146 411 c 0
 163 407 176 392 181 373 c 0
 187 352 192 293 107 204 c 0xd4
 77 171 51 143 29 120 c 1
 42 59 78 29 128 29 c 0
 150 29 165 36 182 46 c 0
 188 51 198 54 205 46 c 0
 212 38 209 28 203 23 c 0
 179 8 156 -4 123 -4 c 0
25 164 m 1
 44 184 63 204 81 225 c 0
 139 291 154 339 147 363 c 0
 144 375 137 379 123 379 c 0
 84 379 51 314 38 262 c 0
 30 232 25 200 25 164 c 1
EndSplineSet
Substitution2: "Single Substitution lookup 90 subtable" ecircumflex.006
EndChar

StartChar: edieresis.001
Encoding: 65611 -1 200
Width: 281
GlyphClass: 2
Flags: MW
HStem: -4 33<123 139 103 139.5> 379 35.59 515 106<61 85 61 158>
VStem: -10 35<164 182 164 183> 66 31.5 139 35 147 36.91
LayerCount: 2
Fore
SplineSet
80 515 m 0xfc
 70 515 66 525 66 529 c 2
 61 621 l 2
 62 633 68 641 82 641 c 0
 96 641 101 630 100 621 c 2
 95 529 l 2
 94 520 90 515 80 515 c 0xfc
153 515 m 0
 143 515 139 525 139 529 c 2
 135 621 l 2
 136 633 141 641 156 641 c 0
 170 641 174 630 174 621 c 2
 168 529 l 2
 167 520 163 515 153 515 c 0
123 -4 m 0
 56 -3 17 33 0 92 c 1
 -29 62 -56 39 -85 18 c 0
 -94 11 -102 22 -103 32 c 0
 -103 41 -99 46 -91 52 c 0
 -69 69 -32 102 -9 127 c 1
 -10 142 -10 153 -10 164 c 0
 -10 202 -5 237 4 271 c 0
 33 372 81 430 146 411 c 0
 163 407 176 392 181 373 c 0
 187 352 192 293 107 204 c 0xfa
 77 171 51 143 29 120 c 1
 42 59 78 29 128 29 c 0
 150 29 165 36 182 46 c 0
 188 51 198 54 205 46 c 0
 212 38 209 28 203 23 c 0
 179 8 156 -4 123 -4 c 0
25 164 m 1
 44 184 63 204 81 225 c 0
 139 291 154 339 147 363 c 0
 144 375 137 379 123 379 c 0
 84 379 51 314 38 262 c 0
 30 232 25 200 25 164 c 1
EndSplineSet
Substitution2: "Single Substitution lookup 90 subtable" edieresis.006
EndChar

StartChar: egrave.001
Encoding: 65612 -1 201
Width: 281
GlyphClass: 2
Flags: MW
HStem: -4 33<123 139 103 139.5> 379 35.59 511.54 126.03
VStem: -10 35<164 182 164 183> 147 36.91
LayerCount: 2
Fore
SplineSet
156 514 m 0
 147 508 139 514 137 518 c 2
 68 606 l 2
 62 617 62 626 74 634 c 0
 86 642 96 636 101 628 c 2
 160 534 l 2
 164 526 163 520 156 514 c 0
123 -4 m 0
 56 -3 17 33 0 92 c 1
 -29 62 -56 39 -85 18 c 0
 -94 11 -102 22 -103 32 c 0
 -103 41 -99 46 -91 52 c 0
 -69 69 -32 102 -9 127 c 1
 -10 142 -10 153 -10 164 c 0
 -10 202 -5 237 4 271 c 0
 33 372 81 430 146 411 c 0
 163 407 176 392 181 373 c 0
 187 352 192 293 107 204 c 0
 77 171 51 143 29 120 c 1
 42 59 78 29 128 29 c 0
 150 29 165 36 182 46 c 0
 188 51 198 54 205 46 c 0
 212 38 209 28 203 23 c 0
 179 8 156 -4 123 -4 c 0
25 164 m 1
 44 184 63 204 81 225 c 0
 139 291 154 339 147 363 c 0
 144 375 137 379 123 379 c 0
 84 379 51 314 38 262 c 0
 30 232 25 200 25 164 c 1
EndSplineSet
Substitution2: "Single Substitution lookup 90 subtable" egrave.006
EndChar

StartChar: f.001
Encoding: 65613 -1 202
Width: 477
GlyphClass: 3
Flags: MW
HStem: -8 35<254.5 297> 123 38<99 128> 766.05 40.45
VStem: 60 39<-387 123 172 329 329 329 475 665> 189 40<727 727> 366 37
LayerCount: 2
Fore
SplineSet
490 251 m 0
 496 249 500 241 498 235 c 0
 468 154 419 86 380 45 c 1
 355 11 316 -8 278 -8 c 0
 211 -8 160 31 147 91 c 0
 145 100 151 108 162 111 c 0
 170 113 180 111 183 101 c 0
 199 46 231 27 278 27 c 0
 328 27 366 57 366 136 c 2
 367 339 l 1
 270 213 l 2
 233 165 177 128 143 124 c 0
 116 121 107 123 99 123 c 1
 99 -387 l 2
 99 -398 90 -406 79 -406 c 0
 68 -406 60 -398 60 -387 c 2
 60 131 l 1
 36 138 19 149 12 154 c 0
 8 156 5 162 4 168 c 0
 4 173 5 177 9 181 c 0
 14 190 28 192 36 184 c 0
 37 182 46 177 60 172 c 1
 60 329 l 1
 48 300 20 235 13 216 c 0
 10 209 3 206 -3 208 c 0
 -13 212 -16 221 -12 227 c 0
 2 262 56 393 60 405 c 1
 60 665 l 2
 60 729 67 768 105 793 c 0
 126 809 156 811 183 799 c 0
 210 787 228 760 229 728 c 0
 230 684 184 590 183 586 c 2
 99 402 l 1
 99 162 l 1
 108 161 118 161 128 161 c 0
 168 164 214 192 247 236 c 2
 365 393 l 2
 372 403 378 409 386 410 c 0
 396 411 403 403 403 394 c 2
 404 124 l 1
 404 122 l 1
 429 156 455 198 473 245 c 0
 476 251 484 254 490 251 c 0
99 665 m 2
 99 475 l 1
 157 619 l 2
 177 665 189 702 189 727 c 0
 189 743 183 755 167 762 c 0
 151 771 132 764 124 760 c 0
 103 747 99 717 99 665 c 2
EndSplineSet
Substitution2: "Single Substitution lookup 88 subtable" f.005
Substitution2: "Single Substitution lookup 80 subtable" f.007
Substitution2: "Single Substitution lookup 79 subtable" f.005
Substitution2: "Single Substitution lookup 78 subtable" f.004
Ligature2: "'liga' Standard Ligatures lookup 55 subtable" f s
EndChar

StartChar: g.001
Encoding: 65614 -1 203
Width: 382
GlyphClass: 2
Flags: MW
HStem: -407 40 -8 21G<91.5 152.5> -8 38<102 152.5> 369 37<103 152.5 91.5 161>
VStem: -13 37<153.5 246 153.5 257.5> 106 36<4.29497e+09 4.29497e+09> 242 38<-56 -37 -37 -37 43 76 76 76 323 387>
LayerCount: 2
Fore
SplineSet
169 -407 m 0xbe
 123 -404 105 -362 106 -299 c 0
 108 -187 158 -73 242 11 c 1xde
 242 76 l 1
 223 26 174 -8 131 -8 c 0
 52 -8 -13 85 -13 200 c 0
 -13 315 52 406 131 406 c 0
 174 406 222 373 242 323 c 1
 242 387 l 2
 242 398 250 406 261 406 c 0
 271 406 280 398 280 387 c 2
 280 43 l 1
 292 53 304 64 318 75 c 0
 329 84 338 86 343 77 c 0
 348 68 342 58 333 49 c 0
 308 26 296 17 280 3 c 1
 280 -89 l 2
 280 -163 276 -223 269 -269 c 0
 257 -350 233 -411 169 -407 c 0xbe
131 30 m 0
 191 30 239 107 239 200 c 0
 239 293 191 369 131 369 c 0
 75 369 24 292 24 200 c 0
 24 107 73 30 131 30 c 0
173 -367 m 0
 213 -371 222 -316 230 -258 c 0
 238 -203 242 -132 242 -56 c 2
 242 -37 l 1
 175 -113 146 -206 142 -300 c 0
 141 -335 148 -365 173 -367 c 0
EndSplineSet
EndChar

StartChar: h.001
Encoding: 65615 -1 204
Width: 488
GlyphClass: 2
Flags: MW
HStem: -6 21G<71 81.5> -1 33<354 363.5 354 364> 369 39<180 229.5> 767 37.63
VStem: 58 36<13 266> 60 37<668 694 668 703.5> 190 41<728 728> 307 39<73 78 78 263>
LayerCount: 2
Fore
SplineSet
76 -6 m 0xb9
 66 -6 58 3 58 13 c 2
 58 328 l 1
 47 300 19 233 12 213 c 0
 7 206 3 201 -7 205 c 0
 -16 209 -15 221 -12 226 c 0xb9
 1 261 53 391 58 404 c 1
 60 668 l 2
 60 739 71 771 101 792 c 0x75
 126 807 161 809 186 797 c 0
 213 786 230 757 231 728 c 0
 232 680 187 593 187 593 c 2
 187 592 143 492 94 394 c 1
 94 361 l 1
 122 390 160 408 200 408 c 0
 280 408 346 343 346 263 c 2
 346 78 l 2
 346 46 349 32 359 32 c 0
 368 32 376 38 387 46 c 0
 393 51 403 54 410 46 c 0
 417 38 414 29 408 23 c 0
 391 8 374 -1 354 -1 c 0
 305 0 307 50 307 73 c 2x7b
 307 263 l 2
 307 322 259 369 200 369 c 0
 148 369 94 326 94 266 c 2
 94 13 l 2
 94 2 87 -6 76 -6 c 0xb9
94 466 m 1x77
 127 539 159 621 160 622 c 0
 174 657 190 700 190 728 c 0
 190 742 180 757 167 762 c 0
 156 768 139 770 122 760 c 0
 100 746 97 720 97 668 c 2
 94 466 l 1x77
EndSplineSet
EndChar

StartChar: i.001
Encoding: 65616 -1 205
Width: 233
GlyphClass: 2
Flags: MW
HStem: -1 33<99 108.5 99 109> 532 60<62 79>
VStem: 40 62<554 571> 52 38<73 76 76 306 306 306>
LayerCount: 2
Fore
SplineSet
70 532 m 0xe0
 54 532 40 545 40 563 c 0
 40 579 54 592 70 592 c 0
 88 592 102 579 102 563 c 0
 102 545 88 532 70 532 c 0xe0
99 -1 m 0xd0
 50 0 52 50 52 73 c 2
 52 306 l 1
 43 283 7 202 7 202 c 2
 5 195 -3 192 -10 194 c 0
 -18 198 -21 205 -18 212 c 0
 -18 213 22 306 42 364 c 2
 52 395 l 2
 57 403 66 407 73 406 c 0
 83 404 90 397 90 388 c 2
 90 76 l 2
 90 44 94 32 104 32 c 0
 113 32 121 38 132 46 c 0
 138 51 148 54 155 46 c 0
 162 38 159 29 153 23 c 0
 136 8 119 -1 99 -1 c 0xd0
EndSplineSet
EndChar

StartChar: idieresis.001
Encoding: 65617 -1 206
Width: 233
GlyphClass: 2
Flags: MW
HStem: -1 33<99 108.5 99 109> 518 122<37 40 110 112.5>
VStem: 21 31.5 52 38<73 76 76 306 306 306> 94 34
LayerCount: 2
Fore
SplineSet
35 518 m 0xe8
 26 518 21 527 21 532 c 2
 17 622 l 2
 18 633 24 641 37 640 c 0
 51 640 57 631 55 621 c 2
 50 532 l 2
 49 523 45 518 35 518 c 0xe8
108 518 m 0
 98 518 94 527 94 532 c 2
 90 622 l 2
 91 633 95 641 110 640 c 0
 124 640 128 631 128 621 c 2
 122 532 l 2
 122 523 117 518 108 518 c 0
155 46 m 0x90
 162 38 159 29 153 23 c 0
 136 8 119 -1 99 -1 c 0
 50 0 52 50 52 73 c 2
 52 306 l 1
 43 283 7 202 7 202 c 2
 5 195 -3 192 -10 194 c 0
 -18 198 -21 205 -18 212 c 0
 -18 213 22 306 42 364 c 2
 52 395 l 2
 57 403 66 407 73 406 c 0
 83 404 90 397 90 388 c 2
 90 76 l 2
 90 44 94 32 104 32 c 0
 113 32 121 38 132 46 c 0
 138 51 148 54 155 46 c 0x90
EndSplineSet
EndChar

StartChar: j.001
Encoding: 65618 -1 207
Width: 193
GlyphClass: 2
Flags: MW
HStem: -407 40 529 61<67 83 67 83.5>
VStem: -83 36<4.29497e+09 4.29497e+09> 45 60<552.5 569> 53 38<-56 -37 -37 -37 43 306 306 306>
LayerCount: 2
Fore
SplineSet
75 529 m 0xf0
 59 529 45 544 45 561 c 0
 45 577 59 590 75 590 c 0
 91 590 105 577 105 561 c 0
 105 543 92 529 75 529 c 0xf0
-20 -407 m 0
 -66 -404 -84 -362 -83 -299 c 0
 -81 -187 -31 -73 53 11 c 1
 53 306 l 1
 44 283 8 202 8 202 c 2
 6 195 -2 192 -9 194 c 0
 -17 198 -20 205 -17 212 c 0
 -17 213 23 306 43 364 c 2
 53 395 l 2
 58 403 67 407 74 406 c 0
 84 404 91 397 91 388 c 2
 91 43 l 1
 103 53 115 64 129 75 c 0
 140 84 149 86 154 77 c 0
 159 68 153 58 144 49 c 0
 119 26 107 17 91 3 c 1
 91 -89 l 2
 91 -163 87 -223 80 -269 c 0xe8
 68 -350 44 -411 -20 -407 c 0
-16 -367 m 0
 24 -371 33 -316 41 -258 c 0
 49 -203 53 -132 53 -56 c 2
 53 -37 l 1
 -14 -113 -43 -206 -47 -300 c 0
 -48 -335 -41 -365 -16 -367 c 0
EndSplineSet
EndChar

StartChar: k.001
Encoding: 65619 -1 208
Width: 458
GlyphClass: 2
Flags: MW
HStem: -4 33<290 316 290 316.5> 170.8 39.36 766 39.75
VStem: 58 37<14 156> 185 39<726 734.5> 311.91 39.69
LayerCount: 2
Fore
SplineSet
76 -4 m 0
 65 -4 58 4 58 14 c 2
 58 328 l 1
 47 300 19 233 12 213 c 0
 7 206 3 201 -7 205 c 0
 -16 209 -15 221 -12 226 c 0
 1 261 53 391 58 404 c 1
 57 664 l 2
 57 739 66 770 99 793 c 0
 121 808 152 810 178 799 c 0
 206 787 224 758 224 726 c 0
 224 686 196 624 179 586 c 0
 162 548 143 504 95 402 c 1
 95 328 l 1
 116 363 153 400 212 407 c 0
 266 415 322 395 345 337 c 0
 365 288 339 231 282 194 c 0
 246 173 196 166 130 174 c 1
 233 64 275 29 305 29 c 0
 327 29 342 36 359 46 c 0
 365 51 375 54 382 46 c 0
 389 38 386 28 380 23 c 0
 356 8 333 -4 300 -4 c 0
 254 -4 216 26 95 156 c 1
 95 14 l 2
 95 3 86 -4 76 -4 c 0
94 472 m 1
 153 606 l 2
 174 653 186 694 185 726 c 0
 185 743 172 757 161 762 c 0
 149 767 133 769 119 758 c 0
 98 744 94 716 94 664 c 2
 94 472 l 1
97 220 m 1
 113 216 211 195 262 229 c 0
 311 261 318 301 308 325 c 0
 300 348 267 378 217 370 c 0
 136 358 102 276 97 220 c 1
EndSplineSet
EndChar

StartChar: l.001
Encoding: 65620 -1 209
Width: 238
GlyphClass: 2
Flags: MW
HStem: -1 33<105 114.5 105 115> 764.13 39.62
VStem: 58 38<73 77 77 328 328 328> 185 40<723 732>
LayerCount: 2
Fore
SplineSet
105 -1 m 0
 56 0 58 50 58 73 c 2
 58 328 l 1
 47 300 19 233 12 213 c 0
 7 206 3 201 -7 205 c 0
 -16 209 -15 221 -12 226 c 0
 1 261 53 391 58 404 c 1
 56 661 l 2
 56 736 67 768 100 791 c 0
 123 806 153 808 180 797 c 0
 207 785 225 756 225 725 c 0
 225 683 196 621 180 585 c 0
 163 548 144 504 96 401 c 1
 96 77 l 2
 96 45 100 32 110 32 c 0
 119 32 127 38 138 46 c 0
 144 51 154 54 161 46 c 0
 168 38 165 29 159 23 c 0
 142 8 125 -1 105 -1 c 0
95 469 m 1
 154 603 l 2
 175 649 186 689 185 723 c 0
 185 741 173 755 163 760 c 0
 150 765 135 767 120 757 c 0
 100 741 95 713 95 661 c 2
 95 469 l 1
EndSplineSet
EndChar

StartChar: m.001
Encoding: 65621 -1 210
Width: 733
GlyphClass: 2
Flags: MW
HStem: -5 21G<64 74.5 314 324.5> -1 33<599 608.5 599 609> 370 38<173.5 220 173.5 225 418.5 475>
VStem: 52 37<13 274> 300 38<13 264> 552 38<73 77 77 264>
LayerCount: 2
Fore
SplineSet
69 -5 m 0xbc
 59 -5 52 4 52 13 c 2xbc
 52 306 l 1
 43 283 8 202 8 202 c 2
 6 195 -2 192 -9 194 c 0
 -17 198 -20 205 -17 212 c 0
 -17 213 23 306 43 364 c 2
 53 395 l 2
 58 403 67 407 74 406 c 0
 84 404 91 397 91 388 c 2
 91 362 l 1
 117 392 153 408 194 408 c 0
 246 408 294 380 319 335 c 1
 345 380 392 408 445 408 c 0
 525 408 590 343 590 264 c 2
 590 77 l 2
 590 45 594 32 604 32 c 0
 613 32 621 38 632 46 c 0
 638 51 648 54 655 46 c 0
 662 38 659 29 653 23 c 0
 636 8 619 -1 599 -1 c 0
 550 0 552 50 552 73 c 2x7c
 552 264 l 2
 552 322 505 370 445 370 c 0
 386 370 338 322 338 264 c 2
 338 13 l 2
 338 4 330 -5 319 -5 c 0
 309 -5 300 4 300 13 c 2
 300 264 l 2
 300 322 254 370 196 370 c 0
 141 370 93 328 89 274 c 1
 89 13 l 2
 89 4 80 -5 69 -5 c 0xbc
EndSplineSet
EndChar

StartChar: n.001
Encoding: 65622 -1 211
Width: 485
GlyphClass: 2
Flags: MW
HStem: -5 21G<65.5 76.5> -1 33<351 360.5 351 361> 370 38<176 226>
VStem: 52 38<14 263> 304 38<73 77 77 264>
LayerCount: 2
Fore
SplineSet
71 -5 m 0xb8
 60 -5 52 4 52 14 c 2xb8
 52 263 l 1
 52 306 l 1
 43 283 8 202 8 202 c 2
 6 195 -2 192 -9 194 c 0
 -17 198 -20 205 -17 212 c 0
 -17 213 23 306 43 364 c 2
 53 395 l 2
 58 403 67 407 74 406 c 0
 84 404 91 397 91 388 c 2
 91 360 l 1
 118 390 156 408 196 408 c 0
 276 408 342 344 342 264 c 2
 342 77 l 2
 342 45 346 32 356 32 c 0
 365 32 373 38 384 46 c 0
 390 51 400 54 407 46 c 0
 414 38 411 29 405 23 c 0
 388 8 371 -1 351 -1 c 0
 302 0 304 50 304 73 c 2x78
 304 264 l 2
 304 323 256 370 196 370 c 0
 138 370 90 322 90 263 c 2
 90 14 l 2
 90 4 82 -5 71 -5 c 0xb8
EndSplineSet
EndChar

StartChar: o.001
Encoding: 65623 -1 212
Width: 725
GlyphClass: 3
Flags: MW
HStem: -15 38<124.5 169> -4 34<545 545> 376 38<124.5 169 124.5 180.5> 379 35.59
VStem: -12 37<171.5 228.5> 269 37<197 219 197 248.5> 411 35<165 165> 568 36.87
LayerCount: 2
Fore
SplineSet
739 250 m 0x6f
 745 249 749 243 746 233 c 0
 678 75 638 -5 545 -4 c 0x6f
 451 -2 411 65 411 164 c 2
 411 165 l 1
 373 172 336 191 306 219 c 1
 306 197 l 2
 305 141 290 88 262 50 c 0
 231 8 191 -15 147 -15 c 0
 102 -15 63 8 33 50 c 0
 4 89 -12 143 -12 200 c 0
 -12 257 3 309 33 350 c 0
 62 391 102 414 147 414 c 0
 191 414 232 391 262 350 c 0xaf
 270 338 277 325 283 313 c 0
 313 249 355 214 413 202 c 1
 415 226 419 249 425 271 c 0x5f
 454 372 502 430 567 411 c 0
 584 407 597 392 602 373 c 0
 607 356 611 317 570 256 c 0
 542 214 492 178 446 166 c 1
 449 84 479 30 545 30 c 0
 615 30 664 105 721 243 c 0
 725 250 733 253 739 250 c 0x6f
544 379 m 0x9f
 505 379 472 314 459 262 c 0
 454 243 450 223 447 203 c 1
 488 215 520 244 543 279 c 0
 563 309 575 340 568 363 c 0
 565 375 558 379 544 379 c 0x9f
147 23 m 0
 214 23 269 103 269 200 c 0
 269 297 214 376 147 376 c 0x6f
 80 376 25 295 25 200 c 0
 25 105 80 23 147 23 c 0
EndSplineSet
Substitution2: "Single Substitution lookup 81 subtable" o.003
Ligature2: "'liga' Standard Ligatures lookup 57 subtable" o e
EndChar

StartChar: oe.001
Encoding: 65624 -1 213
Width: 586
GlyphClass: 2
Flags: MW
HStem: -15 38<123.5 168> -4 33 376 38<123.5 168 123.5 179.5> 379 35.64
VStem: -13 37<171.5 228.5> 268 47<164 182 164 248.5> 437 36.63
LayerCount: 2
Fore
SplineSet
507 46 m 0x5e
 514 38 512 27 505 23 c 0
 480 9 457 -5 414 -4 c 0x6e
 346 -2 306 33 290 92 c 2
 288 100 l 1
 281 81 272 65 261 50 c 0
 230 8 190 -15 146 -15 c 0
 101 -15 62 8 32 50 c 0
 3 89 -13 143 -13 200 c 0
 -13 257 2 309 32 350 c 0
 61 391 101 414 146 414 c 0
 190 414 230 391 260 350 c 0xae
 276 328 290 300 296 276 c 1
 328 373 372 430 436 411 c 0
 453 407 466 392 471 373 c 0
 477 352 480 295 397 204 c 0
 367 171 341 143 319 120 c 1
 331 60 365 29 418 29 c 0
 451 29 470 34 484 46 c 0
 490 51 500 54 507 46 c 0x5e
328 262 m 0
 320 232 315 200 315 164 c 1
 334 184 353 204 371 225 c 0
 428 292 444 339 437 363 c 0
 434 375 427 379 413 379 c 0
 374 379 342 314 328 262 c 0
146 23 m 0xae
 213 23 268 103 268 200 c 0
 268 297 213 376 146 376 c 0
 79 376 24 295 24 200 c 0
 24 105 79 23 146 23 c 0xae
EndSplineSet
EndChar

StartChar: p.001
Encoding: 65625 -1 214
Width: 460
GlyphClass: 2
Flags: MW
HStem: -404 21G<67.5 77.5> -1 33<326 335.5 326 336> 370 38<168.5 212.5>
VStem: 54 38 279 38<73 77 77 265>
LayerCount: 2
Fore
SplineSet
73 -404 m 0
 62 -404 54 -396 54 -384 c 2
 53 309 l 1
 44 284 8 202 8 202 c 2
 6 195 -2 192 -9 194 c 0
 -17 198 -20 205 -17 212 c 0
 -17 213 23 306 43 364 c 2
 53 395 l 2
 58 403 67 407 74 406 c 0
 84 404 91 397 91 388 c 2
 91 364 l 1
 116 392 150 408 187 408 c 0
 258 408 317 343 317 265 c 2
 317 77 l 2
 317 45 321 32 331 32 c 0
 340 32 348 38 359 46 c 0
 365 51 375 54 382 46 c 0
 389 38 386 29 380 23 c 0
 363 8 346 -1 326 -1 c 0
 277 0 279 50 279 73 c 2
 279 265 l 2
 279 322 238 370 187 370 c 0
 133 370 92 323 92 265 c 2
 91 -384 l 2
 91 -395 82 -404 73 -404 c 0
EndSplineSet
EndChar

